<?xml version="1.0" encoding="UTF-8"?>
<!DOCTYPE svg PUBLIC "-//W3C//DTD SVG 1.1//EN" "http://www.w3.org/Graphics/SVG/1.1/DTD/svg11.dtd">
<!-- Creator: CorelDRAW 2021 (64-Bit) -->
<svg xmlns="http://www.w3.org/2000/svg" xml:space="preserve" width="1.97987in" height="0.462087in" version="1.1" style="shape-rendering:geometricPrecision; text-rendering:geometricPrecision; image-rendering:optimizeQuality; fill-rule:evenodd; clip-rule:evenodd"
viewBox="0 0 1292.7 301.71"
 xmlns:xlink="http://www.w3.org/1999/xlink"
 xmlns:xodm="http://www.corel.com/coreldraw/odm/2003">
 <defs>
  <style type="text/css">
   <![CDATA[
    .fil0 {fill:#373435}
   ]]>
  </style>
 </defs>
 <g id="Layer_x0020_1">
  <metadata id="CorelCorpID_0Corel-Layer"/>
  <g id="_2180988890464">
   <path class="fil0" d="M150.85 0c83.35,0 150.85,67.51 150.85,150.85 -6.01,81.55 -48.79,131.83 -128.34,150.85l-22.52 0c-83.35,0 -150.85,-67.51 -150.85,-150.85 0,-83.35 67.51,-150.85 150.85,-150.85zm0 55.27c52.81,0 95.59,42.78 95.59,95.59 0,52.81 -42.78,95.59 -95.59,95.59 -52.81,0 -95.59,-42.78 -95.59,-95.59 0,-52.81 42.78,-95.59 95.59,-95.59z"/>
   <path class="fil0" d="M455.27 198.49c0,1.39 0,2.52 -0.13,3.47 -0.06,0.95 -0.25,1.77 -0.38,2.46 -0.13,0.69 -0.38,1.26 -0.63,1.77 -0.25,0.44 -0.69,1.01 -1.32,1.64 -0.57,0.63 -1.77,1.39 -3.47,2.4 -1.7,0.95 -3.79,1.89 -6.25,2.78 -2.46,0.88 -5.3,1.64 -8.45,2.21 -3.15,0.57 -6.62,0.88 -10.28,0.88 -7.19,0 -13.69,-1.14 -19.5,-3.34 -5.8,-2.21 -10.73,-5.55 -14.83,-9.97 -4.1,-4.42 -7.19,-9.9 -9.34,-16.53 -2.15,-6.62 -3.22,-14.32 -3.22,-23.09 0,-8.96 1.2,-16.91 3.6,-23.85 2.4,-6.94 5.74,-12.74 9.97,-17.48 4.29,-4.73 9.4,-8.26 15.4,-10.73 5.99,-2.46 12.55,-3.66 19.81,-3.66 2.9,0 5.74,0.25 8.45,0.76 2.71,0.44 5.24,1.14 7.51,1.89 2.33,0.76 4.35,1.7 6.25,2.71 1.83,1.07 3.15,1.96 3.85,2.65 0.69,0.76 1.2,1.39 1.51,1.83 0.25,0.5 0.5,1.14 0.63,1.83 0.19,0.76 0.32,1.64 0.38,2.71 0.06,1.01 0.13,2.27 0.13,3.79 0,1.64 -0.06,3.03 -0.19,4.16 -0.13,1.14 -0.32,2.08 -0.57,2.78 -0.25,0.69 -0.63,1.2 -0.95,1.51 -0.38,0.32 -0.82,0.5 -1.32,0.5 -0.82,0 -1.83,-0.44 -3.09,-1.39 -1.26,-0.95 -2.84,-2.02 -4.86,-3.15 -1.96,-1.14 -4.35,-2.21 -7.07,-3.15 -2.71,-0.95 -5.99,-1.39 -9.78,-1.39 -4.16,0 -7.89,0.88 -11.17,2.52 -3.28,1.7 -6.06,4.16 -8.33,7.32 -2.33,3.22 -4.04,7 -5.24,11.55 -1.2,4.48 -1.77,9.53 -1.77,15.2 0,6.18 0.63,11.55 1.89,16.02 1.26,4.48 3.09,8.26 5.43,11.17 2.33,2.9 5.17,5.11 8.52,6.5 3.34,1.45 7.07,2.15 11.23,2.15 3.79,0 7.07,-0.44 9.84,-1.32 2.78,-0.88 5.11,-1.89 7.07,-2.97 2.02,-1.07 3.6,-2.08 4.86,-2.9 1.26,-0.88 2.27,-1.32 2.97,-1.32 0.5,0 0.95,0.13 1.26,0.32 0.32,0.25 0.63,0.63 0.82,1.32 0.19,0.63 0.38,1.58 0.44,2.71 0.13,1.2 0.19,2.78 0.19,4.73l0.12 0zm837.43 -15.71c0,5.55 -1.01,10.41 -3.09,14.58 -2.08,4.16 -4.86,7.63 -8.39,10.41 -3.53,2.78 -7.63,4.86 -12.37,6.31 -4.73,1.39 -9.78,2.08 -15.14,2.08 -3.66,0 -7,-0.32 -10.16,-0.95 -3.09,-0.63 -5.87,-1.32 -8.26,-2.21 -2.4,-0.82 -4.42,-1.7 -5.99,-2.65 -1.64,-0.95 -2.78,-1.77 -3.47,-2.46 -0.69,-0.69 -1.2,-1.77 -1.51,-3.09 -0.32,-1.32 -0.44,-3.22 -0.44,-5.74 0,-1.7 0.06,-3.09 0.19,-4.23 0.13,-1.14 0.25,-2.08 0.5,-2.78 0.25,-0.69 0.57,-1.2 0.95,-1.51 0.44,-0.32 0.88,-0.44 1.45,-0.44 0.76,0 1.83,0.44 3.22,1.39 1.39,0.88 3.15,1.89 5.36,2.97 2.15,1.07 4.79,2.08 7.82,2.97 3.03,0.95 6.5,1.39 10.47,1.39 2.59,0 4.92,-0.32 7,-0.95 2.08,-0.63 3.85,-1.51 5.3,-2.65 1.45,-1.14 2.52,-2.52 3.28,-4.16 0.76,-1.64 1.14,-3.53 1.14,-5.55 0,-2.4 -0.63,-4.42 -1.96,-6.12 -1.32,-1.7 -3.03,-3.22 -5.11,-4.54 -2.08,-1.32 -4.48,-2.59 -7.13,-3.72 -2.65,-1.14 -5.36,-2.4 -8.2,-3.72 -2.84,-1.32 -5.55,-2.78 -8.2,-4.42 -2.65,-1.64 -5.05,-3.6 -7.13,-5.93 -2.08,-2.33 -3.79,-5.05 -5.11,-8.2 -1.32,-3.15 -1.96,-6.94 -1.96,-11.29 0,-5.05 0.95,-9.46 2.78,-13.31 1.83,-3.79 4.42,-6.94 7.57,-9.53 3.22,-2.52 6.94,-4.42 11.23,-5.68 4.29,-1.26 8.9,-1.83 13.69,-1.83 2.46,0 4.98,0.19 7.44,0.57 2.52,0.38 4.86,0.88 7,1.51 2.15,0.69 4.1,1.39 5.8,2.21 1.64,0.82 2.78,1.51 3.34,2.08 0.5,0.5 0.88,1.01 1.07,1.39 0.19,0.38 0.38,0.88 0.5,1.51 0.13,0.63 0.25,1.39 0.25,2.33 0.06,0.95 0.06,2.08 0.06,3.53 0,1.58 0,2.9 -0.13,3.97 -0.06,1.07 -0.25,1.96 -0.44,2.71 -0.19,0.69 -0.44,1.2 -0.82,1.51 -0.38,0.32 -0.82,0.5 -1.45,0.5 -0.57,0 -1.51,-0.38 -2.84,-1.14 -1.32,-0.76 -2.9,-1.58 -4.79,-2.52 -1.89,-0.88 -4.1,-1.7 -6.62,-2.4 -2.52,-0.76 -5.24,-1.14 -8.2,-1.14 -2.33,0 -4.35,0.25 -6.12,0.88 -1.7,0.57 -3.15,1.39 -4.35,2.33 -1.14,1.01 -2.08,2.21 -2.59,3.6 -0.57,1.39 -0.88,2.9 -0.88,4.48 0,2.33 0.63,4.35 1.89,6.06 1.26,1.7 3.03,3.22 5.11,4.61 2.15,1.32 4.61,2.52 7.32,3.72 2.71,1.14 5.49,2.4 8.33,3.72 2.84,1.32 5.61,2.78 8.33,4.42 2.71,1.64 5.11,3.66 7.26,5.93 2.08,2.33 3.85,4.98 5.11,8.14 1.32,3.09 1.96,6.75 1.96,10.98l0.13 0.07zm-79.81 23.22c0,1.58 -0.06,2.9 -0.19,3.97 -0.13,1.07 -0.32,1.89 -0.63,2.52 -0.25,0.69 -0.63,1.14 -1.01,1.45 -0.38,0.32 -0.88,0.44 -1.32,0.44l-52.81 0c-1.77,0 -3.28,-0.5 -4.48,-1.58 -1.2,-1.07 -1.83,-2.78 -1.83,-5.17l0 -91.8c0,-2.4 0.63,-4.1 1.83,-5.17 1.2,-1.07 2.71,-1.58 4.48,-1.58l52.56 0c0.44,0 0.95,0.13 1.32,0.44 0.38,0.25 0.69,0.76 0.95,1.39 0.25,0.69 0.44,1.58 0.63,2.59 0.13,1.07 0.19,2.4 0.19,4.04 0,1.51 -0.06,2.78 -0.19,3.91 -0.13,1.07 -0.32,1.89 -0.63,2.52 -0.25,0.69 -0.63,1.14 -0.95,1.45 -0.38,0.32 -0.82,0.44 -1.32,0.44l-37.6 0 0 25.68 31.67 0c0.5,0 0.95,0.13 1.32,0.44 0.44,0.32 0.76,0.76 1.01,1.39 0.25,0.63 0.44,1.45 0.63,2.52 0.13,1.07 0.19,2.33 0.19,3.85 0,1.58 -0.06,2.9 -0.19,3.91 -0.13,1.01 -0.32,1.83 -0.63,2.46 -0.25,0.63 -0.63,1.07 -1.01,1.32 -0.38,0.25 -0.82,0.44 -1.32,0.44l-31.67 0 0 29.65 37.79 0c0.5,0 0.95,0.13 1.32,0.44 0.44,0.32 0.76,0.76 1.01,1.45 0.25,0.63 0.44,1.51 0.63,2.52 0.13,1.07 0.19,2.4 0.19,3.97l0.06 0.06zm-74.83 -88.14c0,1.58 -0.06,2.9 -0.19,4.04 -0.13,1.14 -0.32,2.02 -0.63,2.65 -0.25,0.69 -0.63,1.2 -1.01,1.51 -0.38,0.32 -0.88,0.5 -1.32,0.5l-26.31 0 0 84.92c0,0.5 -0.19,1.01 -0.5,1.45 -0.38,0.44 -0.95,0.76 -1.77,1.07 -0.82,0.25 -1.89,0.44 -3.28,0.63 -1.39,0.19 -3.09,0.25 -5.17,0.25 -2.08,0 -3.79,-0.06 -5.17,-0.25 -1.39,-0.19 -2.52,-0.38 -3.28,-0.63 -0.82,-0.25 -1.39,-0.63 -1.77,-1.07 -0.38,-0.44 -0.5,-0.95 -0.5,-1.45l0 -84.92 -26.31 0c-0.5,0 -1.01,-0.19 -1.39,-0.5 -0.38,-0.32 -0.69,-0.82 -0.95,-1.51 -0.25,-0.69 -0.44,-1.58 -0.63,-2.65 -0.13,-1.14 -0.19,-2.46 -0.19,-4.04 0,-1.64 0.06,-3.03 0.19,-4.16 0.13,-1.14 0.38,-2.08 0.63,-2.71 0.25,-0.69 0.63,-1.14 0.95,-1.45 0.38,-0.32 0.88,-0.44 1.39,-0.44l74.13 0c0.44,0 0.95,0.13 1.32,0.44 0.44,0.32 0.76,0.76 1.01,1.45 0.25,0.69 0.44,1.58 0.63,2.71 0.13,1.14 0.19,2.52 0.19,4.16l-0.06 0zm-71.67 88.58c0.63,1.96 1.07,3.47 1.2,4.67 0.19,1.14 -0.06,2.02 -0.63,2.59 -0.63,0.57 -1.64,0.95 -3.22,1.07 -1.51,0.13 -3.6,0.19 -6.25,0.19 -2.78,0 -4.92,0 -6.5,-0.13 -1.58,-0.06 -2.71,-0.25 -3.53,-0.5 -0.82,-0.25 -1.39,-0.57 -1.7,-1.01 -0.32,-0.44 -0.63,-1.01 -0.82,-1.7l-6.94 -21.14 -39.68 0 -6.62 20.57c-0.25,0.76 -0.5,1.39 -0.88,1.89 -0.32,0.5 -0.95,0.95 -1.7,1.2 -0.76,0.32 -1.89,0.5 -3.34,0.63 -1.45,0.13 -3.34,0.19 -5.68,0.19 -2.52,0 -4.42,-0.06 -5.87,-0.25 -1.39,-0.19 -2.4,-0.57 -2.9,-1.14 -0.57,-0.63 -0.76,-1.51 -0.57,-2.65 0.19,-1.14 0.57,-2.65 1.2,-4.54l32.43 -93.44c0.32,-0.95 0.69,-1.64 1.14,-2.21 0.44,-0.57 1.14,-1.01 2.08,-1.32 0.95,-0.32 2.27,-0.5 3.97,-0.57 1.64,-0.06 3.91,-0.13 6.69,-0.13 3.22,0 5.74,0 7.63,0.13 1.89,0.06 3.41,0.25 4.42,0.57 1.07,0.32 1.83,0.76 2.27,1.32 0.44,0.63 0.88,1.39 1.14,2.46l32.56 93.38 0.13 -0.12zm-48.33 -77.29l-0.06 0 -14.64 44.79 29.53 0 -14.83 -44.79zm-53.31 69.34c0,1.39 0,2.52 -0.13,3.47 -0.06,0.95 -0.25,1.77 -0.38,2.46 -0.13,0.69 -0.38,1.26 -0.63,1.77 -0.25,0.44 -0.69,1.01 -1.32,1.64 -0.57,0.63 -1.77,1.39 -3.47,2.4 -1.7,0.95 -3.79,1.89 -6.25,2.78 -2.46,0.88 -5.3,1.64 -8.45,2.21 -3.15,0.57 -6.62,0.88 -10.28,0.88 -7.19,0 -13.69,-1.14 -19.5,-3.34 -5.8,-2.21 -10.73,-5.55 -14.83,-9.97 -4.1,-4.42 -7.19,-9.9 -9.34,-16.53 -2.15,-6.62 -3.22,-14.32 -3.22,-23.09 0,-8.96 1.2,-16.91 3.6,-23.85 2.4,-6.94 5.74,-12.74 9.97,-17.48 4.29,-4.73 9.4,-8.26 15.4,-10.73 5.99,-2.46 12.55,-3.66 19.81,-3.66 2.9,0 5.74,0.25 8.45,0.76 2.71,0.44 5.24,1.14 7.51,1.89 2.33,0.76 4.35,1.7 6.25,2.71 1.83,1.07 3.15,1.96 3.85,2.65 0.69,0.76 1.2,1.39 1.51,1.83 0.25,0.5 0.5,1.14 0.63,1.83 0.19,0.76 0.32,1.64 0.38,2.71 0.06,1.01 0.13,2.27 0.13,3.79 0,1.64 -0.06,3.03 -0.19,4.16 -0.13,1.14 -0.32,2.08 -0.57,2.78 -0.25,0.69 -0.63,1.2 -0.95,1.51 -0.38,0.32 -0.82,0.5 -1.32,0.5 -0.82,0 -1.83,-0.44 -3.09,-1.39 -1.26,-0.95 -2.84,-2.02 -4.86,-3.15 -1.96,-1.14 -4.35,-2.21 -7.07,-3.15 -2.71,-0.95 -5.99,-1.39 -9.78,-1.39 -4.16,0 -7.89,0.88 -11.17,2.52 -3.28,1.7 -6.06,4.16 -8.33,7.32 -2.33,3.22 -4.04,7 -5.24,11.55 -1.2,4.48 -1.77,9.53 -1.77,15.2 0,6.18 0.63,11.55 1.89,16.02 1.26,4.48 3.09,8.26 5.43,11.17 2.33,2.9 5.17,5.11 8.52,6.5 3.34,1.45 7.07,2.15 11.23,2.15 3.79,0 7.07,-0.44 9.84,-1.32 2.78,-0.88 5.11,-1.89 7.07,-2.97 2.02,-1.07 3.6,-2.08 4.86,-2.9 1.26,-0.88 2.27,-1.32 2.97,-1.32 0.5,0 0.95,0.13 1.26,0.32 0.32,0.25 0.63,0.63 0.82,1.32 0.19,0.63 0.38,1.58 0.44,2.71 0.13,1.2 0.19,2.78 0.19,4.73l0.12 0zm-95.77 13c0,0.5 -0.19,1.01 -0.5,1.45 -0.38,0.44 -0.95,0.76 -1.77,1.07 -0.82,0.25 -1.89,0.44 -3.22,0.63 -1.39,0.19 -3.09,0.25 -5.24,0.25 -2.08,0 -3.79,-0.06 -5.17,-0.25 -1.39,-0.19 -2.52,-0.38 -3.28,-0.63 -0.82,-0.25 -1.39,-0.63 -1.77,-1.07 -0.38,-0.44 -0.5,-0.95 -0.5,-1.45l0 -99.5c0,-0.5 0.19,-1.01 0.5,-1.45 0.38,-0.44 0.95,-0.76 1.83,-1.07 0.82,-0.25 1.89,-0.44 3.28,-0.63 1.39,-0.19 3.09,-0.25 5.11,-0.25 2.08,0 3.85,0.06 5.24,0.25 1.32,0.19 2.46,0.38 3.22,0.63 0.82,0.25 1.39,0.63 1.77,1.07 0.38,0.44 0.5,0.95 0.5,1.45l0 99.5zm-38.8 -93.63c0,1.64 -0.06,3.03 -0.19,4.1 -0.13,1.14 -0.38,2.02 -0.69,2.65 -0.32,0.63 -0.63,1.14 -1.01,1.45 -0.38,0.32 -0.82,0.5 -1.32,0.5l-34.51 0 0 28.33 32.37 0c0.5,0 0.95,0.13 1.32,0.44 0.38,0.25 0.69,0.69 1.01,1.39 0.32,0.69 0.5,1.51 0.63,2.59 0.13,1.07 0.25,2.46 0.25,4.1 0,1.64 -0.06,2.97 -0.25,4.04 -0.13,1.07 -0.32,1.96 -0.63,2.71 -0.32,0.69 -0.63,1.2 -1.01,1.51 -0.38,0.32 -0.82,0.44 -1.32,0.44l-32.37 0 0 39.24c0,0.57 -0.19,1.14 -0.5,1.58 -0.32,0.44 -0.88,0.76 -1.77,1.07 -0.82,0.32 -1.96,0.5 -3.28,0.69 -1.39,0.19 -3.09,0.25 -5.24,0.25 -2.08,0 -3.79,-0.06 -5.17,-0.25 -1.39,-0.19 -2.52,-0.38 -3.28,-0.69 -0.82,-0.25 -1.39,-0.69 -1.77,-1.07 -0.38,-0.44 -0.5,-0.95 -0.5,-1.58l0 -95.46c0,-2.4 0.63,-4.1 1.83,-5.17 1.2,-1.07 2.71,-1.58 4.54,-1.58l49.65 0c0.44,0 0.95,0.13 1.32,0.44 0.38,0.32 0.69,0.76 1.01,1.45 0.32,0.69 0.5,1.58 0.69,2.71 0.13,1.14 0.19,2.52 0.19,4.16l-0 -0.06zm-82.08 93.63c0,0.5 -0.19,1.01 -0.5,1.45 -0.38,0.44 -0.95,0.76 -1.77,1.07 -0.82,0.25 -1.89,0.44 -3.22,0.63 -1.39,0.19 -3.09,0.25 -5.24,0.25 -2.08,0 -3.79,-0.06 -5.17,-0.25 -1.39,-0.19 -2.52,-0.38 -3.28,-0.63 -0.82,-0.25 -1.39,-0.63 -1.77,-1.07 -0.38,-0.44 -0.5,-0.95 -0.5,-1.45l0 -99.5c0,-0.5 0.19,-1.01 0.5,-1.45 0.38,-0.44 0.95,-0.76 1.83,-1.07 0.82,-0.25 1.89,-0.44 3.28,-0.63 1.39,-0.19 3.09,-0.25 5.11,-0.25 2.08,0 3.85,0.06 5.24,0.25 1.32,0.19 2.46,0.38 3.22,0.63 0.82,0.25 1.39,0.63 1.77,1.07 0.38,0.44 0.5,0.95 0.5,1.45l0 99.5zm-34.01 -93.63c0,1.58 -0.06,2.9 -0.19,4.04 -0.13,1.14 -0.32,2.02 -0.63,2.65 -0.25,0.69 -0.63,1.2 -1.01,1.51 -0.38,0.32 -0.88,0.5 -1.32,0.5l-26.31 0 0 84.92c0,0.5 -0.19,1.01 -0.5,1.45 -0.38,0.44 -0.95,0.76 -1.77,1.07 -0.82,0.25 -1.89,0.44 -3.28,0.63 -1.39,0.19 -3.09,0.25 -5.17,0.25 -2.08,0 -3.79,-0.06 -5.17,-0.25 -1.39,-0.19 -2.52,-0.38 -3.28,-0.63 -0.82,-0.25 -1.39,-0.63 -1.77,-1.07 -0.38,-0.44 -0.5,-0.95 -0.5,-1.45l0 -84.92 -26.31 0c-0.5,0 -1.01,-0.19 -1.39,-0.5 -0.38,-0.32 -0.69,-0.82 -0.95,-1.51 -0.25,-0.69 -0.44,-1.58 -0.63,-2.65 -0.13,-1.14 -0.19,-2.46 -0.19,-4.04 0,-1.64 0.06,-3.03 0.19,-4.16 0.13,-1.14 0.38,-2.08 0.63,-2.71 0.25,-0.69 0.63,-1.14 0.95,-1.45 0.38,-0.32 0.88,-0.44 1.39,-0.44l74.13 0c0.44,0 0.95,0.13 1.32,0.44 0.44,0.32 0.76,0.76 1.01,1.45 0.25,0.69 0.44,1.58 0.63,2.71 0.13,1.14 0.19,2.52 0.19,4.16l-0.06 0zm-83.98 93.76c0,0.57 -0.13,1.07 -0.32,1.51 -0.25,0.44 -0.69,0.76 -1.51,1.01 -0.82,0.25 -2.02,0.44 -3.6,0.57 -1.58,0.13 -3.72,0.19 -6.44,0.19 -2.27,0 -4.1,-0.06 -5.43,-0.19 -1.39,-0.13 -2.46,-0.32 -3.22,-0.63 -0.76,-0.32 -1.32,-0.69 -1.64,-1.14 -0.32,-0.44 -0.57,-1.01 -0.82,-1.64l-9.53 -23.6c-1.14,-2.65 -2.27,-5.05 -3.34,-7.13 -1.07,-2.08 -2.33,-3.79 -3.66,-5.17 -1.32,-1.39 -2.9,-2.4 -4.67,-3.15 -1.7,-0.69 -3.72,-1.07 -6.06,-1.07l-6.69 0 0 40.25c0,0.5 -0.19,1.01 -0.5,1.45 -0.38,0.44 -0.95,0.82 -1.77,1.07 -0.82,0.25 -1.89,0.44 -3.22,0.63 -1.32,0.19 -3.09,0.25 -5.17,0.25 -2.08,0 -3.79,-0.06 -5.17,-0.25 -1.39,-0.19 -2.46,-0.38 -3.28,-0.63 -0.82,-0.25 -1.39,-0.63 -1.7,-1.07 -0.32,-0.44 -0.5,-0.95 -0.5,-1.45l0 -95.65c0,-2.4 0.63,-4.1 1.83,-5.17 1.2,-1.07 2.71,-1.58 4.48,-1.58l27.26 0c2.78,0 5.05,0.06 6.81,0.19 1.77,0.13 3.41,0.25 4.86,0.38 4.23,0.63 8.01,1.64 11.42,3.09 3.41,1.45 6.25,3.34 8.64,5.74 2.33,2.33 4.16,5.11 5.43,8.33 1.26,3.22 1.83,6.94 1.83,11.1 0,3.47 -0.44,6.75 -1.32,9.59 -0.95,2.9 -2.21,5.49 -3.97,7.76 -1.7,2.27 -3.85,4.23 -6.44,5.93 -2.52,1.7 -5.49,3.03 -8.71,4.1 1.58,0.76 3.03,1.64 4.42,2.78 1.39,1.07 2.71,2.4 3.91,3.97 1.2,1.58 2.4,3.28 3.47,5.3 1.07,1.96 2.15,4.23 3.15,6.75l8.9 20.82c0.82,2.08 1.39,3.53 1.64,4.54 0.25,0.95 0.44,1.7 0.44,2.27l0.19 -0.07zm-27.64 -71.48c0,-3.47 -0.76,-6.44 -2.33,-8.77 -1.58,-2.4 -4.16,-4.1 -7.76,-5.05 -1.07,-0.25 -2.33,-0.44 -3.72,-0.63 -1.39,-0.19 -3.28,-0.25 -5.74,-0.25l-9.59 0 0 29.84 10.91 0c3.03,0 5.68,-0.38 7.95,-1.14 2.33,-0.69 4.16,-1.77 5.74,-3.09 1.51,-1.32 2.65,-2.9 3.41,-4.73 0.76,-1.83 1.14,-3.91 1.14,-6.18l0 0zm-69.46 65.87c0,1.58 -0.06,2.9 -0.19,3.97 -0.13,1.07 -0.32,1.89 -0.63,2.52 -0.25,0.69 -0.63,1.14 -1.01,1.45 -0.38,0.32 -0.88,0.44 -1.32,0.44l-52.81 0c-1.77,0 -3.28,-0.5 -4.48,-1.58 -1.2,-1.07 -1.83,-2.78 -1.83,-5.17l0 -91.8c0,-2.4 0.63,-4.1 1.83,-5.17 1.2,-1.07 2.71,-1.58 4.48,-1.58l52.56 0c0.44,0 0.95,0.13 1.32,0.44 0.38,0.25 0.69,0.76 0.95,1.39 0.25,0.69 0.44,1.58 0.63,2.59 0.13,1.07 0.19,2.4 0.19,4.04 0,1.51 -0.06,2.78 -0.19,3.91 -0.13,1.07 -0.32,1.89 -0.63,2.52 -0.25,0.69 -0.63,1.14 -0.95,1.45 -0.38,0.32 -0.82,0.44 -1.32,0.44l-37.6 0 0 25.68 31.67 0c0.5,0 0.95,0.13 1.32,0.44 0.44,0.32 0.76,0.76 1.01,1.39 0.25,0.63 0.44,1.45 0.63,2.52 0.13,1.07 0.19,2.33 0.19,3.85 0,1.58 -0.06,2.9 -0.19,3.91 -0.13,1.01 -0.32,1.83 -0.63,2.46 -0.25,0.63 -0.63,1.07 -1.01,1.32 -0.38,0.25 -0.82,0.44 -1.32,0.44l-31.67 0 0 29.65 37.79 0c0.5,0 0.95,0.13 1.32,0.44 0.44,0.32 0.76,0.76 1.01,1.45 0.25,0.63 0.44,1.51 0.63,2.52 0.13,1.07 0.19,2.4 0.19,3.97l0.06 0.06z"/>
   <g>
    <path class="fil0" d="M97.35 203.09l39.62 0.19 -0.25 -8.9 -37.48 -0.32 -0.13 -104.04 97.6 0.32 0.06 39.18 9.27 0.06c-1.26,-51.61 6.25,-48.83 -24.29,-48.83 -24.54,0 -49.08,0 -73.63,0 -17.41,0 -18.23,1.01 -18.23,18.55l0 73.63c0,9.78 -3.28,29.28 7.44,30.22l-0 -0.07z"/>
    <path class="fil0" d="M201.33 180.13l7.13 13.31c-2.65,-0.38 -4.04,-1.32 -6.44,-0.82l-2.33 5.3 -6.5 -12.05 8.14 -5.68 0 -0.06zm-37.67 -0.06c2.52,1.7 3.66,2.78 7.19,4.67l-5.87 10.22c-0.88,-1.2 -1.45,-3.03 -2.27,-4.48l-5.17 0.82 6.12 -11.17 0 -0.06zm14.58 -35.02c10.03,-2.71 18.74,3.91 20.76,11.86 2.65,10.41 -3.97,18.55 -11.67,20.88 -21.33,6.44 -31.92,-26.63 -9.08,-32.74zm27.95 54.39c2.33,0.38 12.11,3.09 13.63,2.52 4.23,-1.51 -4.86,-14.01 -8.39,-21.26 -1.64,-3.34 -4.98,-6.56 -3.85,-10.35 2.97,-9.9 1.64,-18.42 -4.04,-25.05 -4.35,-5.11 -10.66,-10.6 -21.14,-10.47 -10.28,0.06 -17.73,5.55 -21.39,10.85 -6.06,8.77 -6.06,13.94 -3.47,25.05 0.76,3.15 -7.95,17.23 -10.03,20.82 -9.15,15.65 0,9.21 11.29,7.7 0.88,3.91 3.09,9.97 4.73,13.06 3.97,0.13 3.91,-1.32 5.61,-4.79l10.66 -19.43 5.49 -0.06c0.63,2.71 10.98,21.52 12.81,24.54l3.34 -0.13 4.73 -12.94 0 -0.07z"/>
    <polygon class="fil0" points="112.68,112.68 178.55,112.68 178.55,103.41 113,103.47 "/>
    <polygon class="fil0" points="112.68,135.46 165.68,135.46 165.74,132.81 165.81,128.96 165.81,126.18 163.09,126.18 113.37,126.18 "/>
    <polygon class="fil0" points="113.37,180.89 149.53,180.89 148.33,180.89 148.33,171.55 146.94,171.55 112.68,171.55 "/>
    <polygon class="fil0" points="112.74,158.05 148.26,158.05 148.33,148.96 112.74,148.96 "/>
    <path class="fil0" d="M148.33 148.96l-0.06 9.08 -35.58 0c1.77,1.01 30.35,1.07 34.2,0.5 2.59,-0.38 0.32,0.06 1.39,-0.5 0.76,-1.83 0.76,-7.19 0.06,-9.08 -0.13,-0.06 -0.32,-0.19 -0.44,-0.19l-1.58 -0.38c-3.85,-0.38 -31.99,-0.32 -33.63,0.57l35.58 0 0.06 0z"/>
    <path class="fil0" d="M97.35 203.09c1.39,1.2 36.47,1.32 40.19,0.44 0.13,-1.64 0.13,-3.15 0.13,-4.79 0,-2.15 0.57,-3.66 -0.88,-4.35l0.25 8.9 -39.62 -0.19 -0.06 0z"/>
   </g>
  </g>
 </g>
</svg>
