<?xml version="1.0" encoding="UTF-8"?>
<!DOCTYPE svg PUBLIC "-//W3C//DTD SVG 1.1//EN" "http://www.w3.org/Graphics/SVG/1.1/DTD/svg11.dtd">
<!-- Creator: CorelDRAW 2021 (64-Bit) -->
<svg xmlns="http://www.w3.org/2000/svg" xml:space="preserve" width="5.76093in" height="0.462087in" version="1.1" style="shape-rendering:geometricPrecision; text-rendering:geometricPrecision; image-rendering:optimizeQuality; fill-rule:evenodd; clip-rule:evenodd"
viewBox="0 0 10944.87 877.89"
 xmlns:xlink="http://www.w3.org/1999/xlink"
 xmlns:xodm="http://www.corel.com/coreldraw/odm/2003">
 <defs>
  <style type="text/css">
   <![CDATA[
    .fil0 {fill:#373435}
   ]]>
  </style>
 </defs>
 <g id="Layer_x0020_1">
  <metadata id="CorelCorpID_0Corel-Layer"/>
  <g id="_1602273617488">
   <g id="_2180988890464">
    <path class="fil0" d="M438.95 0c242.51,0 438.95,196.43 438.95,438.95 10.65,186.52 214.97,274.09 314.66,278.13l9671.91 0c44.24,0 80.41,36.16 80.41,80.41l0 0c0,44.24 -36.16,80.41 -80.41,80.41l-10425.52 0c-242.51,0 -438.95,-196.43 -438.95,-438.95 0,-242.51 196.43,-438.95 438.95,-438.95zm0 160.81c153.66,0 278.13,124.47 278.13,278.13 0,153.66 -124.47,278.13 -278.13,278.13 -153.66,0 -278.13,-124.47 -278.13,-278.13 0,-153.66 124.47,-278.13 278.13,-278.13z"/>
    <path class="fil0" d="M1324.73 577.55c0,4.04 0,7.35 -0.37,10.1 -0.19,2.75 -0.73,5.14 -1.1,7.16 -0.37,2.02 -1.1,3.67 -1.83,5.14 -0.73,1.29 -2.02,2.94 -3.85,4.77 -1.65,1.83 -5.14,4.04 -10.1,6.98 -4.96,2.75 -11.02,5.51 -18.18,8.08 -7.16,2.57 -15.42,4.77 -24.6,6.43 -9.18,1.65 -19.28,2.57 -29.93,2.57 -20.93,0 -39.84,-3.31 -56.73,-9.73 -16.89,-6.43 -31.21,-16.16 -43.14,-29.01 -11.93,-12.85 -20.93,-28.82 -27.17,-48.1 -6.25,-19.28 -9.36,-41.68 -9.36,-67.19 0,-26.07 3.49,-49.2 10.46,-69.4 6.98,-20.2 16.71,-37.08 29.01,-50.85 12.48,-13.77 27.35,-24.05 44.8,-31.21 17.44,-7.16 36.53,-10.65 57.65,-10.65 8.44,0 16.71,0.73 24.6,2.21 7.89,1.29 15.24,3.31 21.85,5.51 6.79,2.21 12.67,4.96 18.18,7.89 5.33,3.12 9.18,5.69 11.2,7.71 2.02,2.21 3.49,4.04 4.41,5.33 0.73,1.47 1.47,3.31 1.83,5.33 0.55,2.21 0.92,4.77 1.1,7.89 0.19,2.94 0.37,6.61 0.37,11.02 0,4.77 -0.19,8.81 -0.55,12.12 -0.37,3.31 -0.92,6.06 -1.65,8.08 -0.73,2.02 -1.83,3.49 -2.75,4.41 -1.1,0.92 -2.39,1.47 -3.85,1.47 -2.39,0 -5.33,-1.29 -9,-4.04 -3.67,-2.75 -8.26,-5.87 -14.14,-9.18 -5.69,-3.31 -12.67,-6.43 -20.56,-9.18 -7.89,-2.75 -17.44,-4.04 -28.45,-4.04 -12.12,0 -22.95,2.57 -32.49,7.35 -9.54,4.96 -17.62,12.12 -24.23,21.29 -6.79,9.36 -11.75,20.37 -15.24,33.6 -3.49,13.04 -5.14,27.72 -5.14,44.24 0,17.99 1.83,33.6 5.51,46.63 3.67,13.04 9,24.05 15.79,32.49 6.79,8.44 15.06,14.87 24.78,18.91 9.73,4.23 20.56,6.25 32.68,6.25 11.02,0 20.56,-1.29 28.64,-3.85 8.08,-2.57 14.87,-5.51 20.56,-8.63 5.87,-3.12 10.46,-6.06 14.14,-8.44 3.67,-2.57 6.61,-3.85 8.63,-3.85 1.47,0 2.75,0.37 3.67,0.92 0.92,0.73 1.83,1.83 2.39,3.85 0.55,1.83 1.1,4.59 1.29,7.89 0.37,3.49 0.55,8.08 0.55,13.77l0.36 0.01zm2436.71 -45.72c0,16.16 -2.94,30.29 -9,42.41 -6.06,12.12 -14.14,22.21 -24.41,30.29 -10.28,8.08 -22.21,14.14 -35.98,18.36 -13.77,4.04 -28.45,6.06 -44.06,6.06 -10.65,0 -20.37,-0.92 -29.56,-2.75 -9,-1.83 -17.08,-3.85 -24.05,-6.43 -6.98,-2.39 -12.85,-4.96 -17.44,-7.71 -4.77,-2.75 -8.08,-5.14 -10.1,-7.16 -2.02,-2.02 -3.49,-5.14 -4.41,-9 -0.92,-3.85 -1.29,-9.36 -1.29,-16.71 0,-4.96 0.19,-9 0.55,-12.3 0.37,-3.31 0.73,-6.06 1.47,-8.08 0.73,-2.02 1.65,-3.49 2.75,-4.41 1.29,-0.92 2.57,-1.29 4.23,-1.29 2.21,0 5.33,1.29 9.36,4.04 4.04,2.57 9.18,5.51 15.6,8.63 6.25,3.12 13.95,6.06 22.76,8.63 8.81,2.75 18.91,4.04 30.47,4.04 7.52,0 14.32,-0.92 20.37,-2.75 6.06,-1.83 11.2,-4.41 15.42,-7.71 4.23,-3.31 7.35,-7.35 9.54,-12.12 2.21,-4.77 3.31,-10.28 3.31,-16.16 0,-6.98 -1.83,-12.85 -5.69,-17.81 -3.85,-4.96 -8.81,-9.36 -14.87,-13.22 -6.06,-3.85 -13.04,-7.52 -20.74,-10.83 -7.71,-3.31 -15.6,-6.98 -23.87,-10.83 -8.26,-3.85 -16.16,-8.08 -23.87,-12.85 -7.71,-4.77 -14.69,-10.46 -20.74,-17.26 -6.06,-6.79 -11.02,-14.69 -14.87,-23.87 -3.85,-9.18 -5.69,-20.2 -5.69,-32.86 0,-14.69 2.75,-27.54 8.08,-38.74 5.33,-11.02 12.85,-20.2 22.03,-27.72 9.36,-7.35 20.2,-12.85 32.68,-16.52 12.48,-3.67 25.89,-5.33 39.84,-5.33 7.16,0 14.5,0.55 21.66,1.65 7.35,1.1 14.14,2.57 20.37,4.41 6.25,2.02 11.93,4.04 16.89,6.43 4.77,2.39 8.08,4.41 9.73,6.06 1.47,1.47 2.57,2.94 3.12,4.04 0.55,1.1 1.1,2.57 1.47,4.41 0.37,1.83 0.73,4.04 0.73,6.79 0.19,2.75 0.19,6.06 0.19,10.28 0,4.59 0,8.44 -0.37,11.56 -0.19,3.12 -0.73,5.69 -1.29,7.89 -0.55,2.02 -1.29,3.49 -2.39,4.41 -1.1,0.92 -2.39,1.47 -4.23,1.47 -1.65,0 -4.41,-1.1 -8.26,-3.31 -3.85,-2.21 -8.44,-4.59 -13.95,-7.35 -5.51,-2.57 -11.93,-4.96 -19.28,-6.98 -7.35,-2.21 -15.24,-3.31 -23.87,-3.31 -6.79,0 -12.67,0.73 -17.81,2.57 -4.96,1.65 -9.18,4.04 -12.67,6.79 -3.31,2.94 -6.06,6.43 -7.52,10.46 -1.65,4.04 -2.57,8.44 -2.57,13.04 0,6.79 1.83,12.67 5.51,17.62 3.67,4.96 8.81,9.36 14.87,13.4 6.25,3.85 13.4,7.35 21.29,10.83 7.89,3.31 15.97,6.98 24.23,10.83 8.26,3.85 16.34,8.08 24.23,12.85 7.89,4.77 14.87,10.65 21.12,17.26 6.06,6.79 11.2,14.5 14.87,23.68 3.85,9 5.69,19.64 5.69,31.95l0.39 0.19zm-232.23 67.56c0,4.59 -0.19,8.44 -0.55,11.56 -0.37,3.12 -0.92,5.51 -1.83,7.35 -0.73,2.02 -1.83,3.31 -2.94,4.23 -1.1,0.92 -2.57,1.29 -3.85,1.29l-153.66 0c-5.14,0 -9.54,-1.47 -13.04,-4.59 -3.49,-3.12 -5.33,-8.08 -5.33,-15.06l0 -267.12c0,-6.98 1.83,-11.93 5.33,-15.06 3.49,-3.12 7.89,-4.59 13.04,-4.59l152.92 0c1.29,0 2.75,0.37 3.85,1.29 1.1,0.73 2.02,2.21 2.75,4.04 0.73,2.02 1.29,4.59 1.83,7.52 0.37,3.12 0.55,6.98 0.55,11.75 0,4.41 -0.19,8.08 -0.55,11.38 -0.37,3.12 -0.92,5.51 -1.83,7.35 -0.73,2.02 -1.83,3.31 -2.75,4.23 -1.1,0.92 -2.39,1.29 -3.85,1.29l-109.41 0 0 74.72 92.16 0c1.47,0 2.75,0.37 3.85,1.29 1.29,0.92 2.21,2.21 2.94,4.04 0.73,1.83 1.29,4.23 1.83,7.35 0.37,3.12 0.55,6.79 0.55,11.2 0,4.59 -0.19,8.44 -0.55,11.38 -0.37,2.94 -0.92,5.33 -1.83,7.16 -0.73,1.83 -1.83,3.12 -2.94,3.85 -1.1,0.73 -2.39,1.29 -3.85,1.29l-92.16 0 0 86.29 109.97 0c1.47,0 2.75,0.37 3.85,1.29 1.29,0.92 2.21,2.21 2.94,4.23 0.73,1.83 1.29,4.41 1.83,7.35 0.37,3.12 0.55,6.98 0.55,11.56l0.19 0.17zm-217.73 -256.47c0,4.59 -0.19,8.44 -0.55,11.75 -0.37,3.31 -0.92,5.87 -1.83,7.71 -0.73,2.02 -1.83,3.49 -2.94,4.41 -1.1,0.92 -2.57,1.47 -3.85,1.47l-76.55 0 0 247.11c0,1.47 -0.55,2.94 -1.47,4.23 -1.1,1.29 -2.75,2.21 -5.14,3.12 -2.39,0.73 -5.51,1.29 -9.54,1.83 -4.04,0.55 -9,0.73 -15.06,0.73 -6.06,0 -11.02,-0.19 -15.06,-0.73 -4.04,-0.55 -7.35,-1.1 -9.54,-1.83 -2.39,-0.73 -4.04,-1.83 -5.14,-3.12 -1.1,-1.29 -1.47,-2.75 -1.47,-4.23l0 -247.11 -76.55 0c-1.47,0 -2.94,-0.55 -4.04,-1.47 -1.1,-0.92 -2.02,-2.39 -2.75,-4.41 -0.73,-2.02 -1.29,-4.59 -1.83,-7.71 -0.37,-3.31 -0.55,-7.16 -0.55,-11.75 0,-4.77 0.19,-8.81 0.55,-12.12 0.37,-3.31 1.1,-6.06 1.83,-7.89 0.73,-2.02 1.83,-3.31 2.75,-4.23 1.1,-0.92 2.57,-1.29 4.04,-1.29l215.71 0c1.29,0 2.75,0.37 3.85,1.29 1.29,0.92 2.21,2.21 2.94,4.23 0.73,2.02 1.29,4.59 1.83,7.89 0.37,3.31 0.55,7.35 0.55,12.12l-0.19 0zm-208.55 257.75c1.83,5.69 3.12,10.1 3.49,13.58 0.55,3.31 -0.19,5.87 -1.83,7.52 -1.83,1.65 -4.77,2.75 -9.36,3.12 -4.41,0.37 -10.46,0.55 -18.18,0.55 -8.08,0 -14.32,0 -18.91,-0.37 -4.59,-0.19 -7.89,-0.73 -10.28,-1.47 -2.39,-0.73 -4.04,-1.65 -4.96,-2.94 -0.92,-1.29 -1.83,-2.94 -2.39,-4.96l-20.2 -61.5 -115.47 0 -19.28 59.85c-0.73,2.21 -1.47,4.04 -2.57,5.51 -0.92,1.47 -2.75,2.75 -4.96,3.49 -2.21,0.92 -5.51,1.47 -9.73,1.83 -4.23,0.37 -9.73,0.55 -16.52,0.55 -7.35,0 -12.85,-0.19 -17.08,-0.73 -4.04,-0.55 -6.98,-1.65 -8.44,-3.31 -1.65,-1.83 -2.21,-4.41 -1.65,-7.71 0.55,-3.31 1.65,-7.71 3.49,-13.22l94.36 -271.89c0.92,-2.75 2.02,-4.77 3.31,-6.43 1.29,-1.65 3.31,-2.94 6.06,-3.85 2.75,-0.92 6.61,-1.47 11.56,-1.65 4.77,-0.19 11.38,-0.37 19.46,-0.37 9.36,0 16.71,0 22.21,0.37 5.51,0.19 9.91,0.73 12.85,1.65 3.12,0.92 5.33,2.21 6.61,3.85 1.29,1.83 2.57,4.04 3.31,7.16l94.73 271.7 0.37 -0.35zm-140.63 -224.88l-0.19 0 -42.59 130.34 85.92 0 -43.14 -130.34zm-155.13 201.76c0,4.04 0,7.35 -0.37,10.1 -0.19,2.75 -0.73,5.14 -1.1,7.16 -0.37,2.02 -1.1,3.67 -1.83,5.14 -0.73,1.29 -2.02,2.94 -3.85,4.77 -1.65,1.83 -5.14,4.04 -10.1,6.98 -4.96,2.75 -11.02,5.51 -18.18,8.08 -7.16,2.57 -15.42,4.77 -24.6,6.43 -9.18,1.65 -19.28,2.57 -29.93,2.57 -20.93,0 -39.84,-3.31 -56.73,-9.73 -16.89,-6.43 -31.21,-16.16 -43.14,-29.01 -11.93,-12.85 -20.93,-28.82 -27.17,-48.1 -6.25,-19.28 -9.36,-41.68 -9.36,-67.19 0,-26.07 3.49,-49.2 10.46,-69.4 6.98,-20.2 16.71,-37.08 29.01,-50.85 12.48,-13.77 27.35,-24.05 44.8,-31.21 17.44,-7.16 36.53,-10.65 57.65,-10.65 8.44,0 16.71,0.73 24.6,2.21 7.89,1.29 15.24,3.31 21.85,5.51 6.79,2.21 12.67,4.96 18.18,7.89 5.33,3.12 9.18,5.69 11.2,7.71 2.02,2.21 3.49,4.04 4.41,5.33 0.73,1.47 1.47,3.31 1.83,5.33 0.55,2.21 0.92,4.77 1.1,7.89 0.19,2.94 0.37,6.61 0.37,11.02 0,4.77 -0.19,8.81 -0.55,12.12 -0.37,3.31 -0.92,6.06 -1.65,8.08 -0.73,2.02 -1.83,3.49 -2.75,4.41 -1.1,0.92 -2.39,1.47 -3.85,1.47 -2.39,0 -5.33,-1.29 -9,-4.04 -3.67,-2.75 -8.26,-5.87 -14.14,-9.18 -5.69,-3.31 -12.67,-6.43 -20.56,-9.18 -7.89,-2.75 -17.44,-4.04 -28.45,-4.04 -12.12,0 -22.95,2.57 -32.49,7.35 -9.54,4.96 -17.62,12.12 -24.23,21.29 -6.79,9.36 -11.75,20.37 -15.24,33.6 -3.49,13.04 -5.14,27.72 -5.14,44.24 0,17.99 1.83,33.6 5.51,46.63 3.67,13.04 9,24.05 15.79,32.49 6.79,8.44 15.06,14.87 24.78,18.91 9.73,4.23 20.56,6.25 32.68,6.25 11.02,0 20.56,-1.29 28.64,-3.85 8.08,-2.57 14.87,-5.51 20.56,-8.63 5.87,-3.12 10.46,-6.06 14.14,-8.44 3.67,-2.57 6.61,-3.85 8.63,-3.85 1.47,0 2.75,0.37 3.67,0.92 0.92,0.73 1.83,1.83 2.39,3.85 0.55,1.83 1.1,4.59 1.29,7.89 0.37,3.49 0.55,8.08 0.55,13.77l0.36 0.01zm-278.68 37.82c0,1.47 -0.55,2.94 -1.47,4.23 -1.1,1.29 -2.75,2.21 -5.14,3.12 -2.39,0.73 -5.51,1.29 -9.36,1.83 -4.04,0.55 -9,0.73 -15.24,0.73 -6.06,0 -11.02,-0.19 -15.06,-0.73 -4.04,-0.55 -7.35,-1.1 -9.54,-1.83 -2.39,-0.73 -4.04,-1.83 -5.14,-3.12 -1.1,-1.29 -1.47,-2.75 -1.47,-4.23l0 -289.51c0,-1.47 0.55,-2.94 1.47,-4.23 1.1,-1.29 2.75,-2.21 5.33,-3.12 2.39,-0.73 5.51,-1.29 9.54,-1.83 4.04,-0.55 9,-0.73 14.87,-0.73 6.06,0 11.2,0.19 15.24,0.73 3.85,0.55 7.16,1.1 9.36,1.83 2.39,0.73 4.04,1.83 5.14,3.12 1.1,1.29 1.47,2.75 1.47,4.23l0 289.51zm-112.91 -272.44c0,4.77 -0.19,8.81 -0.55,11.93 -0.37,3.31 -1.1,5.87 -2.02,7.71 -0.92,1.83 -1.83,3.31 -2.94,4.23 -1.1,0.92 -2.39,1.47 -3.85,1.47l-100.42 0 0 82.43 94.18 0c1.47,0 2.75,0.37 3.85,1.29 1.1,0.73 2.02,2.02 2.94,4.04 0.92,2.02 1.47,4.41 1.83,7.52 0.37,3.12 0.73,7.16 0.73,11.93 0,4.77 -0.19,8.63 -0.73,11.75 -0.37,3.12 -0.92,5.69 -1.83,7.89 -0.92,2.02 -1.83,3.49 -2.94,4.41 -1.1,0.92 -2.39,1.29 -3.85,1.29l-94.18 0 0 114.19c0,1.65 -0.55,3.31 -1.47,4.59 -0.92,1.29 -2.57,2.21 -5.14,3.12 -2.39,0.92 -5.69,1.47 -9.54,2.02 -4.04,0.55 -9,0.73 -15.24,0.73 -6.06,0 -11.02,-0.19 -15.06,-0.73 -4.04,-0.55 -7.35,-1.1 -9.54,-2.02 -2.39,-0.73 -4.04,-2.02 -5.14,-3.12 -1.1,-1.29 -1.47,-2.75 -1.47,-4.59l0 -277.76c0,-6.98 1.83,-11.93 5.33,-15.06 3.49,-3.12 7.89,-4.59 13.22,-4.59l144.48 0c1.29,0 2.75,0.37 3.85,1.29 1.1,0.92 2.02,2.21 2.94,4.23 0.92,2.02 1.47,4.59 2.02,7.89 0.37,3.31 0.55,7.35 0.55,12.12l-0.01 -0.18zm-238.84 272.44c0,1.47 -0.55,2.94 -1.47,4.23 -1.1,1.29 -2.75,2.21 -5.14,3.12 -2.39,0.73 -5.51,1.29 -9.36,1.83 -4.04,0.55 -9,0.73 -15.24,0.73 -6.06,0 -11.02,-0.19 -15.06,-0.73 -4.04,-0.55 -7.35,-1.1 -9.54,-1.83 -2.39,-0.73 -4.04,-1.83 -5.14,-3.12 -1.1,-1.29 -1.47,-2.75 -1.47,-4.23l0 -289.51c0,-1.47 0.55,-2.94 1.47,-4.23 1.1,-1.29 2.75,-2.21 5.33,-3.12 2.39,-0.73 5.51,-1.29 9.54,-1.83 4.04,-0.55 9,-0.73 14.87,-0.73 6.06,0 11.2,0.19 15.24,0.73 3.85,0.55 7.16,1.1 9.36,1.83 2.39,0.73 4.04,1.83 5.14,3.12 1.1,1.29 1.47,2.75 1.47,4.23l0 289.51zm-98.95 -272.44c0,4.59 -0.19,8.44 -0.55,11.75 -0.37,3.31 -0.92,5.87 -1.83,7.71 -0.73,2.02 -1.83,3.49 -2.94,4.41 -1.1,0.92 -2.57,1.47 -3.85,1.47l-76.55 0 0 247.11c0,1.47 -0.55,2.94 -1.47,4.23 -1.1,1.29 -2.75,2.21 -5.14,3.12 -2.39,0.73 -5.51,1.29 -9.54,1.83 -4.04,0.55 -9,0.73 -15.06,0.73 -6.06,0 -11.02,-0.19 -15.06,-0.73 -4.04,-0.55 -7.35,-1.1 -9.54,-1.83 -2.39,-0.73 -4.04,-1.83 -5.14,-3.12 -1.1,-1.29 -1.47,-2.75 -1.47,-4.23l0 -247.11 -76.55 0c-1.47,0 -2.94,-0.55 -4.04,-1.47 -1.1,-0.92 -2.02,-2.39 -2.75,-4.41 -0.73,-2.02 -1.29,-4.59 -1.83,-7.71 -0.37,-3.31 -0.55,-7.16 -0.55,-11.75 0,-4.77 0.19,-8.81 0.55,-12.12 0.37,-3.31 1.1,-6.06 1.83,-7.89 0.73,-2.02 1.83,-3.31 2.75,-4.23 1.1,-0.92 2.57,-1.29 4.04,-1.29l215.71 0c1.29,0 2.75,0.37 3.85,1.29 1.29,0.92 2.21,2.21 2.94,4.23 0.73,2.02 1.29,4.59 1.83,7.89 0.37,3.31 0.55,7.35 0.55,12.12l-0.19 0zm-244.35 272.81c0,1.65 -0.37,3.12 -0.92,4.41 -0.73,1.29 -2.02,2.21 -4.41,2.94 -2.39,0.73 -5.87,1.29 -10.46,1.65 -4.59,0.37 -10.83,0.55 -18.73,0.55 -6.61,0 -11.93,-0.19 -15.79,-0.55 -4.04,-0.37 -7.16,-0.92 -9.36,-1.83 -2.21,-0.92 -3.85,-2.02 -4.77,-3.31 -0.92,-1.29 -1.65,-2.94 -2.39,-4.77l-27.72 -68.66c-3.31,-7.71 -6.61,-14.69 -9.73,-20.74 -3.12,-6.06 -6.79,-11.02 -10.65,-15.06 -3.85,-4.04 -8.44,-6.98 -13.58,-9.18 -4.96,-2.02 -10.83,-3.12 -17.62,-3.12l-19.46 0 0 117.12c0,1.47 -0.55,2.94 -1.47,4.23 -1.1,1.29 -2.75,2.39 -5.14,3.12 -2.39,0.73 -5.51,1.29 -9.36,1.83 -3.85,0.55 -9,0.73 -15.06,0.73 -6.06,0 -11.02,-0.19 -15.06,-0.73 -4.04,-0.55 -7.16,-1.1 -9.54,-1.83 -2.39,-0.73 -4.04,-1.83 -4.96,-3.12 -0.92,-1.29 -1.47,-2.75 -1.47,-4.23l0 -278.31c0,-6.98 1.83,-11.93 5.33,-15.06 3.49,-3.12 7.89,-4.59 13.04,-4.59l79.31 0c8.08,0 14.69,0.19 19.83,0.55 5.14,0.37 9.91,0.73 14.14,1.1 12.3,1.83 23.31,4.77 33.23,9 9.91,4.23 18.18,9.73 25.15,16.71 6.79,6.79 12.12,14.87 15.79,24.23 3.67,9.36 5.33,20.2 5.33,32.31 0,10.1 -1.29,19.64 -3.85,27.91 -2.75,8.44 -6.43,15.97 -11.56,22.58 -4.96,6.61 -11.2,12.3 -18.73,17.26 -7.35,4.96 -15.97,8.81 -25.33,11.93 4.59,2.21 8.81,4.77 12.85,8.08 4.04,3.12 7.89,6.98 11.38,11.56 3.49,4.59 6.98,9.54 10.1,15.42 3.12,5.69 6.25,12.3 9.18,19.64l25.89 60.59c2.39,6.06 4.04,10.28 4.77,13.22 0.73,2.75 1.29,4.96 1.29,6.61l0.54 -0.19zm-80.41 -208c0,-10.1 -2.21,-18.73 -6.79,-25.52 -4.59,-6.98 -12.12,-11.93 -22.58,-14.69 -3.12,-0.73 -6.79,-1.29 -10.83,-1.83 -4.04,-0.55 -9.54,-0.73 -16.71,-0.73l-27.91 0 0 86.83 31.76 0c8.81,0 16.52,-1.1 23.13,-3.31 6.79,-2.02 12.12,-5.14 16.71,-9 4.41,-3.85 7.71,-8.44 9.91,-13.77 2.21,-5.33 3.31,-11.38 3.31,-17.99l0 0.01zm-202.12 191.67c0,4.59 -0.19,8.44 -0.55,11.56 -0.37,3.12 -0.92,5.51 -1.83,7.35 -0.73,2.02 -1.83,3.31 -2.94,4.23 -1.1,0.92 -2.57,1.29 -3.85,1.29l-153.66 0c-5.14,0 -9.54,-1.47 -13.04,-4.59 -3.49,-3.12 -5.33,-8.08 -5.33,-15.06l0 -267.12c0,-6.98 1.83,-11.93 5.33,-15.06 3.49,-3.12 7.89,-4.59 13.04,-4.59l152.92 0c1.29,0 2.75,0.37 3.85,1.29 1.1,0.73 2.02,2.21 2.75,4.04 0.73,2.02 1.29,4.59 1.83,7.52 0.37,3.12 0.55,6.98 0.55,11.75 0,4.41 -0.19,8.08 -0.55,11.38 -0.37,3.12 -0.92,5.51 -1.83,7.35 -0.73,2.02 -1.83,3.31 -2.75,4.23 -1.1,0.92 -2.39,1.29 -3.85,1.29l-109.41 0 0 74.72 92.16 0c1.47,0 2.75,0.37 3.85,1.29 1.29,0.92 2.21,2.21 2.94,4.04 0.73,1.83 1.29,4.23 1.83,7.35 0.37,3.12 0.55,6.79 0.55,11.2 0,4.59 -0.19,8.44 -0.55,11.38 -0.37,2.94 -0.92,5.33 -1.83,7.16 -0.73,1.83 -1.83,3.12 -2.94,3.85 -1.1,0.73 -2.39,1.29 -3.85,1.29l-92.16 0 0 86.29 109.97 0c1.47,0 2.75,0.37 3.85,1.29 1.29,0.92 2.21,2.21 2.94,4.23 0.73,1.83 1.29,4.41 1.83,7.35 0.37,3.12 0.55,6.98 0.55,11.56l0.19 0.17z"/>
    <g>
     <path class="fil0" d="M283.26 590.96l115.29 0.55 -0.73 -25.89 -109.05 -0.92 -0.37 -302.73 284 0.92 0.19 114.01 26.99 0.19c-3.67,-150.17 18.18,-142.09 -70.68,-142.09 -71.42,0 -142.82,0 -214.24,0 -50.67,0 -53.05,2.94 -53.05,53.97l0 214.24c0,28.45 -9.54,85.19 21.66,87.94l-0.01 -0.19z"/>
     <path class="fil0" d="M585.81 524.13l20.74 38.74c-7.71,-1.1 -11.75,-3.85 -18.73,-2.39l-6.79 15.42 -18.91 -35.06 23.68 -16.52 0.01 -0.19zm-109.6 -0.19c7.35,4.96 10.65,8.08 20.93,13.58l-17.08 29.74c-2.57,-3.49 -4.23,-8.81 -6.61,-13.04l-15.06 2.39 17.81 -32.49 0.01 -0.18zm42.41 -101.89c29.19,-7.89 54.53,11.38 60.4,34.51 7.71,30.29 -11.56,53.97 -33.97,60.77 -62.05,18.73 -92.89,-77.47 -26.43,-95.28zm81.33 158.25c6.79,1.1 35.24,9 39.66,7.35 12.3,-4.41 -14.14,-40.76 -24.41,-61.86 -4.77,-9.73 -14.5,-19.1 -11.2,-30.11 8.63,-28.82 4.77,-53.61 -11.75,-72.88 -12.67,-14.87 -31.03,-30.84 -61.5,-30.47 -29.93,0.19 -51.59,16.16 -62.23,31.58 -17.62,25.52 -17.62,40.57 -10.1,72.88 2.21,9.18 -23.13,50.12 -29.19,60.59 -26.62,45.53 0,26.8 32.86,22.39 2.57,11.38 9,29.01 13.77,38 11.56,0.37 11.38,-3.85 16.34,-13.95l31.03 -56.55 15.97 -0.19c1.83,7.89 31.95,62.61 37.26,71.42l9.73 -0.37 13.77 -37.64 0 -0.19z"/>
     <polygon class="fil0" points="327.87,327.88 519.53,327.88 519.53,300.89 328.79,301.07 "/>
     <polygon class="fil0" points="327.87,394.15 482.08,394.15 482.27,386.44 482.46,375.24 482.46,367.16 474.56,367.16 329.89,367.16 "/>
     <polygon class="fil0" points="329.89,526.33 435.09,526.33 431.6,526.33 431.6,499.17 427.56,499.17 327.87,499.17 "/>
     <polygon class="fil0" points="328.06,459.87 431.41,459.87 431.6,433.44 328.06,433.44 "/>
     <path class="fil0" d="M431.6 433.44l-0.19 26.43 -103.54 0c5.14,2.94 88.31,3.12 99.5,1.47 7.52,-1.1 0.92,0.19 4.04,-1.47 2.21,-5.33 2.21,-20.93 0.19,-26.43 -0.37,-0.19 -0.92,-0.55 -1.29,-0.55l-4.59 -1.1c-11.2,-1.1 -93.08,-0.92 -97.85,1.65l103.54 0 0.19 0z"/>
     <path class="fil0" d="M283.26 590.96c4.04,3.49 106.11,3.85 116.95,1.29 0.37,-4.77 0.37,-9.18 0.37,-13.95 0,-6.25 1.65,-10.65 -2.57,-12.67l0.73 25.89 -115.29 -0.55 -0.18 0z"/>
    </g>
   </g>
  </g>
 </g>
</svg>
