<?xml version="1.0" encoding="UTF-8"?>
<!DOCTYPE svg PUBLIC "-//W3C//DTD SVG 1.1//EN" "http://www.w3.org/Graphics/SVG/1.1/DTD/svg11.dtd">
<!-- Creator: CorelDRAW 2021 (64-Bit) -->
<svg xmlns="http://www.w3.org/2000/svg" xml:space="preserve" width="1.6492in" height="0.462102in" version="1.1" style="shape-rendering:geometricPrecision; text-rendering:geometricPrecision; image-rendering:optimizeQuality; fill-rule:evenodd; clip-rule:evenodd"
viewBox="0 0 378.41 106.03"
 xmlns:xlink="http://www.w3.org/1999/xlink"
 xmlns:xodm="http://www.corel.com/coreldraw/odm/2003">
 <defs>
  <style type="text/css">
   <![CDATA[
    .fil1 {fill:#373435}
    .fil0 {fill:#4C4C4D}
   ]]>
  </style>
 </defs>
 <g id="Layer_x0020_1">
  <metadata id="CorelCorpID_0Corel-Layer"/>
  <path class="fil0" d="M53.05 0c29.27,0 53.01,23.75 53.01,53.01 -2.11,28.66 -17.14,46.33 -45.1,53.01l0.01 0 -7.95 0c-29.27,0 -53.01,-23.75 -53.01,-53.01 0,-29.27 23.75,-53.01 53.01,-53.01l0.03 0zm0 19.4c18.56,0 33.61,15.06 33.61,33.61 0,18.56 -15.06,33.61 -33.61,33.61 -18.56,0 -33.61,-15.06 -33.61,-33.61 0,-18.56 15.06,-33.61 33.61,-33.61z"/>
  <path class="fil0" d="M153.28 72.85c0,0.47 -0.03,0.88 -0.07,1.21 -0.03,0.34 -0.1,0.57 -0.2,0.78 -0.1,0.2 -0.2,0.34 -0.3,0.44 -0.13,0.1 -0.27,0.13 -0.4,0.13l-16.17 0c-0.54,0 -1.01,-0.17 -1.38,-0.47 -0.37,-0.34 -0.57,-0.84 -0.57,-1.58l0 -28.09c0,-0.74 0.2,-1.25 0.57,-1.58 0.37,-0.34 0.84,-0.47 1.38,-0.47l16.1 0c0.13,0 0.27,0.03 0.4,0.13 0.1,0.1 0.2,0.24 0.3,0.44 0.07,0.2 0.13,0.47 0.2,0.81 0.03,0.34 0.07,0.74 0.07,1.25 0,0.47 -0.03,0.84 -0.07,1.18 -0.03,0.34 -0.1,0.57 -0.2,0.78 -0.1,0.2 -0.2,0.34 -0.3,0.44 -0.13,0.1 -0.27,0.13 -0.4,0.13l-11.49 0 0 7.85 9.7 0c0.17,0 0.3,0.03 0.4,0.13 0.13,0.1 0.24,0.24 0.3,0.44 0.1,0.2 0.13,0.44 0.2,0.78 0.03,0.34 0.07,0.71 0.07,1.18 0,0.47 -0.03,0.88 -0.07,1.21 -0.03,0.3 -0.1,0.57 -0.2,0.74 -0.1,0.2 -0.2,0.34 -0.3,0.4 -0.13,0.1 -0.27,0.13 -0.4,0.13l-9.7 0 0 9.06 11.59 0c0.17,0 0.3,0.03 0.4,0.13 0.13,0.1 0.24,0.24 0.3,0.44 0.1,0.2 0.13,0.47 0.2,0.78 0.03,0.34 0.07,0.74 0.07,1.21l-0.03 -0zm225.02 0.27c0,0.37 -0.07,0.71 -0.2,1.04 -0.13,0.3 -0.3,0.54 -0.54,0.74 -0.24,0.2 -0.47,0.34 -0.78,0.44 -0.3,0.1 -0.61,0.13 -0.94,0.13l-2.8 0c-0.57,0 -1.08,-0.07 -1.52,-0.17 -0.4,-0.13 -0.81,-0.34 -1.18,-0.64 -0.37,-0.3 -0.71,-0.71 -1.04,-1.25 -0.34,-0.5 -0.71,-1.21 -1.11,-2.02l-7.98 -15.06c-0.47,-0.91 -0.94,-1.85 -1.41,-2.9 -0.47,-1.04 -0.91,-2.05 -1.28,-3.03l-0.07 0c0.07,1.21 0.13,2.39 0.17,3.57 0.03,1.18 0.07,2.43 0.07,3.67l0 16.87c0,0.17 -0.03,0.3 -0.13,0.44 -0.1,0.13 -0.27,0.24 -0.47,0.34 -0.24,0.1 -0.54,0.17 -0.91,0.2 -0.37,0.07 -0.88,0.07 -1.48,0.07 -0.57,0 -1.08,-0.03 -1.45,-0.07 -0.37,-0.07 -0.67,-0.13 -0.88,-0.2 -0.24,-0.1 -0.37,-0.2 -0.44,-0.34 -0.1,-0.13 -0.13,-0.3 -0.13,-0.44l0 -28.97c0,-0.78 0.24,-1.38 0.67,-1.75 0.44,-0.4 1.01,-0.57 1.68,-0.57l3.5 0c0.64,0 1.18,0.07 1.58,0.17 0.44,0.1 0.81,0.3 1.15,0.54 0.34,0.24 0.67,0.61 0.98,1.04 0.3,0.44 0.61,0.98 0.91,1.62l6.26 11.79c0.37,0.71 0.71,1.41 1.08,2.12 0.37,0.67 0.71,1.38 1.04,2.05 0.34,0.67 0.64,1.38 0.98,2.02 0.34,0.67 0.64,1.35 0.94,1.99l0.03 0c-0.07,-1.18 -0.1,-2.39 -0.13,-3.64 -0.03,-1.28 -0.03,-2.46 -0.03,-3.6l0 -15.12c0,-0.17 0.07,-0.3 0.17,-0.44 0.1,-0.13 0.27,-0.24 0.5,-0.34 0.24,-0.1 0.54,-0.17 0.94,-0.2 0.37,-0.03 0.88,-0.07 1.48,-0.07 0.57,0 1.04,0 1.41,0.07 0.37,0.03 0.67,0.1 0.88,0.2 0.2,0.1 0.37,0.24 0.44,0.34 0.1,0.13 0.13,0.27 0.13,0.44l0 28.97 -0.1 -0.07zm-32.1 -14.18c0,2.66 -0.34,5.05 -1.01,7.17 -0.67,2.12 -1.65,3.91 -2.96,5.35 -1.31,1.48 -2.93,2.59 -4.85,3.37 -1.95,0.78 -4.18,1.15 -6.7,1.15 -2.49,0 -4.68,-0.34 -6.57,-0.98 -1.85,-0.64 -3.44,-1.65 -4.68,-3 -1.25,-1.35 -2.19,-3.07 -2.8,-5.12 -0.61,-2.09 -0.94,-4.51 -0.94,-7.38 0,-2.59 0.34,-4.95 1.01,-7.04 0.67,-2.09 1.65,-3.84 2.96,-5.32 1.31,-1.45 2.93,-2.59 4.85,-3.37 1.95,-0.78 4.18,-1.18 6.74,-1.18 2.43,0 4.58,0.34 6.47,0.98 1.85,0.64 3.44,1.65 4.68,3 1.25,1.35 2.19,3.03 2.83,5.09 0.64,2.05 0.98,4.48 0.98,7.24l0 0.03zm-6.87 0.34c0,-1.68 -0.13,-3.23 -0.4,-4.61 -0.27,-1.38 -0.71,-2.56 -1.35,-3.57 -0.64,-0.98 -1.48,-1.75 -2.56,-2.29 -1.08,-0.54 -2.39,-0.81 -3.97,-0.81 -1.62,0 -2.96,0.3 -4.01,0.91 -1.08,0.61 -1.95,1.41 -2.63,2.43 -0.67,1.01 -1.15,2.19 -1.41,3.54 -0.27,1.35 -0.4,2.8 -0.4,4.31 0,1.75 0.13,3.33 0.4,4.75 0.27,1.41 0.71,2.59 1.35,3.6 0.64,1.01 1.48,1.75 2.53,2.29 1.08,0.5 2.39,0.78 4.01,0.78 1.62,0 2.96,-0.3 4.01,-0.91 1.08,-0.61 1.95,-1.41 2.63,-2.43 0.67,-1.04 1.15,-2.22 1.41,-3.6 0.27,-1.38 0.4,-2.83 0.4,-4.38l0 -0zm-29.1 15.26c0,0.17 -0.07,0.3 -0.17,0.44 -0.1,0.13 -0.3,0.24 -0.54,0.34 -0.24,0.07 -0.57,0.13 -1.01,0.2 -0.4,0.07 -0.94,0.07 -1.58,0.07 -0.64,0 -1.15,-0.03 -1.58,-0.07 -0.44,-0.07 -0.78,-0.13 -1.01,-0.2 -0.24,-0.1 -0.44,-0.2 -0.54,-0.34 -0.1,-0.13 -0.17,-0.3 -0.17,-0.44l0 -30.45c0,-0.17 0.07,-0.3 0.17,-0.44 0.1,-0.13 0.3,-0.24 0.54,-0.34 0.27,-0.1 0.57,-0.13 1.01,-0.2 0.4,-0.07 0.94,-0.07 1.58,-0.07 0.64,0 1.18,0.03 1.58,0.07 0.4,0.07 0.74,0.1 1.01,0.2 0.24,0.1 0.44,0.2 0.54,0.34 0.1,0.13 0.17,0.3 0.17,0.44l0 30.45zm-10.41 -28.66c0,0.47 -0.03,0.88 -0.07,1.25 -0.03,0.34 -0.1,0.61 -0.2,0.81 -0.1,0.2 -0.2,0.37 -0.3,0.47 -0.13,0.1 -0.27,0.17 -0.4,0.17l-8.05 0 0 25.97c0,0.17 -0.07,0.3 -0.17,0.44 -0.1,0.13 -0.3,0.24 -0.54,0.34 -0.24,0.07 -0.57,0.13 -1.01,0.2 -0.44,0.07 -0.94,0.07 -1.58,0.07 -0.64,0 -1.15,-0.03 -1.58,-0.07 -0.44,-0.07 -0.78,-0.13 -1.01,-0.2 -0.24,-0.1 -0.44,-0.2 -0.54,-0.34 -0.1,-0.13 -0.17,-0.3 -0.17,-0.44l0 -25.97 -8.05 0c-0.17,0 -0.3,-0.07 -0.44,-0.17 -0.1,-0.1 -0.2,-0.24 -0.3,-0.47 -0.07,-0.2 -0.13,-0.47 -0.2,-0.81 -0.03,-0.34 -0.07,-0.74 -0.07,-1.25 0,-0.5 0,-0.91 0.07,-1.28 0.03,-0.34 0.1,-0.64 0.2,-0.84 0.1,-0.2 0.2,-0.37 0.3,-0.44 0.13,-0.1 0.27,-0.13 0.44,-0.13l22.7 0c0.13,0 0.27,0.03 0.4,0.13 0.13,0.1 0.24,0.24 0.3,0.44 0.1,0.2 0.13,0.47 0.2,0.84 0.03,0.34 0.07,0.78 0.07,1.28zm-21.93 27.11c0.2,0.61 0.34,1.08 0.37,1.41 0.07,0.34 0,0.61 -0.2,0.78 -0.2,0.17 -0.5,0.27 -0.98,0.34 -0.47,0.03 -1.11,0.07 -1.92,0.07 -0.84,0 -1.52,0 -1.99,-0.03 -0.47,-0.03 -0.84,-0.07 -1.08,-0.17 -0.24,-0.07 -0.4,-0.17 -0.5,-0.3 -0.1,-0.13 -0.2,-0.3 -0.24,-0.5l-2.12 -6.47 -12.16 0 -2.02 6.3c-0.07,0.24 -0.17,0.44 -0.27,0.57 -0.1,0.17 -0.27,0.27 -0.5,0.37 -0.24,0.1 -0.57,0.17 -1.01,0.2 -0.44,0.03 -1.01,0.07 -1.72,0.07 -0.78,0 -1.35,-0.03 -1.78,-0.07 -0.44,-0.07 -0.74,-0.17 -0.88,-0.37 -0.17,-0.2 -0.24,-0.47 -0.17,-0.81 0.07,-0.34 0.17,-0.81 0.37,-1.38l9.94 -28.6c0.1,-0.27 0.2,-0.5 0.34,-0.67 0.13,-0.17 0.34,-0.3 0.64,-0.4 0.3,-0.1 0.71,-0.17 1.21,-0.17 0.5,-0.03 1.18,-0.03 2.05,-0.03 0.98,0 1.75,0 2.32,0.03 0.57,0.03 1.04,0.1 1.35,0.17 0.34,0.1 0.54,0.24 0.71,0.4 0.13,0.2 0.27,0.44 0.37,0.74l9.97 28.56 -0.1 -0.03zm-14.78 -23.64l-0.03 0 -4.48 13.71 9.03 0 -4.51 -13.71zm-16.3 21.22c0,0.4 0,0.78 -0.03,1.08 -0.03,0.3 -0.07,0.54 -0.13,0.74 -0.03,0.2 -0.1,0.4 -0.2,0.54 -0.1,0.13 -0.2,0.3 -0.4,0.5 -0.17,0.2 -0.54,0.44 -1.04,0.74 -0.54,0.3 -1.18,0.57 -1.92,0.84 -0.74,0.27 -1.62,0.5 -2.59,0.67 -0.98,0.17 -2.02,0.27 -3.17,0.27 -2.19,0 -4.18,-0.34 -5.96,-1.01 -1.78,-0.67 -3.3,-1.68 -4.51,-3.07 -1.25,-1.35 -2.19,-3.03 -2.86,-5.05 -0.67,-2.02 -1.01,-4.38 -1.01,-7.07 0,-2.73 0.37,-5.15 1.11,-7.28 0.74,-2.12 1.75,-3.91 3.07,-5.35 1.31,-1.45 2.9,-2.53 4.72,-3.27 1.82,-0.74 3.84,-1.11 6.06,-1.11 0.88,0 1.75,0.07 2.59,0.24 0.84,0.13 1.58,0.34 2.29,0.57 0.71,0.24 1.35,0.5 1.92,0.84 0.57,0.34 0.98,0.61 1.18,0.81 0.24,0.24 0.37,0.4 0.47,0.57 0.1,0.17 0.17,0.34 0.2,0.57 0.07,0.24 0.1,0.5 0.13,0.81 0.03,0.3 0.03,0.71 0.03,1.18 0,0.5 -0.03,0.91 -0.07,1.28 -0.03,0.34 -0.1,0.64 -0.17,0.84 -0.1,0.2 -0.2,0.37 -0.3,0.47 -0.13,0.1 -0.27,0.17 -0.4,0.17 -0.24,0 -0.57,-0.13 -0.94,-0.44 -0.37,-0.3 -0.88,-0.61 -1.48,-0.98 -0.61,-0.37 -1.31,-0.67 -2.16,-0.98 -0.84,-0.3 -1.82,-0.44 -3,-0.44 -1.28,0 -2.43,0.27 -3.4,0.78 -1.01,0.54 -1.85,1.28 -2.56,2.22 -0.71,0.98 -1.25,2.16 -1.62,3.54 -0.37,1.38 -0.54,2.93 -0.54,4.65 0,1.89 0.2,3.54 0.57,4.92 0.4,1.38 0.94,2.53 1.65,3.4 0.71,0.88 1.58,1.55 2.59,1.99 1.01,0.44 2.16,0.67 3.44,0.67 1.15,0 2.16,-0.13 3,-0.4 0.84,-0.27 1.55,-0.57 2.16,-0.91 0.61,-0.34 1.11,-0.64 1.48,-0.88 0.4,-0.27 0.67,-0.4 0.91,-0.4 0.17,0 0.3,0.03 0.4,0.1 0.1,0.07 0.2,0.2 0.27,0.4 0.07,0.2 0.1,0.47 0.13,0.84 0.03,0.37 0.07,0.84 0.07,1.45l0.04 -0.07zm-29.3 -7.14c0,1.99 -0.3,3.74 -0.88,5.29 -0.57,1.55 -1.41,2.9 -2.56,3.97 -1.15,1.08 -2.53,1.92 -4.18,2.46 -1.65,0.57 -3.57,0.84 -5.73,0.84 -2.02,0 -3.84,-0.27 -5.46,-0.74 -1.62,-0.5 -2.96,-1.28 -4.08,-2.29 -1.11,-1.04 -1.95,-2.32 -2.56,-3.84 -0.57,-1.55 -0.88,-3.33 -0.88,-5.39l0 -19.6c0,-0.17 0.07,-0.3 0.17,-0.44 0.1,-0.13 0.27,-0.24 0.54,-0.34 0.27,-0.1 0.61,-0.13 1.01,-0.2 0.4,-0.07 0.94,-0.07 1.58,-0.07 0.61,0 1.15,0.03 1.55,0.07 0.4,0.07 0.74,0.1 1.01,0.2 0.24,0.1 0.44,0.2 0.54,0.34 0.1,0.13 0.17,0.3 0.17,0.44l0 19.03c0,1.28 0.17,2.39 0.47,3.33 0.3,0.94 0.78,1.72 1.35,2.32 0.57,0.61 1.28,1.08 2.12,1.38 0.81,0.3 1.75,0.47 2.76,0.47 1.04,0 1.95,-0.17 2.76,-0.47 0.81,-0.3 1.52,-0.78 2.09,-1.38 0.57,-0.61 1.01,-1.35 1.31,-2.26 0.3,-0.88 0.47,-1.92 0.47,-3.03l0 -19.4c0,-0.17 0.07,-0.3 0.17,-0.44 0.1,-0.13 0.27,-0.24 0.5,-0.34 0.24,-0.1 0.57,-0.13 1.01,-0.2 0.44,-0.07 0.94,-0.07 1.58,-0.07 0.64,0 1.15,0.03 1.55,0.07 0.4,0.07 0.74,0.1 0.98,0.2 0.24,0.1 0.44,0.2 0.5,0.34 0.1,0.13 0.17,0.3 0.17,0.44l0 19.33 -0.07 -0.03zm-31.63 -4.58c0,2.96 -0.37,5.49 -1.15,7.58 -0.78,2.09 -1.89,3.81 -3.33,5.15 -1.45,1.31 -3.2,2.29 -5.25,2.93 -2.05,0.61 -4.55,0.94 -7.38,0.94l-7.68 0c-0.54,0 -1.01,-0.17 -1.38,-0.47 -0.37,-0.34 -0.57,-0.84 -0.57,-1.58l0 -28.09c0,-0.74 0.2,-1.25 0.57,-1.58 0.37,-0.34 0.84,-0.47 1.38,-0.47l8.25 0c2.86,0 5.32,0.34 7.31,1.01 2.02,0.67 3.7,1.65 5.05,3 1.38,1.31 2.43,2.96 3.13,4.88 0.71,1.95 1.08,4.18 1.08,6.74l-0.04 -0.03zm-6.77 0.24c0,-1.52 -0.17,-2.93 -0.54,-4.24 -0.37,-1.31 -0.91,-2.43 -1.72,-3.4 -0.78,-0.98 -1.82,-1.72 -3.03,-2.26 -1.25,-0.54 -2.86,-0.81 -4.88,-0.81l-3.3 0 0 21.86 3.4 0c1.78,0 3.3,-0.24 4.51,-0.71 1.21,-0.47 2.26,-1.18 3.07,-2.09 0.81,-0.94 1.41,-2.09 1.82,-3.5 0.4,-1.38 0.61,-3.03 0.61,-4.88l0.07 0.03z"/>
  <g id="_1602262892304">
   <path class="fil1" d="M79.76 43.35c-0.3,-0.71 0.17,-0.24 -0.64,-0.74l-20.48 -7.38c-4.14,-1.48 -3,-1.55 -7.14,-0.07 -1.68,0.61 -20.92,7.04 -21.25,7.88 -0.64,1.58 5.02,2.09 6.16,3.2 -1.95,2.53 -2.29,3.44 -2.43,7.61 -2.66,1.95 -1.55,3.3 -0.27,4.88 -0.27,2.16 -0.91,4.01 -1.75,5.76 -0.81,1.68 -2.39,3.5 -2.8,4.41 0.57,0.44 2.66,2.19 3.81,1.95 2.96,-0.67 3.57,-5.52 3.54,-8.18 0,-1.01 -0.03,-1.92 -0.13,-2.93 -0.17,-2.12 -0.03,-1.08 0.64,-2.29 0.4,-0.74 0.4,-1.75 -0.07,-2.46 -0.67,-1.01 -0.91,-0.3 -0.74,-2.12 0.17,-1.75 0.61,-3.2 1.38,-4.45 1.21,-1.92 1.38,-1.48 3.67,-0.67l13.03 4.65c1.31,0.47 3.07,-0.47 4.38,-0.94l17.14 -6.13c1.89,-0.67 3.57,-0.91 3.91,-2.02l0.03 0.03z"/>
   <path class="fil1" d="M40.72 52.48c0,2.83 0,5.69 0,8.52 0,3.94 -0.57,5.76 1.35,7.04 6.13,4.04 22.63,3.87 27.69,-0.1 1.18,-0.94 1.11,-1.08 1.11,-3l0 -12.43c-1.11,0.1 -6.23,1.95 -7.48,2.36 -1.95,0.67 -5.56,2.16 -7.61,2.16 -2.86,0 -11.11,-3.74 -15.02,-4.58l-0.03 0.03z"/>
  </g>
 </g>
</svg>
