<?xml version="1.0" encoding="UTF-8"?>
<!DOCTYPE svg PUBLIC "-//W3C//DTD SVG 1.1//EN" "http://www.w3.org/Graphics/SVG/1.1/DTD/svg11.dtd">
<!-- Creator: CorelDRAW 2021 (64-Bit) -->
<svg xmlns="http://www.w3.org/2000/svg" xml:space="preserve" width="1.54073in" height="0.462102in" version="1.1" style="shape-rendering:geometricPrecision; text-rendering:geometricPrecision; image-rendering:optimizeQuality; fill-rule:evenodd; clip-rule:evenodd"
viewBox="0 0 424.91 127.44"
 xmlns:xlink="http://www.w3.org/1999/xlink"
 xmlns:xodm="http://www.corel.com/coreldraw/odm/2003">
 <defs>
  <style type="text/css">
   <![CDATA[
    .fil1 {fill:#373435}
    .fil0 {fill:#4C4C4D}
   ]]>
  </style>
 </defs>
 <g id="Layer_x0020_1">
  <metadata id="CorelCorpID_0Corel-Layer"/>
  <path class="fil0" d="M63.76 0c35.18,0 63.72,28.54 63.72,63.72 -2.54,34.45 -20.61,55.69 -54.21,63.72l0.01 0 -9.56 0c-35.18,0 -63.72,-28.54 -63.72,-63.72 0,-35.18 28.54,-63.72 63.72,-63.72l0.04 0zm0 23.32c22.31,0 40.4,18.1 40.4,40.4 0,22.31 -18.1,40.4 -40.4,40.4 -22.31,0 -40.4,-18.1 -40.4,-40.4 0,-22.31 18.1,-40.4 40.4,-40.4z"/>
  <path class="fil0" d="M185.74 86.96c0,0.65 -0.04,1.26 -0.08,1.7 -0.04,0.45 -0.16,0.85 -0.24,1.13 -0.12,0.32 -0.24,0.53 -0.4,0.65 -0.16,0.12 -0.36,0.2 -0.57,0.2l-19.96 0c-0.73,0 -1.34,-0.2 -1.86,-0.65 -0.49,-0.45 -0.77,-1.13 -0.77,-2.15l0 -39.59c0,-0.2 0.08,-0.4 0.2,-0.61 0.16,-0.16 0.4,-0.32 0.73,-0.45 0.32,-0.12 0.81,-0.2 1.38,-0.28 0.57,-0.08 1.3,-0.12 2.15,-0.12 0.89,0 1.58,0.04 2.15,0.12 0.57,0.08 1.01,0.16 1.34,0.28 0.32,0.12 0.57,0.28 0.73,0.45 0.16,0.2 0.2,0.4 0.2,0.61l0 35.06 13.68 0c0.2,0 0.4,0.04 0.57,0.2 0.16,0.12 0.32,0.32 0.4,0.61 0.12,0.28 0.2,0.65 0.24,1.13 0.04,0.45 0.08,1.01 0.08,1.7l0.04 0zm239.18 -13.32c0,1.05 -0.24,1.78 -0.69,2.31 -0.45,0.49 -1.09,0.73 -1.9,0.73l-18.3 0c0,1.3 0.16,2.43 0.45,3.48 0.28,1.05 0.77,1.9 1.42,2.63 0.65,0.73 1.5,1.3 2.55,1.66 1.05,0.36 2.27,0.57 3.77,0.57 1.5,0 2.79,-0.12 3.89,-0.32 1.13,-0.2 2.11,-0.45 2.92,-0.73 0.81,-0.28 1.5,-0.49 2.02,-0.73 0.53,-0.2 0.97,-0.32 1.3,-0.32 0.2,0 0.36,0.04 0.49,0.12 0.12,0.08 0.24,0.2 0.36,0.4 0.08,0.2 0.16,0.49 0.2,0.85 0.04,0.36 0.04,0.85 0.04,1.38 0,0.49 0,0.93 -0.04,1.26 -0.04,0.36 -0.04,0.65 -0.12,0.89 -0.04,0.24 -0.12,0.45 -0.2,0.61 -0.08,0.16 -0.2,0.32 -0.36,0.49 -0.16,0.16 -0.53,0.36 -1.21,0.65 -0.65,0.28 -1.5,0.53 -2.51,0.81 -1.01,0.28 -2.15,0.49 -3.44,0.69 -1.3,0.2 -2.67,0.28 -4.17,0.28 -2.67,0 -5.02,-0.32 -7,-1.01 -1.98,-0.65 -3.68,-1.7 -5.02,-3.04 -1.34,-1.38 -2.35,-3.12 -3,-5.18 -0.65,-2.11 -0.97,-4.53 -0.97,-7.33 0,-2.67 0.36,-5.06 1.05,-7.21 0.69,-2.15 1.7,-3.97 3.04,-5.47 1.34,-1.5 2.92,-2.63 4.82,-3.4 1.9,-0.81 4.05,-1.17 6.44,-1.17 2.51,0 4.66,0.36 6.44,1.13 1.78,0.73 3.24,1.78 4.41,3.08 1.13,1.3 1.98,2.87 2.51,4.66 0.53,1.78 0.81,3.77 0.81,5.87l0 1.34 0.04 0.04zm-8.22 -2.43c0.08,-2.39 -0.4,-4.25 -1.42,-5.63 -1.01,-1.38 -2.59,-2.07 -4.74,-2.07 -1.09,0 -2.02,0.2 -2.83,0.61 -0.81,0.4 -1.46,0.93 -1.98,1.62 -0.53,0.69 -0.93,1.5 -1.21,2.43 -0.28,0.93 -0.45,1.94 -0.49,3l12.67 0 0 0.04zm-24.41 -9.64c0,1.09 -0.12,1.86 -0.36,2.39 -0.24,0.53 -0.53,0.77 -0.89,0.77l-3.52 0c0.49,0.53 0.85,1.13 1.05,1.82 0.2,0.69 0.32,1.42 0.32,2.15 0,1.74 -0.28,3.28 -0.89,4.66 -0.57,1.34 -1.42,2.51 -2.51,3.44 -1.09,0.93 -2.39,1.62 -3.93,2.11 -1.54,0.49 -3.24,0.73 -5.14,0.73 -0.97,0 -1.9,-0.12 -2.75,-0.36 -0.89,-0.24 -1.54,-0.49 -2.02,-0.81 -0.28,0.28 -0.53,0.65 -0.73,1.05 -0.2,0.4 -0.32,0.85 -0.32,1.34 0,0.65 0.28,1.21 0.85,1.62 0.57,0.4 1.38,0.65 2.39,0.69l7.33 0.28c1.7,0.08 3.24,0.32 4.57,0.73 1.34,0.4 2.47,1.01 3.36,1.74 0.89,0.73 1.62,1.66 2.11,2.71 0.49,1.05 0.73,2.27 0.73,3.6 0,1.5 -0.32,2.87 -0.97,4.17 -0.65,1.34 -1.62,2.47 -2.92,3.44 -1.3,0.97 -2.96,1.74 -4.9,2.27 -1.98,0.57 -4.25,0.85 -6.88,0.85 -2.55,0 -4.74,-0.2 -6.56,-0.61 -1.82,-0.4 -3.28,-0.97 -4.45,-1.66 -1.17,-0.73 -1.98,-1.58 -2.51,-2.59 -0.53,-1.01 -0.81,-2.11 -0.81,-3.28 0,-0.73 0.08,-1.46 0.28,-2.11 0.2,-0.69 0.49,-1.34 0.85,-1.94 0.36,-0.61 0.81,-1.21 1.38,-1.74 0.53,-0.57 1.13,-1.09 1.86,-1.62 -0.97,-0.53 -1.7,-1.21 -2.23,-2.11 -0.53,-0.89 -0.81,-1.86 -0.81,-2.92 0,-1.34 0.32,-2.51 0.89,-3.6 0.61,-1.09 1.42,-2.07 2.35,-2.96 -0.81,-0.77 -1.42,-1.74 -1.9,-2.83 -0.49,-1.09 -0.73,-2.47 -0.73,-4.09 0,-1.74 0.32,-3.32 0.93,-4.7 0.61,-1.38 1.46,-2.55 2.59,-3.48 1.09,-0.97 2.43,-1.66 3.93,-2.19 1.54,-0.49 3.2,-0.77 5.06,-0.77 0.93,0 1.86,0.04 2.71,0.16 0.85,0.12 1.66,0.28 2.39,0.45l9.51 0c0.36,0 0.69,0.24 0.93,0.73 0.24,0.49 0.36,1.34 0.36,2.51l-0 -0.04zm-10.89 7.12c0,-1.62 -0.45,-2.87 -1.34,-3.77 -0.89,-0.89 -2.15,-1.34 -3.81,-1.34 -0.81,0 -1.58,0.12 -2.19,0.45 -0.65,0.28 -1.13,0.65 -1.58,1.13 -0.4,0.49 -0.73,1.05 -0.93,1.7 -0.2,0.65 -0.28,1.3 -0.28,1.98 0,1.54 0.45,2.75 1.34,3.6 0.89,0.89 2.15,1.34 3.72,1.34 0.85,0 1.58,-0.12 2.23,-0.4 0.65,-0.28 1.13,-0.65 1.58,-1.13 0.45,-0.49 0.73,-1.01 0.97,-1.62 0.2,-0.61 0.32,-1.26 0.32,-1.94l-0.04 0zm1.98 23.97c0,-1.01 -0.4,-1.78 -1.21,-2.31 -0.81,-0.53 -1.9,-0.85 -3.32,-0.89l-6.03 -0.16c-0.57,0.45 -1.05,0.85 -1.38,1.21 -0.36,0.4 -0.65,0.77 -0.85,1.13 -0.2,0.36 -0.36,0.69 -0.4,1.05 -0.08,0.32 -0.12,0.69 -0.12,1.05 0,1.13 0.57,1.98 1.7,2.55 1.13,0.57 2.75,0.89 4.78,0.89 1.3,0 2.35,-0.12 3.24,-0.4 0.89,-0.24 1.58,-0.61 2.11,-1.01 0.53,-0.4 0.93,-0.89 1.13,-1.42 0.2,-0.53 0.32,-1.09 0.32,-1.66l0.04 -0.04zm-26.6 -3c0,0.32 -0.12,0.57 -0.32,0.73 -0.24,0.2 -0.57,0.32 -1.05,0.4 -0.49,0.08 -1.21,0.12 -2.15,0.12 -1.01,0 -1.74,-0.04 -2.19,-0.12 -0.45,-0.08 -0.81,-0.2 -0.97,-0.4 -0.2,-0.2 -0.28,-0.45 -0.28,-0.73l0 -2.39c-1.26,1.34 -2.63,2.35 -4.21,3.08 -1.58,0.73 -3.32,1.09 -5.26,1.09 -1.58,0 -3.04,-0.2 -4.37,-0.61 -1.34,-0.4 -2.47,-1.05 -3.44,-1.86 -0.97,-0.81 -1.74,-1.82 -2.27,-3.04 -0.53,-1.21 -0.81,-2.63 -0.81,-4.25 0,-1.74 0.36,-3.28 1.01,-4.57 0.69,-1.3 1.7,-2.35 3.08,-3.2 1.34,-0.85 3.04,-1.46 5.06,-1.86 2.02,-0.4 4.37,-0.61 7,-0.61l2.92 0 0 -1.82c0,-0.93 -0.08,-1.78 -0.28,-2.47 -0.2,-0.69 -0.49,-1.3 -0.93,-1.78 -0.45,-0.49 -1.01,-0.81 -1.74,-1.05 -0.73,-0.2 -1.62,-0.32 -2.71,-0.32 -1.42,0 -2.67,0.16 -3.77,0.49 -1.13,0.32 -2.11,0.65 -2.96,1.05 -0.85,0.36 -1.58,0.73 -2.15,1.05 -0.57,0.32 -1.05,0.49 -1.38,0.49 -0.24,0 -0.49,-0.08 -0.65,-0.24 -0.2,-0.16 -0.36,-0.4 -0.49,-0.69 -0.12,-0.28 -0.2,-0.65 -0.28,-1.09 -0.08,-0.45 -0.12,-0.89 -0.12,-1.42 0,-0.69 0.04,-1.26 0.16,-1.66 0.12,-0.4 0.32,-0.77 0.65,-1.09 0.32,-0.32 0.85,-0.69 1.66,-1.05 0.77,-0.4 1.7,-0.77 2.75,-1.09 1.05,-0.36 2.19,-0.61 3.44,-0.81 1.26,-0.2 2.55,-0.32 3.85,-0.32 2.35,0 4.37,0.24 6.03,0.69 1.66,0.45 3.04,1.17 4.13,2.15 1.09,0.97 1.86,2.19 2.35,3.68 0.49,1.5 0.73,3.28 0.73,5.34l0 20.2 -0.04 0zm-8.34 -12.87l-3.24 0c-1.38,0 -2.51,0.12 -3.48,0.28 -0.97,0.2 -1.74,0.49 -2.35,0.93 -0.61,0.4 -1.05,0.89 -1.34,1.46 -0.28,0.57 -0.4,1.21 -0.4,1.98 0,1.26 0.4,2.27 1.21,2.96 0.81,0.73 1.9,1.09 3.32,1.09 1.17,0 2.27,-0.28 3.28,-0.89 1.01,-0.61 2.02,-1.5 3.04,-2.67l0 -5.1 -0.04 -0.04zm-25.75 12.79c0,0.2 -0.04,0.4 -0.16,0.57 -0.12,0.16 -0.28,0.32 -0.57,0.45 -0.28,0.12 -0.65,0.2 -1.13,0.24 -0.45,0.04 -1.05,0.08 -1.74,0.08 -0.73,0 -1.34,-0.04 -1.82,-0.08 -0.45,-0.04 -0.81,-0.16 -1.09,-0.24 -0.28,-0.12 -0.45,-0.24 -0.57,-0.45 -0.12,-0.16 -0.16,-0.36 -0.16,-0.57l0 -3.48c-1.66,1.78 -3.36,3.12 -5.06,4.01 -1.74,0.89 -3.52,1.34 -5.34,1.34 -2.07,0 -3.81,-0.32 -5.22,-1.01 -1.42,-0.65 -2.55,-1.58 -3.4,-2.75 -0.85,-1.17 -1.5,-2.51 -1.86,-4.05 -0.36,-1.54 -0.57,-3.44 -0.57,-5.75l0 -18.38c0,-0.2 0.04,-0.4 0.2,-0.57 0.12,-0.16 0.36,-0.32 0.69,-0.4 0.32,-0.12 0.77,-0.2 1.34,-0.24 0.57,-0.04 1.21,-0.08 2.07,-0.08 0.81,0 1.5,0.04 2.07,0.08 0.53,0.04 0.97,0.16 1.3,0.24 0.32,0.12 0.57,0.24 0.69,0.4 0.12,0.16 0.2,0.36 0.2,0.57l0 16.96c0,1.58 0.12,2.75 0.28,3.6 0.2,0.85 0.53,1.54 0.93,2.15 0.4,0.61 0.93,1.05 1.58,1.38 0.65,0.32 1.38,0.49 2.23,0.49 1.09,0 2.15,-0.4 3.24,-1.17 1.09,-0.77 2.27,-1.94 3.48,-3.44l0 -20c0,-0.2 0.04,-0.4 0.2,-0.57 0.12,-0.16 0.36,-0.32 0.69,-0.4 0.32,-0.12 0.77,-0.2 1.3,-0.24 0.53,-0.04 1.21,-0.08 2.07,-0.08 0.81,0 1.5,0.04 2.07,0.08 0.53,0.04 0.97,0.16 1.3,0.24 0.32,0.12 0.53,0.24 0.65,0.4 0.12,0.16 0.2,0.36 0.2,0.57l0 30.08 -0.04 0.04zm-34.13 -27.97c0,1.09 -0.12,1.86 -0.36,2.39 -0.24,0.53 -0.53,0.77 -0.89,0.77l-3.52 0c0.49,0.53 0.85,1.13 1.05,1.82 0.2,0.69 0.32,1.42 0.32,2.15 0,1.74 -0.28,3.28 -0.89,4.66 -0.57,1.34 -1.42,2.51 -2.51,3.44 -1.09,0.93 -2.39,1.62 -3.93,2.11 -1.54,0.49 -3.24,0.73 -5.14,0.73 -0.97,0 -1.9,-0.12 -2.75,-0.36 -0.89,-0.24 -1.54,-0.49 -2.02,-0.81 -0.28,0.28 -0.53,0.65 -0.73,1.05 -0.2,0.4 -0.32,0.85 -0.32,1.34 0,0.65 0.28,1.21 0.85,1.62 0.57,0.4 1.38,0.65 2.39,0.69l7.33 0.28c1.7,0.08 3.24,0.32 4.57,0.73 1.34,0.4 2.47,1.01 3.36,1.74 0.89,0.73 1.62,1.66 2.11,2.71 0.49,1.05 0.73,2.27 0.73,3.6 0,1.5 -0.32,2.87 -0.97,4.17 -0.65,1.34 -1.62,2.47 -2.92,3.44 -1.3,0.97 -2.96,1.74 -4.9,2.27 -1.98,0.57 -4.25,0.85 -6.88,0.85 -2.55,0 -4.74,-0.2 -6.56,-0.61 -1.82,-0.4 -3.28,-0.97 -4.45,-1.66 -1.17,-0.73 -1.98,-1.58 -2.51,-2.59 -0.53,-1.01 -0.81,-2.11 -0.81,-3.28 0,-0.73 0.08,-1.46 0.28,-2.11 0.2,-0.69 0.49,-1.34 0.85,-1.94 0.36,-0.61 0.81,-1.21 1.38,-1.74 0.53,-0.57 1.13,-1.09 1.86,-1.62 -0.97,-0.53 -1.7,-1.21 -2.23,-2.11 -0.53,-0.89 -0.81,-1.86 -0.81,-2.92 0,-1.34 0.32,-2.51 0.89,-3.6 0.61,-1.09 1.42,-2.07 2.35,-2.96 -0.81,-0.77 -1.42,-1.74 -1.9,-2.83 -0.49,-1.09 -0.73,-2.47 -0.73,-4.09 0,-1.74 0.32,-3.32 0.93,-4.7 0.61,-1.38 1.46,-2.55 2.59,-3.48 1.09,-0.97 2.43,-1.66 3.93,-2.19 1.54,-0.49 3.2,-0.77 5.06,-0.77 0.93,0 1.86,0.04 2.71,0.16 0.85,0.12 1.66,0.28 2.39,0.45l9.51 0c0.36,0 0.69,0.24 0.93,0.73 0.24,0.49 0.36,1.34 0.36,2.51l-0 -0.04zm-10.89 7.12c0,-1.62 -0.45,-2.87 -1.34,-3.77 -0.89,-0.89 -2.15,-1.34 -3.81,-1.34 -0.81,0 -1.58,0.12 -2.19,0.45 -0.65,0.28 -1.13,0.65 -1.58,1.13 -0.4,0.49 -0.73,1.05 -0.93,1.7 -0.2,0.65 -0.28,1.3 -0.28,1.98 0,1.54 0.45,2.75 1.34,3.6 0.89,0.89 2.15,1.34 3.72,1.34 0.85,0 1.58,-0.12 2.23,-0.4 0.65,-0.28 1.13,-0.65 1.58,-1.13 0.45,-0.49 0.73,-1.01 0.97,-1.62 0.2,-0.61 0.32,-1.26 0.32,-1.94l-0.04 0zm1.98 23.97c0,-1.01 -0.4,-1.78 -1.21,-2.31 -0.81,-0.53 -1.9,-0.85 -3.32,-0.89l-6.03 -0.16c-0.57,0.45 -1.05,0.85 -1.38,1.21 -0.36,0.4 -0.65,0.77 -0.85,1.13 -0.2,0.36 -0.36,0.69 -0.4,1.05 -0.08,0.32 -0.12,0.69 -0.12,1.05 0,1.13 0.57,1.98 1.7,2.55 1.13,0.57 2.75,0.89 4.78,0.89 1.3,0 2.35,-0.12 3.24,-0.4 0.89,-0.24 1.58,-0.61 2.11,-1.01 0.53,-0.4 0.93,-0.89 1.13,-1.42 0.2,-0.53 0.32,-1.09 0.32,-1.66l0.04 -0.04zm-26.48 -3.12c0,0.2 -0.08,0.4 -0.2,0.57 -0.12,0.16 -0.36,0.32 -0.65,0.45 -0.32,0.12 -0.77,0.2 -1.3,0.24 -0.57,0.04 -1.21,0.08 -2.02,0.08 -0.85,0 -1.54,-0.04 -2.07,-0.08 -0.57,-0.04 -0.97,-0.16 -1.3,-0.24 -0.32,-0.12 -0.53,-0.24 -0.65,-0.45 -0.12,-0.16 -0.2,-0.36 -0.2,-0.57l0 -17.12c0,-1.46 -0.12,-2.59 -0.32,-3.44 -0.2,-0.85 -0.53,-1.54 -0.93,-2.15 -0.4,-0.61 -0.93,-1.05 -1.58,-1.38 -0.65,-0.32 -1.38,-0.49 -2.23,-0.49 -1.09,0 -2.15,0.4 -3.28,1.17 -1.09,0.77 -2.23,1.94 -3.44,3.44l0 19.96c0,0.2 -0.08,0.4 -0.2,0.57 -0.12,0.16 -0.36,0.32 -0.69,0.45 -0.32,0.12 -0.77,0.2 -1.3,0.24 -0.53,0.04 -1.21,0.08 -2.07,0.08 -0.81,0 -1.5,-0.04 -2.07,-0.08 -0.53,-0.04 -0.97,-0.16 -1.3,-0.24 -0.32,-0.12 -0.57,-0.24 -0.69,-0.45 -0.12,-0.16 -0.2,-0.36 -0.2,-0.57l0 -30.08c0,-0.2 0.04,-0.4 0.16,-0.57 0.12,-0.16 0.32,-0.32 0.61,-0.4 0.28,-0.12 0.65,-0.2 1.13,-0.24 0.45,-0.04 1.05,-0.08 1.74,-0.08 0.73,0 1.3,0.04 1.78,0.08 0.49,0.04 0.85,0.16 1.09,0.24 0.24,0.12 0.45,0.24 0.57,0.4 0.12,0.16 0.16,0.36 0.16,0.57l0 3.48c1.66,-1.78 3.36,-3.12 5.06,-4.01 1.7,-0.89 3.52,-1.34 5.38,-1.34 2.07,0 3.77,0.32 5.18,1.01 1.42,0.65 2.51,1.58 3.4,2.75 0.85,1.13 1.5,2.51 1.86,4.05 0.36,1.54 0.57,3.4 0.57,5.59l0 18.54 -0.04 -0zm-37.12 0.12c0,0.32 -0.12,0.57 -0.32,0.73 -0.24,0.2 -0.57,0.32 -1.05,0.4 -0.49,0.08 -1.21,0.12 -2.15,0.12 -1.01,0 -1.74,-0.04 -2.19,-0.12 -0.45,-0.08 -0.81,-0.2 -0.97,-0.4 -0.2,-0.2 -0.28,-0.45 -0.28,-0.73l0 -2.39c-1.26,1.34 -2.63,2.35 -4.21,3.08 -1.58,0.73 -3.32,1.09 -5.26,1.09 -1.58,0 -3.04,-0.2 -4.37,-0.61 -1.34,-0.4 -2.47,-1.05 -3.44,-1.86 -0.97,-0.81 -1.74,-1.82 -2.27,-3.04 -0.53,-1.21 -0.81,-2.63 -0.81,-4.25 0,-1.74 0.36,-3.28 1.01,-4.57 0.69,-1.3 1.7,-2.35 3.08,-3.2 1.34,-0.85 3.04,-1.46 5.06,-1.86 2.02,-0.4 4.37,-0.61 7,-0.61l2.92 0 0 -1.82c0,-0.93 -0.08,-1.78 -0.28,-2.47 -0.2,-0.69 -0.49,-1.3 -0.93,-1.78 -0.45,-0.49 -1.01,-0.81 -1.74,-1.05 -0.73,-0.2 -1.62,-0.32 -2.71,-0.32 -1.42,0 -2.67,0.16 -3.77,0.49 -1.13,0.32 -2.11,0.65 -2.96,1.05 -0.85,0.36 -1.58,0.73 -2.15,1.05 -0.57,0.32 -1.05,0.49 -1.38,0.49 -0.24,0 -0.49,-0.08 -0.65,-0.24 -0.2,-0.16 -0.36,-0.4 -0.49,-0.69 -0.12,-0.28 -0.2,-0.65 -0.28,-1.09 -0.08,-0.45 -0.12,-0.89 -0.12,-1.42 0,-0.69 0.04,-1.26 0.16,-1.66 0.12,-0.4 0.32,-0.77 0.65,-1.09 0.32,-0.32 0.85,-0.69 1.66,-1.05 0.77,-0.4 1.7,-0.77 2.75,-1.09 1.05,-0.36 2.19,-0.61 3.44,-0.81 1.26,-0.2 2.55,-0.32 3.85,-0.32 2.35,0 4.37,0.24 6.03,0.69 1.66,0.45 3.04,1.17 4.13,2.15 1.09,0.97 1.86,2.19 2.35,3.68 0.49,1.5 0.73,3.28 0.73,5.34l0 20.2 -0.04 0zm-8.34 -12.87l-3.24 0c-1.38,0 -2.51,0.12 -3.48,0.28 -0.97,0.2 -1.74,0.49 -2.35,0.93 -0.61,0.4 -1.05,0.89 -1.34,1.46 -0.28,0.57 -0.4,1.21 -0.4,1.98 0,1.26 0.4,2.27 1.21,2.96 0.81,0.73 1.9,1.09 3.32,1.09 1.17,0 2.27,-0.28 3.28,-0.89 1.01,-0.61 2.02,-1.5 3.04,-2.67l0 -5.1 -0.04 -0.04z"/>
  <g id="_1602202779824">
   <path class="fil1" d="M70.16 78.7c-0.53,-1.74 0.36,-3 1.01,-4.62 0.53,-1.3 3.85,-9.92 4.41,-10.36 0.57,-0.4 1.46,-0.36 1.94,0.16 0.4,0.4 2.96,7.12 3.4,8.26 1.17,2.96 3.97,7.73 -0.4,6.76 -2.63,-4.25 0.73,-4.13 -5.59,-4.13 -2.59,0 -0.89,5.67 -4.82,3.89l0.04 0.04zm13.4 9.92c1.21,0.28 1.9,-0.4 2.67,-0.93 0.89,-0.65 1.54,-1.13 2.27,-1.78 5.14,-4.57 4.74,-5.1 4.74,-11.34 0,-15.67 1.13,-15.38 -8.46,-15.38 -5.22,0 -10.49,0 -15.71,0 -7.29,0 -9.35,-0.89 -9.35,6.56 0,2.92 -0.53,13.64 0.61,15.42 1.5,2.31 2.79,2.02 6.11,2.02l15.75 0c3.16,0.16 0.81,3.44 1.42,5.47l-0.04 -0.04z"/>
   <path class="fil1" d="M45.18 69.83c0.93,-2.47 -2.47,-5.51 2.35,-5.47 3.04,0.04 6.07,0 9.11,0l0.32 -3.72c-1.94,-0.12 -3.24,-1.13 -4.25,-1.26 -0.04,0 -9.11,3.16 -7.37,-0.81 0.36,-0.81 0.97,-0.85 1.94,-0.93 1.05,-0.08 1.74,-0.32 2.71,-0.45 -0.57,-1.09 -3.12,-4.09 -1.62,-5.38 2.19,-1.82 2.43,2.27 4.29,3.48 0.65,-1.13 1.42,-2.55 1.7,-4.37 -6.15,0 -10.04,0.93 -8.87,-2.67 1.54,-0.45 3.44,-0.32 5.34,-0.32l0.08 -3.28c2.59,-1.58 2.92,0.61 2.87,3.16 1.38,0.32 4.09,-0.24 5.06,0.4 0.49,0.32 0.85,1.09 0.45,1.9 -0.36,0.73 -1.01,0.73 -1.94,0.93 -0.77,4.45 -1.54,4.05 -2.35,6.15 6.48,1.17 2.83,0.57 6.19,-0.61 2.11,-0.73 5.47,-0.4 7.77,-0.36 0,-13.4 1.54,-15.91 -6.27,-15.87 -7.37,0 -14.78,0 -22.14,0 -4.33,0 -5.1,1.66 -5.06,5.87 0,3.72 0,7.45 0,11.17 0,3.36 -0.28,5.14 3.12,8.14 1.7,1.5 4.78,4.74 6.48,4.21l0.08 0.08z"/>
   <path class="fil1" d="M75.5 71.57c0.24,0.12 0.4,0.24 0.89,0.2 1.78,-0.12 0.53,0.08 1.01,-0.49l-0.93 -2.19c-0.45,0.73 -0.85,1.66 -0.97,2.47l0 0z"/>
   <path class="fil1" d="M77.4 71.29c-0.49,0.61 0.77,0.36 -1.01,0.49 -0.49,0.04 -0.65,-0.08 -0.89,-0.2l-0.28 0.28 2.43 0.08 -0.2 -0.69 -0.04 0.04z"/>
  </g>
 </g>
</svg>
