<?xml version="1.0" encoding="UTF-8"?>
<!DOCTYPE svg PUBLIC "-//W3C//DTD SVG 1.1//EN" "http://www.w3.org/Graphics/SVG/1.1/DTD/svg11.dtd">
<!-- Creator: CorelDRAW 2021 (64-Bit) -->
<svg xmlns="http://www.w3.org/2000/svg" xml:space="preserve" width="2.18536in" height="0.462102in" version="1.1" style="shape-rendering:geometricPrecision; text-rendering:geometricPrecision; image-rendering:optimizeQuality; fill-rule:evenodd; clip-rule:evenodd"
viewBox="0 0 1068.4 225.92"
 xmlns:xlink="http://www.w3.org/1999/xlink"
 xmlns:xodm="http://www.corel.com/coreldraw/odm/2003">
 <defs>
  <style type="text/css">
   <![CDATA[
    .fil2 {fill:#373435}
    .fil1 {fill:#373435}
    .fil0 {fill:#4C4C4D}
   ]]>
  </style>
 </defs>
 <g id="Layer_x0020_1">
  <metadata id="CorelCorpID_0Corel-Layer"/>
  <path class="fil0" d="M113.04 0.01c62.36,0 112.96,50.6 112.96,112.96l0.03 0.48 -0.03 -0.05c-4.45,60.45 -35.89,97.95 -94.31,112.51l-18.74 0c-62.36,0 -112.96,-50.6 -112.96,-112.96 0,-62.36 50.6,-112.96 112.96,-112.96l0.07 0 0.01 0.01zm0 41.34c39.54,0 71.62,32.08 71.62,71.62 0,39.54 -32.08,71.62 -71.62,71.62 -39.54,0 -71.62,-32.08 -71.62,-71.62 0,-39.54 32.08,-71.62 71.62,-71.62z"/>
  <path class="fil1" d="M295.04 99.05l10.09 0 0 6c1.31,-2.05 3.08,-3.7 5.3,-4.98 2.23,-1.26 4.72,-1.89 7.44,-1.89 4.74,0 8.77,1.87 12.09,5.6 3.31,3.72 4.96,8.92 4.96,15.57 0,6.85 -1.67,12.15 -5,15.95 -3.34,3.8 -7.38,5.68 -12.14,5.68 -2.26,0 -4.31,-0.45 -6.15,-1.35 -1.83,-0.89 -3.77,-2.43 -5.79,-4.62l0 20.47 -10.8 0 0 -56.45 0 0.01zm773.36 40.91l-10.8 0 0 -20.85c0,-4.41 -0.23,-7.27 -0.7,-8.55 -0.48,-1.3 -1.22,-2.3 -2.27,-3.02 -1.05,-0.72 -2.31,-1.08 -3.78,-1.08 -1.89,0 -3.59,0.52 -5.08,1.54 -1.51,1.03 -2.53,2.39 -3.09,4.07 -0.56,1.7 -0.84,4.82 -0.84,9.39l0 18.5 -10.8 0 0 -40.91 10.01 0 0 6c3.59,-4.58 8.09,-6.87 13.54,-6.87 2.39,0 4.58,0.44 6.57,1.29 1.99,0.86 3.5,1.95 4.51,3.28 1.03,1.34 1.74,2.85 2.13,4.55 0.41,1.69 0.6,4.11 0.6,7.27l0 25.4 0.02 -0.01zm-87.88 -20.96c0,-3.61 0.88,-7.08 2.65,-10.44 1.78,-3.37 4.28,-5.94 7.53,-7.71 3.25,-1.78 6.86,-2.67 10.86,-2.67 6.19,0 11.25,2.01 15.2,6.03 3.95,4.03 5.93,9.1 5.93,15.25 0,6.2 -2,11.34 -5.97,15.41 -3.99,4.07 -9.02,6.11 -15.07,6.11 -3.74,0 -7.32,-0.85 -10.72,-2.54 -3.39,-1.69 -5.97,-4.18 -7.75,-7.46 -1.77,-3.27 -2.65,-7.27 -2.65,-11.97l0 -0zm11.12 0.57c0,4.06 0.96,7.17 2.88,9.33 1.93,2.17 4.29,3.25 7.12,3.25 2.81,0 5.18,-1.08 7.08,-3.25 1.9,-2.16 2.87,-5.3 2.87,-9.4 0,-4 -0.96,-7.09 -2.87,-9.25 -1.9,-2.17 -4.27,-3.25 -7.08,-3.25 -2.83,0 -5.19,1.08 -7.12,3.25 -1.92,2.16 -2.88,5.27 -2.88,9.33l0 -0zm-30.5 -26.06l0 -10.01 10.8 0 0 10.01 -10.8 0zm0 46.43l0 -40.91 10.8 0 0 40.91 -10.8 0zm-7.57 -40.91l0 8.59 -7.41 0 0 16.56c0,3.36 0.07,5.32 0.21,5.87 0.15,0.55 0.46,1.01 0.97,1.38 0.49,0.35 1.11,0.54 1.83,0.54 1.01,0 2.46,-0.34 4.36,-1.04l0.9 8.41c-2.51,1.08 -5.34,1.61 -8.53,1.61 -1.94,0 -3.69,-0.33 -5.26,-0.98 -1.56,-0.66 -2.71,-1.51 -3.43,-2.54 -0.74,-1.05 -1.23,-2.46 -1.52,-4.25 -0.22,-1.26 -0.34,-3.81 -0.34,-7.65l0 -17.9 -4.96 0 0 -8.59 4.96 0 0 -8.12 10.8 -6.38 0 14.51 7.41 0 0 -0zm-54.48 12.61l-9.77 -1.74c1.11,-3.99 3.01,-6.95 5.7,-8.87 2.69,-1.91 6.7,-2.88 12.01,-2.88 4.82,0 8.42,0.56 10.78,1.71 2.35,1.15 4.02,2.58 4.98,4.35 0.96,1.76 1.45,4.98 1.45,9.69l-0.16 12.61c0,3.59 0.18,6.24 0.52,7.95 0.34,1.71 0.98,3.54 1.93,5.48l-10.72 0c-0.27,-0.71 -0.63,-1.76 -1.04,-3.16 -0.18,-0.64 -0.3,-1.07 -0.38,-1.26 -1.84,1.82 -3.81,3.17 -5.92,4.07 -2.1,0.9 -4.33,1.36 -6.71,1.36 -4.19,0 -7.5,-1.14 -9.92,-3.43 -2.42,-2.27 -3.62,-5.17 -3.62,-8.66 0,-2.3 0.55,-4.36 1.65,-6.18 1.11,-1.8 2.64,-3.19 4.63,-4.15 1.98,-0.96 4.85,-1.8 8.59,-2.53 5.04,-0.94 8.55,-1.84 10.5,-2.65l0 -1.09c0,-2.1 -0.52,-3.6 -1.54,-4.51 -1.04,-0.89 -2.98,-1.34 -5.83,-1.34 -1.93,0 -3.43,0.38 -4.51,1.16 -1.09,0.76 -1.96,2.12 -2.63,4.05l0 0zm14.51 8.75c-1.38,0.46 -3.57,1.01 -6.59,1.65 -2.99,0.64 -4.96,1.27 -5.89,1.87 -1.41,1.01 -2.12,2.27 -2.12,3.81 0,1.52 0.56,2.83 1.7,3.92 1.13,1.11 2.57,1.65 4.31,1.65 1.94,0 3.81,-0.64 5.59,-1.92 1.3,-0.98 2.17,-2.17 2.58,-3.59 0.27,-0.92 0.42,-2.68 0.42,-5.27l0 -2.16 0 0.02zm-93.43 -21.36l9.93 0 0 5.59c3.56,-4.29 7.8,-6.45 12.73,-6.45 2.61,0 4.89,0.54 6.81,1.61 1.93,1.08 3.51,2.71 4.73,4.89 1.8,-2.18 3.75,-3.81 5.82,-4.89 2.08,-1.08 4.29,-1.61 6.67,-1.61 2.99,0 5.53,0.6 7.62,1.83 2.08,1.22 3.62,3.01 4.65,5.37 0.75,1.74 1.12,4.56 1.12,8.46l0 26.12 -10.8 0 0 -23.35c0,-4.06 -0.37,-6.68 -1.12,-7.84 -1,-1.54 -2.55,-2.31 -4.63,-2.31 -1.51,0 -2.94,0.46 -4.28,1.38 -1.33,0.93 -2.3,2.28 -2.89,4.06 -0.59,1.79 -0.88,4.59 -0.88,8.45l0 19.62 -10.79 0 0 -22.39c0,-3.96 -0.19,-6.54 -0.58,-7.69 -0.38,-1.16 -0.97,-2.02 -1.79,-2.58 -0.81,-0.56 -1.9,-0.84 -3.28,-0.84 -1.67,0 -3.17,0.45 -4.49,1.34 -1.34,0.9 -2.28,2.2 -2.87,3.89 -0.58,1.7 -0.86,4.51 -0.86,8.42l0 19.85 -10.8 0 0 -40.91 0.01 0zm-19.57 40.91l-10.8 0 0 -40.91 10.02 0 0 5.81c1.72,-2.75 3.27,-4.55 4.65,-5.4 1.38,-0.85 2.94,-1.27 4.69,-1.27 2.47,0 4.85,0.68 7.13,2.04l-3.35 9.43c-1.83,-1.19 -3.53,-1.77 -5.08,-1.77 -1.52,0 -2.81,0.42 -3.87,1.24 -1.05,0.84 -1.87,2.34 -2.49,4.52 -0.6,2.18 -0.9,6.75 -0.9,13.7l0 12.61 -0 0zm-61 -20.96c0,-3.61 0.88,-7.08 2.65,-10.44 1.78,-3.37 4.28,-5.94 7.53,-7.71 3.25,-1.78 6.86,-2.67 10.86,-2.67 6.19,0 11.25,2.01 15.2,6.03 3.95,4.03 5.93,9.1 5.93,15.25 0,6.2 -2,11.34 -5.97,15.41 -3.99,4.07 -9.02,6.11 -15.07,6.11 -3.74,0 -7.32,-0.85 -10.72,-2.54 -3.39,-1.69 -5.97,-4.18 -7.75,-7.46 -1.77,-3.27 -2.65,-7.27 -2.65,-11.97l0 -0zm11.11 0.57c0,4.06 0.96,7.17 2.88,9.33 1.93,2.17 4.29,3.25 7.12,3.25 2.81,0 5.18,-1.08 7.08,-3.25 1.9,-2.16 2.87,-5.3 2.87,-9.4 0,-4 -0.96,-7.09 -2.87,-9.25 -1.9,-2.17 -4.27,-3.25 -7.08,-3.25 -2.83,0 -5.19,1.08 -7.12,3.25 -1.92,2.16 -2.88,5.27 -2.88,9.33l0 -0zm-39.57 -20.54l5.99 0 0 -3.09c0,-3.44 0.37,-6.02 1.11,-7.71 0.74,-1.71 2.09,-3.09 4.06,-4.15 1.98,-1.07 4.48,-1.6 7.5,-1.6 3.09,0 6.12,0.46 9.09,1.38l-1.38 7.51c-1.76,-0.41 -3.46,-0.62 -5.08,-0.62 -1.6,0 -2.75,0.37 -3.44,1.11 -0.7,0.74 -1.05,2.16 -1.05,4.26l0 2.91 8.12 0 0 8.51 -8.12 0 0 32.4 -10.8 0 0 -32.4 -5.99 0 0 -8.51 -0.01 0.01zm-6.22 40.91l-10.8 0 0 -20.85c0,-4.41 -0.23,-7.27 -0.7,-8.55 -0.48,-1.3 -1.22,-2.3 -2.27,-3.02 -1.05,-0.72 -2.31,-1.08 -3.78,-1.08 -1.89,0 -3.59,0.52 -5.08,1.54 -1.51,1.03 -2.53,2.39 -3.09,4.07 -0.56,1.7 -0.84,4.82 -0.84,9.39l0 18.5 -10.8 0 0 -40.91 10.01 0 0 6c3.59,-4.58 8.09,-6.87 13.54,-6.87 2.39,0 4.58,0.44 6.57,1.29 1.99,0.86 3.5,1.95 4.51,3.28 1.03,1.34 1.74,2.85 2.13,4.55 0.41,1.69 0.6,4.11 0.6,7.27l0 25.4 0.02 -0.01zm-59.11 -46.43l0 -10.01 10.8 0 0 10.01 -10.8 0zm0 46.43l0 -40.91 10.8 0 0 40.91 -10.8 0zm-43.81 0l0 -56.45 10.8 0 0 56.45 -10.8 0zm-35.8 -28.3l-9.77 -1.74c1.11,-3.99 3.01,-6.95 5.7,-8.87 2.69,-1.91 6.7,-2.88 12.01,-2.88 4.82,0 8.42,0.56 10.78,1.71 2.35,1.15 4.02,2.58 4.98,4.35 0.96,1.76 1.45,4.98 1.45,9.69l-0.16 12.61c0,3.59 0.18,6.24 0.52,7.95 0.34,1.71 0.98,3.54 1.93,5.48l-10.72 0c-0.27,-0.71 -0.63,-1.76 -1.04,-3.16 -0.18,-0.64 -0.3,-1.07 -0.38,-1.26 -1.84,1.82 -3.81,3.17 -5.92,4.07 -2.1,0.9 -4.33,1.36 -6.71,1.36 -4.19,0 -7.5,-1.14 -9.92,-3.43 -2.42,-2.27 -3.62,-5.17 -3.62,-8.66 0,-2.3 0.55,-4.36 1.65,-6.18 1.11,-1.8 2.64,-3.19 4.63,-4.15 1.98,-0.96 4.85,-1.8 8.59,-2.53 5.04,-0.94 8.55,-1.84 10.5,-2.65l0 -1.09c0,-2.1 -0.52,-3.6 -1.54,-4.51 -1.04,-0.89 -2.98,-1.34 -5.83,-1.34 -1.93,0 -3.43,0.38 -4.51,1.16 -1.09,0.76 -1.96,2.12 -2.63,4.05l0 0zm14.51 8.75c-1.38,0.46 -3.57,1.01 -6.59,1.65 -2.99,0.64 -4.96,1.27 -5.89,1.87 -1.41,1.01 -2.12,2.27 -2.12,3.81 0,1.52 0.56,2.83 1.7,3.92 1.13,1.11 2.57,1.65 4.31,1.65 1.94,0 3.81,-0.64 5.59,-1.92 1.3,-0.98 2.17,-2.17 2.58,-3.59 0.27,-0.92 0.42,-2.68 0.42,-5.27l0 -2.16 0 0.02zm-33.49 19.55l-10.8 0 0 -20.85c0,-4.41 -0.23,-7.27 -0.7,-8.55 -0.48,-1.3 -1.22,-2.3 -2.27,-3.02 -1.05,-0.72 -2.31,-1.08 -3.78,-1.08 -1.89,0 -3.59,0.52 -5.08,1.54 -1.51,1.03 -2.53,2.39 -3.09,4.07 -0.56,1.7 -0.84,4.82 -0.84,9.39l0 18.5 -10.8 0 0 -40.91 10.01 0 0 6c3.59,-4.58 8.09,-6.87 13.54,-6.87 2.39,0 4.58,0.44 6.57,1.29 1.99,0.86 3.5,1.95 4.51,3.28 1.03,1.34 1.74,2.85 2.13,4.55 0.41,1.69 0.6,4.11 0.6,7.27l0 25.4 0.02 -0.01zm-87.88 -20.96c0,-3.61 0.88,-7.08 2.65,-10.44 1.78,-3.37 4.28,-5.94 7.53,-7.71 3.25,-1.78 6.86,-2.67 10.86,-2.67 6.19,0 11.25,2.01 15.2,6.03 3.95,4.03 5.93,9.1 5.93,15.25 0,6.2 -2,11.34 -5.97,15.41 -3.99,4.07 -9.02,6.11 -15.07,6.11 -3.74,0 -7.32,-0.85 -10.72,-2.54 -3.39,-1.69 -5.97,-4.18 -7.75,-7.46 -1.77,-3.27 -2.65,-7.27 -2.65,-11.97l0 -0zm11.11 0.57c0,4.06 0.96,7.17 2.88,9.33 1.93,2.17 4.29,3.25 7.12,3.25 2.81,0 5.18,-1.08 7.08,-3.25 1.9,-2.16 2.87,-5.3 2.87,-9.4 0,-4 -0.96,-7.09 -2.87,-9.25 -1.9,-2.17 -4.27,-3.25 -7.08,-3.25 -2.83,0 -5.19,1.08 -7.12,3.25 -1.92,2.16 -2.88,5.27 -2.88,9.33l0 -0zm-56.3 8.87l10.88 -1.65c0.46,2.09 1.39,3.68 2.81,4.76 1.41,1.09 3.39,1.63 5.93,1.63 2.8,0 4.9,-0.52 6.32,-1.54 0.94,-0.72 1.42,-1.69 1.42,-2.9 0,-0.82 -0.26,-1.5 -0.78,-2.04 -0.54,-0.52 -1.75,-1 -3.61,-1.43 -8.73,-1.93 -14.27,-3.69 -16.6,-5.29 -3.25,-2.22 -4.86,-5.3 -4.86,-9.22 0,-3.56 1.41,-6.55 4.21,-8.96 2.8,-2.42 7.13,-3.62 13.01,-3.62 5.6,0 9.76,0.92 12.48,2.75 2.72,1.84 4.59,4.55 5.62,8.13l-10.17 1.89c-0.44,-1.6 -1.27,-2.84 -2.5,-3.69 -1.22,-0.85 -2.96,-1.27 -5.24,-1.27 -2.87,0 -4.92,0.4 -6.16,1.2 -0.83,0.56 -1.23,1.3 -1.23,2.2 0,0.78 0.35,1.43 1.08,1.97 0.98,0.72 4.36,1.74 10.14,3.05 5.78,1.31 9.81,2.91 12.1,4.82 2.27,1.91 3.4,4.62 3.4,8.05 0,3.74 -1.56,6.98 -4.7,9.67 -3.13,2.69 -7.76,4.04 -13.91,4.04 -5.57,0 -9.99,-1.13 -13.24,-3.37 -3.25,-2.24 -5.37,-5.3 -6.37,-9.16l-0.03 -0.02zm-16.49 11.51l-10.8 0 0 -40.91 10.02 0 0 5.81c1.72,-2.75 3.27,-4.55 4.65,-5.4 1.38,-0.85 2.94,-1.27 4.69,-1.27 2.47,0 4.85,0.68 7.13,2.04l-3.35 9.43c-1.83,-1.19 -3.53,-1.77 -5.08,-1.77 -1.52,0 -2.81,0.42 -3.87,1.24 -1.05,0.84 -1.87,2.34 -2.49,4.52 -0.6,2.18 -0.9,6.75 -0.9,13.7l0 12.61 -0 0zm-30.52 -12.93l10.8 1.82c-1.38,3.95 -3.57,6.97 -6.56,9.03 -2.99,2.06 -6.74,3.1 -11.22,3.1 -7.11,0 -12.38,-2.32 -15.78,-6.98 -2.69,-3.73 -4.04,-8.43 -4.04,-14.13 0,-6.78 1.77,-12.1 5.3,-15.93 3.54,-3.85 8.01,-5.77 13.43,-5.77 6.07,0 10.87,2.01 14.39,6.03 3.51,4.02 5.19,10.18 5.03,18.49l-27.04 0c0.08,3.21 0.94,5.7 2.61,7.49 1.65,1.79 3.73,2.68 6.2,2.68 1.69,0 3.11,-0.46 4.26,-1.38 1.16,-0.92 2.02,-2.4 2.61,-4.45l-0 -0.01zm0.63 -10.96c-0.08,-3.14 -0.88,-5.53 -2.42,-7.16 -1.54,-1.64 -3.4,-2.46 -5.6,-2.46 -2.35,0 -4.29,0.86 -5.83,2.58 -1.54,1.72 -2.28,4.07 -2.26,7.03l16.12 0 -0 0zm-62.1 2.8c0,4.62 0.9,8.01 2.73,10.22 1.82,2.2 4.03,3.29 6.63,3.29 2.51,0 4.59,-1.01 6.27,-3.03 1.67,-2.02 2.5,-5.33 2.5,-9.95 0,-4.31 -0.85,-7.5 -2.58,-9.59 -1.71,-2.09 -3.84,-3.13 -6.37,-3.13 -2.64,0 -4.84,1.02 -6.57,3.07 -1.75,2.05 -2.61,5.08 -2.61,9.1l0 0.01z"/>
  <g id="_1602261152416">
   <path class="fil2" d="M87.75 78.48c2.64,1.6 4.4,1.35 5.31,4.98 0.75,2.99 0.45,6.5 0.68,9.65 0.36,4.88 -1.77,2.31 -0.85,8.53 0.49,3.36 1.55,5.14 4.74,5.43 0.56,3.99 1.3,5.28 4.01,7.76 2.26,2.08 1.23,6.32 13.17,6.86 12.91,0.57 12.2,-5.03 13.23,-6.35 1.11,-1.43 4.17,-2.55 4.51,-8.02 3.99,-0.71 3.39,-1.5 4.71,-5.52 1.92,-5.87 -1.05,-5.6 -2.22,-6.57 7.43,-6.93 5.18,-22.42 -4.4,-27 -1.94,-0.92 -3.54,-0.72 -4.9,-1.98 -7.99,-7.41 -14.66,-8 -24.28,-1.54 -3.57,2.4 -11.61,9.66 -13.72,13.77l-0.01 0z"/>
   <path class="fil2" d="M65.39 148.24c-0.18,1.89 -0.18,0.59 0.48,1.06 6.95,0 58.89,0.54 60.82,-0.23 -1.11,-6.2 -4.61,-10.5 1.09,-20.69 0.68,-1.21 0.89,-1.57 1.77,-2.53l2.05 -2.46 -3.06 -1.56 -2.26 2.46c-6.11,5.19 -21.41,4.82 -24.68,-2.58 -5.73,2.62 -3.62,2.45 -11.57,4.09 -4.34,0.89 -9.08,1.5 -13.12,2.77 -8.45,2.66 -11.09,11.53 -11.5,19.67l0 0z"/>
   <path class="fil2" d="M143.64 126.87c7.41,-1.66 13.78,4 15.03,9.85 3.65,16.99 -21.87,22.02 -25.22,5.54 -1.68,-8.24 3.94,-13.99 10.19,-15.39zm18.36 14.78l0 -4.69c-1.86,-3.66 -0.23,-4.29 -5.6,-9.52 -8.99,-8.74 -26.27,-2.14 -26.21,11.99 0.03,8.57 6.58,15.4 14.64,15.95 6.73,0.46 12.12,-2.8 15.14,-8.13 1.29,-2.29 1.2,-3.77 2.05,-5.59l-0.01 -0.01z"/>
   <path class="fil2" d="M149.89 145.23l-1.67 -0.26 -0.02 -7.27 -6.37 0.3c0.47,1.71 1.54,0.44 1.4,4.45 -0.17,4.73 -1.19,0.34 -1.24,4.58l8.02 0.17 -0.11 -1.97 -0.01 0z"/>
   <path class="fil2" d="M65.01 149.73l62.19 0 -0.52 -0.66c-1.92,0.78 -53.87,0.23 -60.82,0.23 -0.66,-0.47 -0.65,0.84 -0.48,-1.06l-0.39 0 0 1.49 0.01 0z"/>
   <path class="fil2" d="M143.53 132.43c-0.49,5.23 4.19,3.27 4.92,1.56 0.6,-1.43 -0.07,-2.59 -1.47,-2.81 -1.62,-0.25 -2.79,0.69 -3.45,1.25l0 -0.01z"/>
   <path class="fil2" d="M149.89 145.23l-1.28 -1.08 0.02 -5.17c-0.25,-2.23 0.11,-0.39 -0.44,-1.28l0.02 7.27 1.67 0.26 0.01 -0z"/>
  </g>
 </g>
</svg>
