<?xml version="1.0" encoding="UTF-8"?>
<!DOCTYPE svg PUBLIC "-//W3C//DTD SVG 1.1//EN" "http://www.w3.org/Graphics/SVG/1.1/DTD/svg11.dtd">
<!-- Creator: CorelDRAW 2021 (64-Bit) -->
<svg xmlns="http://www.w3.org/2000/svg" xml:space="preserve" width="2.33106in" height="0.462102in" version="1.1" style="shape-rendering:geometricPrecision; text-rendering:geometricPrecision; image-rendering:optimizeQuality; fill-rule:evenodd; clip-rule:evenodd"
viewBox="0 0 1173.03 232.54"
 xmlns:xlink="http://www.w3.org/1999/xlink"
 xmlns:xodm="http://www.corel.com/coreldraw/odm/2003">
 <defs>
  <style type="text/css">
   <![CDATA[
    .fil1 {fill:#373435}
    .fil2 {fill:#F58634}
    .fil0 {fill:#4C4C4D}
   ]]>
  </style>
 </defs>
 <g id="Layer_x0020_1">
  <metadata id="CorelCorpID_0Corel-Layer"/>
  <path class="fil0" d="M116.34 0c64.19,0 116.27,52.08 116.27,116.27 2.81,49.42 56.95,72.61 83.32,73.72l835.82 0c11.74,0 21.27,9.6 21.27,21.27l0 0c0,11.74 -9.6,21.27 -21.27,21.27l-1035.49 0c-64.19,0 -116.27,-52.08 -116.27,-116.27 0,-64.19 52.08,-116.27 116.27,-116.27l0.07 0zm0 42.55c40.7,0 73.72,33.02 73.72,73.72 0,40.7 -33.02,73.72 -73.72,73.72 -40.7,0 -73.72,-33.02 -73.72,-73.72 0,-40.7 33.02,-73.72 73.72,-73.72z"/>
  <path class="fil1" d="M303.68 101.94l10.39 0 0 6.18c1.35,-2.11 3.17,-3.81 5.46,-5.13 2.3,-1.3 4.86,-1.95 7.66,-1.95 4.88,0 9.03,1.92 12.44,5.76 3.41,3.83 5.11,9.18 5.11,16.03 0,7.05 -1.72,12.51 -5.15,16.42 -3.44,3.91 -7.6,5.85 -12.5,5.85 -2.33,0 -4.44,-0.46 -6.33,-1.39 -1.88,-0.92 -3.88,-2.5 -5.96,-4.75l0 21.07 -11.12 0 0 -58.1zm796.03 42.11l-11.12 0 0 -21.46c0,-4.54 -0.24,-7.48 -0.72,-8.8 -0.49,-1.34 -1.26,-2.37 -2.34,-3.11 -1.08,-0.74 -2.38,-1.11 -3.89,-1.11 -1.95,0 -3.69,0.53 -5.23,1.58 -1.56,1.06 -2.61,2.46 -3.18,4.19 -0.58,1.75 -0.87,4.96 -0.87,9.67l0 19.04 -11.12 0 0 -42.11 10.3 0 0 6.18c3.69,-4.72 8.33,-7.07 13.94,-7.07 2.46,0 4.72,0.45 6.76,1.33 2.05,0.89 3.6,2.01 4.64,3.38 1.06,1.38 1.79,2.93 2.19,4.68 0.42,1.74 0.62,4.23 0.62,7.48l0 26.14zm-90.46 -21.57c0,-3.71 0.91,-7.29 2.73,-10.75 1.83,-3.47 4.41,-6.11 7.75,-7.94 3.34,-1.83 7.06,-2.75 11.18,-2.75 6.37,0 11.58,2.07 15.65,6.21 4.07,4.15 6.1,9.37 6.1,15.7 0,6.38 -2.06,11.67 -6.15,15.86 -4.11,4.19 -9.28,6.29 -15.51,6.29 -3.85,0 -7.53,-0.88 -11.04,-2.62 -3.49,-1.74 -6.15,-4.3 -7.98,-7.68 -1.82,-3.37 -2.73,-7.48 -2.73,-12.32zm11.44 0.59c0,4.18 0.99,7.38 2.96,9.6 1.99,2.23 4.42,3.34 7.33,3.34 2.89,0 5.33,-1.11 7.29,-3.34 1.96,-2.22 2.95,-5.45 2.95,-9.68 0,-4.12 -0.99,-7.3 -2.95,-9.52 -1.96,-2.23 -4.4,-3.34 -7.29,-3.34 -2.91,0 -5.34,1.11 -7.33,3.34 -1.98,2.22 -2.96,5.42 -2.96,9.6zm-31.39 -26.82l0 -10.3 11.12 0 0 10.3 -11.12 0zm0 47.79l0 -42.11 11.12 0 0 42.11 -11.12 0zm-7.79 -42.11l0 8.84 -7.63 0 0 17.05c0,3.46 0.07,5.48 0.22,6.04 0.15,0.57 0.47,1.04 1,1.42 0.51,0.36 1.14,0.55 1.88,0.55 1.04,0 2.53,-0.35 4.49,-1.07l0.93 8.66c-2.58,1.11 -5.5,1.66 -8.78,1.66 -2,0 -3.8,-0.34 -5.41,-1.01 -1.61,-0.68 -2.79,-1.56 -3.53,-2.62 -0.76,-1.08 -1.27,-2.53 -1.57,-4.37 -0.23,-1.3 -0.35,-3.92 -0.35,-7.88l0 -18.43 -5.11 0 0 -8.84 5.11 0 0 -8.36 11.12 -6.57 0 14.93 7.63 0zm-56.08 12.98l-10.06 -1.79c1.14,-4.11 3.1,-7.15 5.87,-9.13 2.77,-1.97 6.9,-2.96 12.36,-2.96 4.96,0 8.67,0.58 11.1,1.76 2.42,1.18 4.14,2.66 5.13,4.48 0.99,1.81 1.49,5.13 1.49,9.97l-0.16 12.98c0,3.69 0.18,6.42 0.53,8.18 0.35,1.76 1.01,3.64 1.99,5.64l-11.04 0c-0.28,-0.73 -0.65,-1.81 -1.07,-3.25 -0.18,-0.66 -0.31,-1.1 -0.39,-1.3 -1.89,1.87 -3.92,3.26 -6.09,4.19 -2.16,0.93 -4.46,1.4 -6.91,1.4 -4.31,0 -7.72,-1.17 -10.21,-3.53 -2.49,-2.34 -3.73,-5.32 -3.73,-8.91 0,-2.37 0.57,-4.49 1.7,-6.36 1.14,-1.85 2.72,-3.28 4.77,-4.27 2.04,-0.99 4.99,-1.85 8.84,-2.6 5.19,-0.97 8.8,-1.89 10.81,-2.73l0 -1.12c0,-2.16 -0.53,-3.7 -1.58,-4.64 -1.07,-0.92 -3.07,-1.38 -6,-1.38 -1.99,0 -3.53,0.39 -4.64,1.19 -1.12,0.78 -2.02,2.18 -2.71,4.17zm14.93 9.01c-1.42,0.47 -3.68,1.04 -6.78,1.7 -3.08,0.66 -5.11,1.31 -6.06,1.93 -1.45,1.04 -2.18,2.34 -2.18,3.92 0,1.57 0.58,2.91 1.75,4.04 1.16,1.14 2.64,1.7 4.44,1.7 2,0 3.92,-0.66 5.75,-1.98 1.34,-1.01 2.23,-2.23 2.65,-3.69 0.28,-0.95 0.43,-2.76 0.43,-5.42l0 -2.22zm-96.17 -21.99l10.22 0 0 5.75c3.67,-4.42 8.03,-6.64 13.1,-6.64 2.69,0 5.03,0.55 7.01,1.66 1.99,1.11 3.61,2.79 4.87,5.03 1.85,-2.24 3.86,-3.92 5.99,-5.03 2.14,-1.11 4.42,-1.66 6.86,-1.66 3.08,0 5.69,0.62 7.84,1.88 2.14,1.26 3.73,3.1 4.79,5.53 0.77,1.79 1.15,4.69 1.15,8.71l0 26.88 -11.12 0 0 -24.03c0,-4.18 -0.38,-6.87 -1.15,-8.07 -1.03,-1.58 -2.63,-2.38 -4.76,-2.38 -1.56,0 -3.03,0.47 -4.41,1.42 -1.37,0.96 -2.37,2.35 -2.98,4.18 -0.61,1.84 -0.91,4.73 -0.91,8.7l0 20.19 -11.11 0 0 -23.05c0,-4.08 -0.2,-6.73 -0.6,-7.91 -0.39,-1.19 -1,-2.08 -1.84,-2.66 -0.83,-0.58 -1.96,-0.87 -3.38,-0.87 -1.72,0 -3.26,0.46 -4.62,1.38 -1.38,0.93 -2.35,2.26 -2.95,4 -0.6,1.75 -0.89,4.64 -0.89,8.67l0 20.43 -11.12 0 0 -42.11zm-20.14 42.11l-11.12 0 0 -42.11 10.31 0 0 5.98c1.77,-2.83 3.37,-4.68 4.79,-5.56 1.42,-0.88 3.03,-1.31 4.83,-1.31 2.54,0 4.99,0.7 7.34,2.1l-3.45 9.71c-1.88,-1.22 -3.63,-1.82 -5.23,-1.82 -1.57,0 -2.89,0.43 -3.98,1.28 -1.08,0.87 -1.93,2.41 -2.56,4.65 -0.62,2.24 -0.93,6.95 -0.93,14.1l0 12.98zm-62.79 -21.57c0,-3.71 0.91,-7.29 2.73,-10.75 1.83,-3.47 4.41,-6.11 7.75,-7.94 3.34,-1.83 7.06,-2.75 11.18,-2.75 6.37,0 11.58,2.07 15.65,6.21 4.07,4.15 6.1,9.37 6.1,15.7 0,6.38 -2.06,11.67 -6.15,15.86 -4.11,4.19 -9.28,6.29 -15.51,6.29 -3.85,0 -7.53,-0.88 -11.04,-2.62 -3.49,-1.74 -6.15,-4.3 -7.98,-7.68 -1.82,-3.37 -2.73,-7.48 -2.73,-12.32zm11.44 0.59c0,4.18 0.99,7.38 2.96,9.6 1.99,2.23 4.42,3.34 7.33,3.34 2.89,0 5.33,-1.11 7.29,-3.34 1.96,-2.22 2.95,-5.45 2.95,-9.68 0,-4.12 -0.99,-7.3 -2.95,-9.52 -1.96,-2.23 -4.4,-3.34 -7.29,-3.34 -2.91,0 -5.34,1.11 -7.33,3.34 -1.98,2.22 -2.96,5.42 -2.96,9.6zm-40.73 -21.14l6.17 0 0 -3.18c0,-3.54 0.38,-6.2 1.14,-7.94 0.76,-1.76 2.15,-3.18 4.18,-4.27 2.04,-1.1 4.61,-1.65 7.72,-1.65 3.18,0 6.3,0.47 9.36,1.42l-1.42 7.73c-1.81,-0.42 -3.56,-0.64 -5.23,-0.64 -1.65,0 -2.83,0.38 -3.54,1.14 -0.72,0.76 -1.08,2.22 -1.08,4.38l0 3 8.36 0 0 8.76 -8.36 0 0 33.35 -11.12 0 0 -33.35 -6.17 0 0 -8.76zm-6.4 42.11l-11.12 0 0 -21.46c0,-4.54 -0.24,-7.48 -0.72,-8.8 -0.49,-1.34 -1.26,-2.37 -2.34,-3.11 -1.08,-0.74 -2.38,-1.11 -3.89,-1.11 -1.95,0 -3.69,0.53 -5.23,1.58 -1.56,1.06 -2.61,2.46 -3.18,4.19 -0.58,1.75 -0.87,4.96 -0.87,9.67l0 19.04 -11.12 0 0 -42.11 10.3 0 0 6.18c3.69,-4.72 8.33,-7.07 13.94,-7.07 2.46,0 4.72,0.45 6.76,1.33 2.05,0.89 3.6,2.01 4.64,3.38 1.06,1.38 1.79,2.93 2.19,4.68 0.42,1.74 0.62,4.23 0.62,7.48l0 26.14zm-60.84 -47.79l0 -10.3 11.12 0 0 10.3 -11.12 0zm0 47.79l0 -42.11 11.12 0 0 42.11 -11.12 0zm-45.09 0l0 -58.1 11.12 0 0 58.1 -11.12 0zm-36.85 -29.13l-10.06 -1.79c1.14,-4.11 3.1,-7.15 5.87,-9.13 2.77,-1.97 6.9,-2.96 12.36,-2.96 4.96,0 8.67,0.58 11.1,1.76 2.42,1.18 4.14,2.66 5.13,4.48 0.99,1.81 1.49,5.13 1.49,9.97l-0.16 12.98c0,3.69 0.18,6.42 0.53,8.18 0.35,1.76 1.01,3.64 1.99,5.64l-11.04 0c-0.28,-0.73 -0.65,-1.81 -1.07,-3.25 -0.18,-0.66 -0.31,-1.1 -0.39,-1.3 -1.89,1.87 -3.92,3.26 -6.09,4.19 -2.16,0.93 -4.46,1.4 -6.91,1.4 -4.31,0 -7.72,-1.17 -10.21,-3.53 -2.49,-2.34 -3.73,-5.32 -3.73,-8.91 0,-2.37 0.57,-4.49 1.7,-6.36 1.14,-1.85 2.72,-3.28 4.77,-4.27 2.04,-0.99 4.99,-1.85 8.84,-2.6 5.19,-0.97 8.8,-1.89 10.81,-2.73l0 -1.12c0,-2.16 -0.53,-3.7 -1.58,-4.64 -1.07,-0.92 -3.07,-1.38 -6,-1.38 -1.99,0 -3.53,0.39 -4.64,1.19 -1.12,0.78 -2.02,2.18 -2.71,4.17zm14.93 9.01c-1.42,0.47 -3.68,1.04 -6.78,1.7 -3.08,0.66 -5.11,1.31 -6.06,1.93 -1.45,1.04 -2.18,2.34 -2.18,3.92 0,1.57 0.58,2.91 1.75,4.04 1.16,1.14 2.64,1.7 4.44,1.7 2,0 3.92,-0.66 5.75,-1.98 1.34,-1.01 2.23,-2.23 2.65,-3.69 0.28,-0.95 0.43,-2.76 0.43,-5.42l0 -2.22zm-34.47 20.12l-11.12 0 0 -21.46c0,-4.54 -0.24,-7.48 -0.72,-8.8 -0.49,-1.34 -1.26,-2.37 -2.34,-3.11 -1.08,-0.74 -2.38,-1.11 -3.89,-1.11 -1.95,0 -3.69,0.53 -5.23,1.58 -1.56,1.06 -2.61,2.46 -3.18,4.19 -0.58,1.75 -0.87,4.96 -0.87,9.67l0 19.04 -11.12 0 0 -42.11 10.3 0 0 6.18c3.69,-4.72 8.33,-7.07 13.94,-7.07 2.46,0 4.72,0.45 6.76,1.33 2.05,0.89 3.6,2.01 4.64,3.38 1.06,1.38 1.79,2.93 2.19,4.68 0.42,1.74 0.62,4.23 0.62,7.48l0 26.14zm-90.46 -21.57c0,-3.71 0.91,-7.29 2.73,-10.75 1.83,-3.47 4.41,-6.11 7.75,-7.94 3.34,-1.83 7.06,-2.75 11.18,-2.75 6.37,0 11.58,2.07 15.65,6.21 4.07,4.15 6.1,9.37 6.1,15.7 0,6.38 -2.06,11.67 -6.15,15.86 -4.11,4.19 -9.28,6.29 -15.51,6.29 -3.85,0 -7.53,-0.88 -11.04,-2.62 -3.49,-1.74 -6.15,-4.3 -7.98,-7.68 -1.82,-3.37 -2.73,-7.48 -2.73,-12.32zm11.44 0.59c0,4.18 0.99,7.38 2.96,9.6 1.99,2.23 4.42,3.34 7.33,3.34 2.89,0 5.33,-1.11 7.29,-3.34 1.96,-2.22 2.95,-5.45 2.95,-9.68 0,-4.12 -0.99,-7.3 -2.95,-9.52 -1.96,-2.23 -4.4,-3.34 -7.29,-3.34 -2.91,0 -5.34,1.11 -7.33,3.34 -1.98,2.22 -2.96,5.42 -2.96,9.6zm-57.95 9.13l11.2 -1.7c0.47,2.15 1.43,3.79 2.89,4.9 1.45,1.12 3.49,1.68 6.1,1.68 2.88,0 5.04,-0.53 6.51,-1.58 0.97,-0.74 1.46,-1.74 1.46,-2.99 0,-0.84 -0.27,-1.54 -0.8,-2.1 -0.55,-0.53 -1.8,-1.03 -3.72,-1.47 -8.99,-1.99 -14.69,-3.8 -17.09,-5.44 -3.34,-2.28 -5,-5.45 -5,-9.49 0,-3.67 1.45,-6.74 4.33,-9.22 2.88,-2.49 7.34,-3.73 13.39,-3.73 5.76,0 10.05,0.95 12.85,2.83 2.8,1.89 4.73,4.68 5.79,8.37l-10.47 1.95c-0.45,-1.65 -1.31,-2.92 -2.57,-3.8 -1.26,-0.88 -3.05,-1.31 -5.39,-1.31 -2.95,0 -5.06,0.41 -6.34,1.23 -0.85,0.58 -1.27,1.34 -1.27,2.26 0,0.8 0.36,1.47 1.11,2.03 1.01,0.74 4.49,1.79 10.44,3.14 5.95,1.35 10.1,3 12.46,4.96 2.34,1.97 3.5,4.75 3.5,8.29 0,3.85 -1.61,7.18 -4.84,9.95 -3.22,2.77 -7.99,4.16 -14.32,4.16 -5.73,0 -10.28,-1.16 -13.63,-3.47 -3.34,-2.31 -5.53,-5.45 -6.56,-9.43zm-16.97 11.85l-11.12 0 0 -42.11 10.31 0 0 5.98c1.77,-2.83 3.37,-4.68 4.79,-5.56 1.42,-0.88 3.03,-1.31 4.83,-1.31 2.54,0 4.99,0.7 7.34,2.1l-3.45 9.71c-1.88,-1.22 -3.63,-1.82 -5.23,-1.82 -1.57,0 -2.89,0.43 -3.98,1.28 -1.08,0.87 -1.93,2.41 -2.56,4.65 -0.62,2.24 -0.93,6.95 -0.93,14.1l0 12.98zm-31.41 -13.31l11.12 1.87c-1.42,4.07 -3.68,7.17 -6.75,9.3 -3.08,2.12 -6.94,3.19 -11.55,3.19 -7.32,0 -12.74,-2.39 -16.24,-7.18 -2.77,-3.84 -4.16,-8.68 -4.16,-14.54 0,-6.98 1.82,-12.46 5.46,-16.4 3.64,-3.96 8.25,-5.94 13.82,-5.94 6.25,0 11.19,2.07 14.81,6.21 3.61,4.14 5.34,10.48 5.18,19.03l-27.83 0c0.08,3.3 0.97,5.87 2.69,7.71 1.7,1.84 3.84,2.76 6.38,2.76 1.74,0 3.2,-0.47 4.38,-1.42 1.19,-0.95 2.08,-2.47 2.69,-4.58zm0.65 -11.28c-0.08,-3.23 -0.91,-5.69 -2.49,-7.37 -1.58,-1.69 -3.5,-2.53 -5.77,-2.53 -2.42,0 -4.42,0.89 -6,2.66 -1.58,1.77 -2.35,4.19 -2.33,7.24l16.59 0zm-63.92 2.88c0,4.75 0.93,8.25 2.81,10.52 1.87,2.26 4.15,3.39 6.83,3.39 2.58,0 4.73,-1.04 6.45,-3.12 1.72,-2.08 2.57,-5.49 2.57,-10.24 0,-4.44 -0.88,-7.72 -2.65,-9.87 -1.76,-2.15 -3.95,-3.22 -6.56,-3.22 -2.72,0 -4.98,1.05 -6.76,3.16 -1.8,2.11 -2.69,5.23 -2.69,9.37z"/>
  <g id="_1602261152416">
   <path class="fil2" d="M90.31 80.77c2.72,1.65 4.53,1.39 5.47,5.13 0.77,3.08 0.46,6.69 0.7,9.93 0.37,5.02 -1.82,2.38 -0.88,8.78 0.51,3.46 1.59,5.29 4.88,5.59 0.58,4.11 1.34,5.43 4.13,7.99 2.33,2.14 1.27,6.51 13.56,7.06 13.29,0.59 12.56,-5.18 13.62,-6.54 1.14,-1.47 4.29,-2.63 4.64,-8.26 4.11,-0.73 3.49,-1.54 4.85,-5.68 1.98,-6.04 -1.08,-5.76 -2.28,-6.76 7.65,-7.13 5.33,-23.08 -4.53,-27.79 -2,-0.95 -3.64,-0.74 -5.04,-2.04 -8.22,-7.63 -15.09,-8.23 -24.99,-1.58 -3.68,2.47 -11.95,9.94 -14.12,14.17z"/>
   <path class="fil2" d="M67.3 152.58c-0.19,1.95 -0.19,0.61 0.49,1.09 7.15,0 60.62,0.56 62.6,-0.24 -1.14,-6.38 -4.74,-10.81 1.12,-21.3 0.7,-1.25 0.92,-1.62 1.82,-2.6l2.11 -2.53 -3.15 -1.61 -2.33 2.53c-6.29,5.34 -22.04,4.96 -25.4,-2.65 -5.9,2.7 -3.73,2.52 -11.91,4.21 -4.47,0.92 -9.35,1.54 -13.51,2.85 -8.7,2.74 -11.42,11.87 -11.84,20.25z"/>
   <path class="fil2" d="M147.84 130.58c7.63,-1.71 14.18,4.12 15.47,10.14 3.76,17.49 -22.51,22.66 -25.96,5.7 -1.73,-8.48 4.06,-14.4 10.49,-15.84zm18.9 15.21l0 -4.83c-1.91,-3.77 -0.24,-4.42 -5.77,-9.8 -9.25,-9 -27.04,-2.2 -26.98,12.34 0.03,8.82 6.77,15.85 15.07,16.42 6.93,0.47 12.48,-2.88 15.58,-8.37 1.33,-2.36 1.23,-3.88 2.11,-5.75z"/>
   <path class="fil2" d="M154.27 149.48l-1.72 -0.27 -0.02 -7.48 -6.56 0.31c0.48,1.76 1.58,0.45 1.44,4.58 -0.17,4.87 -1.22,0.35 -1.28,4.72l8.26 0.17 -0.11 -2.03z"/>
   <path class="fil2" d="M66.9 154.11l64.01 0 -0.53 -0.68c-1.98,0.8 -55.45,0.24 -62.6,0.24 -0.68,-0.48 -0.67,0.86 -0.49,-1.09l-0.4 0 0 1.53z"/>
   <path class="fil2" d="M147.73 136.3c-0.51,5.38 4.31,3.37 5.06,1.61 0.62,-1.47 -0.07,-2.67 -1.51,-2.89 -1.67,-0.26 -2.87,0.71 -3.55,1.29z"/>
   <path class="fil2" d="M154.27 149.48l-1.32 -1.11 0.02 -5.32c-0.26,-2.29 0.11,-0.4 -0.45,-1.32l0.02 7.48 1.72 0.27z"/>
  </g>
 </g>
</svg>
