<?xml version="1.0" encoding="UTF-8"?>
<!DOCTYPE svg PUBLIC "-//W3C//DTD SVG 1.1//EN" "http://www.w3.org/Graphics/SVG/1.1/DTD/svg11.dtd">
<!-- Creator: CorelDRAW 2021 (64-Bit) -->
<svg xmlns="http://www.w3.org/2000/svg" xml:space="preserve" width="1.1419in" height="0.462102in" version="1.1" style="shape-rendering:geometricPrecision; text-rendering:geometricPrecision; image-rendering:optimizeQuality; fill-rule:evenodd; clip-rule:evenodd"
viewBox="0 0 65635.81 26561.45"
 xmlns:xlink="http://www.w3.org/1999/xlink"
 xmlns:xodm="http://www.corel.com/coreldraw/odm/2003">
 <defs>
  <style type="text/css">
   <![CDATA[
    .fil1 {fill:#373435}
    .fil0 {fill:#4B4B4D}
   ]]>
  </style>
 </defs>
 <g id="Layer_x0020_1">
  <metadata id="CorelCorpID_0Corel-Layer"/>
  <path class="fil0" d="M13289.1 0c7332.27,0 13280.73,5948.46 13280.73,13280.73 6.11,105.68 14.48,209.78 24.67,313.42 -58.84,-103.42 -117.22,-207.51 -174.93,-312.97 -528.86,7179.06 -4294.9,11605.9 -11298.13,13280.27l-1840.7 0c-7332.27,0 -13280.73,-5948.46 -13280.73,-13280.73 0,-7332.27 5948.46,-13280.73 13280.73,-13280.73l8.37 0zm0 4859.97c4649.06,0 8420.76,3771.48 8420.76,8420.76 0,4649.06 -3771.48,8420.76 -8420.76,8420.76 -4649.06,0 -8420.76,-3771.48 -8420.76,-8420.76 0,-4649.06 3771.48,-8420.76 8420.76,-8420.76z"/>
  <path class="fil1" d="M8403.79 15744.43c-16.97,219.28 -59.06,556.92 -118.13,742.48 -42.09,135.1 -33.72,244.63 67.44,312.29 33.72,25.35 92.78,59.06 135.1,76.04 42.09,25.35 92.78,50.69 126.5,84.41 -379.73,480.88 -76.04,438.79 109.75,717.14 261.6,379.73 -135.1,1358.46 1080.12,1333.12 388.1,-8.37 776.2,-25.35 1164.3,-59.06 379.73,-33.72 1214.99,-92.78 1552.4,-253.23 76.04,-42.09 118.13,-59.06 194.16,-109.75 523.2,-371.35 784.8,-1004.08 1004.08,-1729.59 50.69,-151.85 92.78,-303.69 135.1,-464.14 50.69,-194.16 8.37,-346.01 -185.56,-371.35 -219.28,-25.35 -244.63,126.5 -295.32,295.32 -194.16,683.42 -480.88,1687.5 -1080.12,1957.47 -379.73,168.82 -1679.13,236.25 -2176.98,253.23 -438.79,16.97 -767.83,118.13 -809.92,-371.35 -16.97,-219.28 0,-320.66 -84.41,-523.2 -33.72,-92.78 -109.75,-210.91 -168.82,-286.95 -25.35,-33.72 -50.69,-50.69 -67.44,-84.41 25.35,-42.09 50.69,-59.06 84.41,-92.78 50.69,-42.09 67.44,-50.69 101.16,-84.41 118.13,-101.16 126.5,-320.66 -160.22,-455.54 -67.44,-33.72 -202.54,-92.78 -244.63,-135.1l101.16 -666.67c185.56,0 337.41,-92.78 286.95,-295.32 -50.69,-219.28 -286.95,-168.82 -430.42,-185.56 -253.23,-42.09 -776.2,-194.16 -911.3,-320.66 -135.1,-135.1 379.73,-826.89 480.88,-987.11l354.38 -573.66c691.79,-1223.36 -151.85,-961.99 -151.85,-1738.19 0,-514.6 413.45,-1383.81 658.07,-1805.63 151.85,-261.6 354.38,-497.85 531.57,-691.79 50.69,-59.06 92.78,-92.78 151.85,-143.47 1662.16,-1561 4708.12,-1231.96 6412.59,-210.91 312.29,185.56 599.01,413.45 852.24,666.67 33.72,33.72 50.69,50.69 76.04,84.41 33.72,33.72 50.69,42.09 76.04,76.04l135.1 168.82c33.72,33.72 33.72,50.69 67.44,92.78 33.72,42.09 42.09,50.69 67.44,92.78 329.04,506.23 615.98,1071.52 607.61,1856.32 -8.37,928.05 -295.32,1839.35 -835.26,2531.36 -320.66,405.07 -683.42,742.48 -1122.21,1029.43 -497.85,320.66 -523.2,160.22 -497.85,725.74 33.72,835.26 227.88,1822.6 514.6,2565.08 42.09,101.16 143.47,354.38 194.16,413.45 109.75,126.5 346.01,42.09 396.47,-84.41 50.69,-126.5 -84.41,-346.01 -135.1,-464.14 -303.69,-750.86 -480.88,-1738.19 -506.23,-2573.46 101.16,-42.09 227.88,-126.5 312.29,-185.56l295.32 -210.91c227.88,-177.19 337.41,-261.6 539.95,-480.88 33.72,-42.09 84.41,-84.41 118.13,-118.13 33.72,-42.09 84.41,-92.78 118.13,-143.47l219.28 -278.35c759.45,-1105.24 1130.58,-2649.49 624.36,-3965.64 -227.88,-607.61 -599.01,-1122.21 -1012.46,-1501.94 -185.56,-168.82 -329.04,-303.69 -548.55,-455.54 -953.39,-675.05 -2126.29,-1037.8 -3467.78,-1113.84 -1282.43,-67.44 -2565.08,177.19 -3417.32,843.86 -244.63,194.16 -455.54,346.01 -666.67,599.01l-118.13 135.1c-312.29,346.01 -641.33,936.65 -843.86,1434.27 -177.19,455.54 -421.82,1130.58 -194.16,1645.41 50.69,118.13 168.82,278.35 244.63,371.35 25.35,25.35 42.09,42.09 59.06,67.44 42.09,67.44 25.35,109.75 0,185.56 -329.04,953.39 -1721.22,2050.26 -776.2,2640.89 177.19,109.75 514.6,227.88 742.48,269.97l34.17 -51.14z"/>
  <path class="fil1" d="M11593.23 12124.8c-253.23,16.97 -573.66,8.37 -835.26,0 -126.5,0 -227.88,-33.72 -320.66,-92.78 -573.66,-413.45 -346.01,-1113.84 227.88,-1198.25 126.5,-16.97 253.23,-25.35 227.88,-177.19 -16.97,-92.78 -329.04,-539.95 135.1,-894.33 464.14,-354.38 767.83,168.82 936.65,8.37 50.69,-50.69 84.41,-202.54 118.13,-278.35 253.23,-506.23 801.55,-455.54 1037.8,-118.13 67.44,92.78 84.41,160.22 126.5,286.95 42.09,126.5 151.85,168.82 253.23,67.44 118.13,-118.13 244.63,-286.95 523.2,-295.32 269.97,-8.37 455.54,135.1 548.55,286.95 143.47,236.25 42.09,590.64 303.69,480.88 151.85,-67.44 337.41,-236.25 658.07,-92.78 160.22,67.44 320.66,244.63 362.76,455.54 67.44,346.01 -185.56,489.48 -177.19,632.73 8.37,210.91 312.29,67.44 556.92,278.35 362.76,312.29 261.6,894.33 -168.82,1046.17 -177.19,59.06 -160.22,8.37 -312.29,-33.72 -118.13,-33.72 -253.23,-25.35 -388.1,-25.35 -278.35,0 -556.92,-8.37 -835.26,-8.37 -497.85,-8.37 -1088.49,-33.72 -1375.21,278.35 -42.09,42.09 -59.06,84.41 -126.5,84.41 -118.13,8.37 -506.23,0 -590.64,-25.35 -472.51,-126.5 -556.92,-725.74 -151.85,-995.71 177.19,-118.13 489.48,-84.41 734.11,-84.41l1248.71 0c269.97,0 269.97,320.66 455.54,371.35 126.5,33.72 236.25,-33.72 278.35,-118.13 101.16,-210.91 -160.22,-472.51 -236.25,-523.2 16.97,-76.04 92.78,-151.85 135.1,-236.25 210.91,-472.51 -202.54,-615.98 -362.76,-405.07 -50.69,67.44 -109.75,430.42 -269.97,438.79 -523.2,42.09 -1628.44,-92.78 -2067.23,76.04 -236.25,92.78 -438.79,295.32 -539.95,531.57 -33.72,76.04 -59.06,219.28 -84.41,269.97l-25.8 8.83zm84.41 -2919.47c-244.63,-25.35 -346.01,-67.44 -599.01,16.97 -320.66,101.16 -573.66,337.41 -691.79,649.7 -92.78,227.88 -59.06,320.66 -59.06,565.29 -261.6,76.04 -514.6,337.41 -615.98,607.61 -126.5,346.01 -59.06,700.39 92.78,987.11 405.07,750.86 1130.58,556.92 1847.72,573.66 92.78,244.63 244.63,405.07 421.82,523.2 236.25,160.22 464.14,168.82 784.8,160.22 -16.97,210.91 -42.09,312.29 16.97,523.2 109.75,413.45 480.88,725.74 911.3,776.2 219.28,25.35 278.35,-8.37 455.54,118.13 101.16,67.44 185.56,168.82 227.88,329.04 42.09,185.56 84.41,860.61 160.22,953.39 92.78,126.5 286.95,135.1 388.1,8.37 84.41,-109.75 25.35,-320.66 0,-464.14 -42.09,-329.04 -59.06,-658.07 -219.28,-911.3 -371.35,-590.64 -911.3,-447.16 -1139.18,-548.55 -396.47,-177.19 -514.6,-750.86 -50.69,-1054.77 185.56,-126.5 776.2,-92.78 1046.17,-84.41 210.91,0 961.99,-25.35 1088.49,42.09 109.75,59.06 160.22,253.23 50.69,379.73 -101.16,109.75 -303.69,84.41 -480.88,84.41 -194.16,0 -379.73,0 -573.66,0 -194.16,0 -362.76,-33.72 -430.42,126.5 -67.44,168.82 33.72,320.66 185.56,346.01 151.85,16.97 396.47,0 556.92,0 371.35,0 725.74,59.06 987.11,-151.85 236.25,-185.56 329.04,-396.47 253.23,-809.92 371.35,-101.16 666.67,-539.95 683.42,-970.36 8.37,-244.63 -67.44,-472.51 -177.19,-641.33 -101.16,-143.47 -278.35,-329.04 -447.16,-371.35 42.09,-244.63 67.44,-379.73 -8.37,-615.98 -101.16,-337.41 -337.41,-582.26 -675.05,-708.76 -236.25,-84.41 -362.76,-67.44 -615.98,-42.09 -33.72,-118.13 -177.19,-295.32 -236.25,-354.38 -219.28,-210.91 -523.2,-329.04 -852.24,-303.69 -253.23,16.97 -312.29,92.78 -447.16,135.1 -50.69,-118.13 -244.63,-261.6 -379.73,-337.41 -168.82,-84.41 -371.35,-135.1 -590.64,-109.75 -447.16,42.09 -624.36,244.63 -860.61,556.92l-8.37 17.2z"/>
  <path class="fil1" d="M11711.35 10977.24c362.76,42.09 632.73,42.09 945.02,-202.54 101.16,-76.04 126.5,-126.5 202.54,-202.54 278.35,109.75 582.26,160.22 877.58,33.72 464.14,-185.56 261.6,-531.57 33.72,-523.2 -126.5,0 -472.51,278.35 -793.17,16.97 -67.44,-50.69 -210.91,-253.23 -337.41,-143.47 -59.06,59.06 -59.06,185.56 -185.56,346.01 -135.1,185.56 -455.54,312.29 -750.86,160.22 -92.78,-42.09 -261.6,-202.54 -354.38,-84.41 -50.69,59.06 -42.09,329.04 -84.41,447.16 -59.06,168.82 -160.22,194.16 -219.28,295.32 -84.41,143.47 -8.37,303.69 118.13,346.01 253.23,92.78 489.48,-303.69 556.92,-489.48l-8.83 0.23z"/>
  <path class="fil0" d="M38407.68 16470.16c0,421.82 -76.04,793.17 -236.25,1113.84 -160.22,320.66 -371.35,582.26 -641.33,801.55 -269.97,210.91 -590.64,371.35 -953.39,480.88 -362.76,109.75 -750.86,160.22 -1164.3,160.22 -278.35,0 -539.95,-25.35 -776.2,-67.44 -236.25,-50.69 -447.16,-101.16 -632.73,-168.82 -185.56,-67.44 -337.41,-135.1 -455.54,-202.54 -126.5,-76.04 -210.91,-135.1 -269.97,-185.56 -50.69,-59.06 -92.78,-135.1 -118.13,-236.25 -25.35,-101.16 -33.72,-244.63 -33.72,-438.79 0,-126.5 8.37,-236.25 16.97,-320.66 8.37,-84.41 25.35,-160.22 42.09,-210.91 16.97,-50.69 42.09,-92.78 76.04,-118.13 33.72,-25.35 67.44,-33.72 109.75,-33.72 59.06,0 143.47,33.72 244.63,101.16 109.75,67.44 244.63,143.47 405.07,227.88 168.82,84.41 362.76,160.22 599.01,227.88 227.88,67.44 497.85,101.16 801.55,101.16 202.54,0 379.73,-25.35 539.95,-67.44 160.22,-50.69 295.32,-118.13 405.07,-202.54 109.75,-84.41 194.16,-194.16 253.23,-320.66 59.06,-126.5 84.41,-269.97 84.41,-430.42 0,-185.56 -50.69,-337.41 -151.85,-472.51 -101.16,-135.1 -227.88,-244.63 -388.1,-346.01 -160.22,-101.16 -346.01,-194.16 -548.55,-286.95 -202.54,-92.78 -413.45,-185.56 -632.73,-286.95 -219.28,-101.16 -430.42,-210.91 -632.73,-337.41 -202.54,-126.5 -388.1,-278.35 -548.55,-455.54 -160.22,-177.19 -295.32,-388.1 -388.1,-624.36 -101.16,-244.63 -151.85,-531.57 -151.85,-868.98 0,-388.1 76.04,-725.74 210.91,-1021.05 143.47,-295.32 337.41,-531.57 582.26,-725.74 244.63,-194.16 531.57,-337.41 860.61,-430.42 329.04,-92.78 683.42,-143.47 1054.77,-143.47 185.56,0 379.73,16.97 573.66,42.09 194.16,25.35 371.35,67.44 539.95,118.13 168.82,50.69 312.29,109.75 438.79,168.82 126.5,67.44 210.91,118.13 253.23,160.22 42.09,42.09 67.44,76.04 84.41,101.16 16.97,33.72 25.35,67.44 42.09,118.13 8.37,50.69 16.97,109.75 25.35,177.19 8.37,76.04 8.37,160.22 8.37,269.97 0,118.13 0,219.28 -8.37,303.69 -8.37,84.41 -16.97,151.85 -33.72,202.54 -16.97,50.69 -33.72,92.78 -59.06,118.13 -25.35,25.35 -67.44,42.09 -109.75,42.09 -42.09,0 -118.13,-33.72 -219.28,-84.41 -101.16,-59.06 -219.28,-118.13 -371.35,-194.16 -143.47,-67.44 -312.29,-126.5 -506.23,-185.56 -194.16,-59.06 -396.47,-84.41 -632.73,-84.41 -177.19,0 -337.41,25.35 -464.14,67.44 -135.1,42.09 -244.63,101.16 -329.04,177.19 -92.78,76.04 -160.22,168.82 -202.54,278.35 -42.09,109.75 -67.44,219.28 -67.44,346.01 0,177.19 50.69,337.41 143.47,464.14 101.16,135.1 227.88,253.23 396.47,354.38 160.22,101.16 354.38,194.16 556.92,286.95 202.54,92.78 421.82,185.56 632.73,286.95 219.28,101.16 430.42,210.91 632.73,337.41 210.91,126.5 396.47,278.35 556.92,455.54 160.22,177.19 295.32,379.73 396.47,624.36 101.16,236.25 151.85,523.2 151.85,843.86l7.92 -7.47zm27228.13 0c0,421.82 -76.04,793.17 -236.25,1113.84 -160.22,320.66 -371.35,582.26 -641.33,801.55 -269.97,210.91 -590.64,371.35 -953.39,480.88 -362.76,109.75 -750.86,160.22 -1164.3,160.22 -278.35,0 -539.95,-25.35 -776.2,-67.44 -236.25,-50.69 -447.16,-101.16 -632.73,-168.82 -185.56,-67.44 -337.41,-135.1 -455.54,-202.54 -126.5,-76.04 -210.91,-135.1 -269.97,-185.56 -50.69,-59.06 -92.78,-135.1 -118.13,-236.25 -25.35,-101.16 -33.72,-244.63 -33.72,-438.79 0,-126.5 8.37,-236.25 16.97,-320.66 8.37,-84.41 25.35,-160.22 42.09,-210.91 16.97,-50.69 42.09,-92.78 76.04,-118.13 33.72,-25.35 67.44,-33.72 109.75,-33.72 59.06,0 143.47,33.72 244.63,101.16 109.75,67.44 244.63,143.47 405.07,227.88 168.82,84.41 362.76,160.22 599.01,227.88 227.88,67.44 497.85,101.16 801.55,101.16 202.54,0 379.73,-25.35 539.95,-67.44 160.22,-50.69 295.32,-118.13 405.07,-202.54 109.75,-84.41 194.16,-194.16 253.23,-320.66 59.06,-126.5 84.41,-269.97 84.41,-430.42 0,-185.56 -50.69,-337.41 -151.85,-472.51 -101.16,-135.1 -227.88,-244.63 -388.1,-346.01 -160.22,-101.16 -346.01,-194.16 -548.55,-286.95 -202.54,-92.78 -413.45,-185.56 -632.73,-286.95 -219.28,-101.16 -430.42,-210.91 -632.73,-337.41 -202.54,-126.5 -388.1,-278.35 -548.55,-455.54 -160.22,-177.19 -295.32,-388.1 -388.1,-624.36 -101.16,-244.63 -151.85,-531.57 -151.85,-868.98 0,-388.1 76.04,-725.74 210.91,-1021.05 143.47,-295.32 337.41,-531.57 582.26,-725.74 244.63,-194.16 531.57,-337.41 860.61,-430.42 329.04,-92.78 683.42,-143.47 1054.77,-143.47 185.56,0 379.73,16.97 573.66,42.09 194.16,25.35 371.35,67.44 539.95,118.13 168.82,50.69 312.29,109.75 438.79,168.82 126.5,67.44 210.91,118.13 253.23,160.22 42.09,42.09 67.44,76.04 84.41,101.16 16.97,33.72 25.35,67.44 42.09,118.13 8.37,50.69 16.97,109.75 25.35,177.19 8.37,76.04 8.37,160.22 8.37,269.97 0,118.13 0,219.28 -8.37,303.69 -8.37,84.41 -16.97,151.85 -33.72,202.54 -16.97,50.69 -33.72,92.78 -59.06,118.13 -25.35,25.35 -67.44,42.09 -109.75,42.09 -42.09,0 -118.13,-33.72 -219.28,-84.41 -101.16,-59.06 -219.28,-118.13 -371.35,-194.16 -143.47,-67.44 -312.29,-126.5 -506.23,-185.56 -194.16,-59.06 -396.47,-84.41 -632.73,-84.41 -177.19,0 -337.41,25.35 -464.14,67.44 -135.1,42.09 -244.63,101.16 -329.04,177.19 -92.78,76.04 -160.22,168.82 -202.54,278.35 -42.09,109.75 -67.44,219.28 -67.44,346.01 0,177.19 50.69,337.41 143.47,464.14 101.16,135.1 227.88,253.23 396.47,354.38 160.22,101.16 354.38,194.16 556.92,286.95 202.54,92.78 421.82,185.56 632.73,286.95 219.28,101.16 430.42,210.91 632.73,337.41 210.91,126.5 396.47,278.35 556.92,455.54 160.22,177.19 295.32,379.73 396.47,624.36 101.16,236.25 151.85,523.2 151.85,843.86l7.92 -7.47zm-5754.52 1738.19c0,126.5 -8.37,227.88 -16.97,312.29 -8.37,84.41 -25.35,151.85 -50.69,210.91 -25.35,59.06 -50.69,101.16 -76.04,118.13 -33.72,25.35 -67.44,42.09 -109.75,42.09l-3695.67 0c-135.1,0 -253.23,-42.09 -346.01,-118.13 -92.78,-84.41 -143.47,-210.91 -143.47,-396.47l0 -7332.27c0,-42.09 16.97,-76.04 42.09,-109.75 25.35,-33.72 76.04,-59.06 135.1,-84.41 59.06,-25.35 143.47,-33.72 253.23,-50.69 109.75,-16.97 236.25,-16.97 396.47,-16.97 160.22,0 295.32,8.37 396.47,16.97 101.16,16.97 185.56,25.35 253.23,50.69 59.06,25.35 109.75,50.69 135.1,84.41 25.35,33.72 42.09,76.04 42.09,109.75l0 6497 2531.36 0c42.09,0 76.04,8.37 109.75,33.72 33.72,25.35 59.06,59.06 76.04,109.75 25.35,50.69 33.72,118.13 50.69,202.54 8.37,84.41 16.97,185.56 16.97,312.29l0 8.15zm-5399.91 0c0,126.5 -8.37,227.88 -16.97,312.29 -8.37,84.41 -25.35,151.85 -50.69,210.91 -25.35,59.06 -50.69,101.16 -76.04,118.13 -33.72,25.35 -67.44,42.09 -109.75,42.09l-3695.67 0c-135.1,0 -253.23,-42.09 -346.01,-118.13 -92.78,-84.41 -143.47,-210.91 -143.47,-396.47l0 -7332.27c0,-42.09 16.97,-76.04 42.09,-109.75 25.35,-33.72 76.04,-59.06 135.1,-84.41 59.06,-25.35 143.47,-33.72 253.23,-50.69 109.75,-16.97 236.25,-16.97 396.47,-16.97 160.22,0 295.32,8.37 396.47,16.97 101.16,16.97 185.56,25.35 253.23,50.69 59.06,25.35 109.75,50.69 135.1,84.41 25.35,33.72 42.09,76.04 42.09,109.75l0 6497 2531.36 0c42.09,0 76.04,8.37 109.75,33.72 33.72,25.35 59.06,59.06 76.04,109.75 25.35,50.69 33.72,118.13 50.69,202.54 8.37,84.41 16.97,185.56 16.97,312.29l0 8.15zm-6193.31 463.91c0,42.09 -16.97,76.04 -42.09,109.75 -25.35,33.72 -76.04,59.06 -135.1,84.41 -59.06,16.97 -143.47,33.72 -253.23,50.69 -101.16,16.97 -236.25,16.97 -396.47,16.97 -160.22,0 -286.95,-8.37 -396.47,-16.97 -109.75,-16.97 -194.16,-33.72 -253.23,-50.69 -59.06,-25.35 -109.75,-50.69 -135.1,-84.41 -25.35,-33.72 -42.09,-76.04 -42.09,-109.75l0 -7627.59c0,-42.09 16.97,-76.04 42.09,-109.75 25.35,-33.72 76.04,-59.06 135.1,-84.41 67.44,-25.35 143.47,-33.72 253.23,-50.69 101.16,-16.97 236.25,-16.97 396.47,-16.97 160.22,0 295.32,8.37 396.47,16.97 101.16,16.97 185.56,25.35 253.23,50.69 59.06,25.35 109.75,50.69 135.1,84.41 25.35,33.72 42.09,76.04 42.09,109.75l0 7627.59zm-2742.05 -16.75c0,50.69 -8.37,84.41 -33.72,118.13 -25.35,33.72 -67.44,67.44 -135.1,84.41 -67.44,25.35 -151.85,42.09 -261.6,50.69 -109.75,16.97 -253.23,16.97 -421.82,16.97 -269.97,0 -464.14,-8.37 -582.26,-33.72 -118.13,-16.97 -202.54,-50.69 -253.23,-92.78 -50.69,-42.09 -92.78,-92.78 -118.13,-151.85l-2438.36 -3830.54 0 3830.54c0,42.09 -16.97,84.41 -42.09,118.13 -25.35,33.72 -67.44,59.06 -126.5,84.41 -59.06,25.35 -143.47,42.09 -253.23,50.69 -101.16,16.97 -236.25,16.97 -396.47,16.97 -160.22,0 -286.95,-8.37 -396.47,-16.97 -109.75,-16.97 -185.56,-33.72 -253.23,-50.69 -59.06,-25.35 -109.75,-50.69 -135.1,-84.41 -25.35,-33.72 -42.09,-76.04 -42.09,-118.13l0 -7602.24c0,-50.69 16.97,-84.41 42.09,-118.13 25.35,-33.72 76.04,-59.06 135.1,-84.41 59.06,-25.35 143.47,-33.72 253.23,-50.69 109.75,-16.97 236.25,-16.97 396.47,-16.97 160.22,0 295.32,8.37 396.47,16.97 101.16,16.97 185.56,25.35 253.23,50.69 59.06,25.35 109.75,50.69 126.5,84.41 25.35,33.72 42.09,76.04 42.09,118.13l0 3434.07 2362.55 -3434.07c33.72,-50.69 67.44,-101.16 109.75,-135.1 42.09,-33.72 92.78,-67.44 160.22,-84.41 67.44,-16.97 151.85,-33.72 253.23,-42.09 101.16,-8.37 236.25,-16.97 396.47,-16.97 168.82,0 303.69,8.37 413.45,16.97 109.75,16.97 194.16,33.72 261.6,50.69 67.44,25.35 109.75,50.69 135.1,84.41 25.35,33.72 42.09,67.44 42.09,109.75 0,67.44 -16.97,143.47 -59.06,219.28 -42.09,76.04 -109.75,194.16 -210.91,354.38l-2210.7 2902.49 2413.24 3644.98c92.78,168.82 143.47,286.95 168.82,337.41 16.97,59.06 25.35,101.16 25.35,135.1l-16.97 33.49z"/>
 </g>
</svg>
