<?xml version="1.0" encoding="UTF-8"?>
<!DOCTYPE svg PUBLIC "-//W3C//DTD SVG 1.1//EN" "http://www.w3.org/Graphics/SVG/1.1/DTD/svg11.dtd">
<!-- Creator: CorelDRAW 2021 (64-Bit) -->
<svg xmlns="http://www.w3.org/2000/svg" xml:space="preserve" width="3.02143in" height="0.462087in" version="1.1" style="shape-rendering:geometricPrecision; text-rendering:geometricPrecision; image-rendering:optimizeQuality; fill-rule:evenodd; clip-rule:evenodd"
viewBox="0 0 2399.71 367"
 xmlns:xlink="http://www.w3.org/1999/xlink"
 xmlns:xodm="http://www.corel.com/coreldraw/odm/2003">
 <defs>
  <style type="text/css">
   <![CDATA[
    .fil0 {fill:#373435}
   ]]>
  </style>
 </defs>
 <g id="Layer_x0020_1">
  <metadata id="CorelCorpID_0Corel-Layer"/>
  <g id="_2180122370272">
   <path class="fil0" d="M183.5 0c101.38,0 183.5,82.12 183.5,183.5 -7.31,99.2 -59.35,160.37 -156.11,183.5l-27.39 0c-101.38,0 -183.5,-82.12 -183.5,-183.5 0,-101.38 82.12,-183.5 183.5,-183.5zm0 67.23c64.24,0 116.27,52.03 116.27,116.27 0,64.24 -52.03,116.27 -116.27,116.27 -64.24,0 -116.27,-52.03 -116.27,-116.27 0,-64.24 52.03,-116.27 116.27,-116.27z"/>
   <path class="fil0" d="M116.04 217.58c-0.31,2.99 -0.77,7.67 -1.69,10.28 -0.61,1.84 -0.38,3.38 0.92,4.3 0.46,0.38 1.3,0.77 1.92,1.08 0.61,0.31 1.3,0.69 1.77,1.15 -5.22,6.6 -1.08,6.06 1.54,9.9 3.68,5.3 -1.84,18.8 14.89,18.42 5.37,-0.15 10.74,-0.38 16.04,-0.84 5.3,-0.38 16.73,-1.23 21.41,-3.53 1.08,-0.54 1.69,-0.84 2.61,-1.54 7.21,-5.07 10.82,-13.81 13.89,-23.87 0.69,-2.15 1.3,-4.22 1.92,-6.45 0.77,-2.61 0.15,-4.83 -2.53,-5.14 -2.99,-0.38 -3.38,1.77 -4.07,4.14 -2.76,9.52 -6.68,23.33 -14.97,27.02 -5.3,2.3 -23.18,3.22 -30.01,3.45 -6.06,0.23 -10.59,1.61 -11.13,-5.14 -0.23,-2.99 0,-4.45 -1.15,-7.21 -0.54,-1.3 -1.46,-2.92 -2.38,-3.99 -0.38,-0.46 -0.61,-0.69 -1,-1.15 0.38,-0.61 0.69,-0.84 1.23,-1.3 0.69,-0.61 0.92,-0.69 1.46,-1.15 1.69,-1.38 1.69,-4.45 -2.23,-6.37 -1,-0.46 -2.76,-1.23 -3.38,-1.92l1.38 -9.21c2.61,0 4.68,-1.3 3.99,-4.14 -0.69,-3.07 -3.91,-2.3 -5.91,-2.61 -3.45,-0.61 -10.74,-2.69 -12.59,-4.45 -1.84,-1.84 5.22,-11.44 6.6,-13.66l4.91 -7.98c9.59,-16.96 -2.07,-13.28 -2.07,-24.02 0,-7.06 5.68,-19.11 9.13,-24.94 2.15,-3.61 4.91,-6.83 7.29,-9.52 0.77,-0.84 1.3,-1.3 2.15,-1.99 22.95,-21.57 65.01,-17.04 88.57,-2.99 4.3,2.53 8.29,5.68 11.74,9.21 0.38,0.38 0.69,0.69 1.08,1.15 0.46,0.46 0.69,0.61 1.08,1.08l1.84 2.3c0.46,0.54 0.46,0.77 0.92,1.23 0.46,0.54 0.54,0.61 0.92,1.23 4.61,6.91 8.44,14.89 8.36,25.63 -0.15,12.89 -4.07,25.4 -11.51,34.92 -4.37,5.6 -9.52,10.28 -15.5,14.2 -6.91,4.45 -7.21,2.23 -6.91,10.05 0.46,11.59 3.15,25.17 7.14,35.38 0.54,1.38 1.99,4.91 2.69,5.68 1.54,1.69 4.76,0.61 5.45,-1.15 0.77,-1.77 -1.15,-4.83 -1.84,-6.45 -4.14,-10.44 -6.68,-24.02 -6.99,-35.61 1.38,-0.61 3.07,-1.77 4.3,-2.61l4.07 -2.84c3.07,-2.45 4.68,-3.61 7.45,-6.6 0.54,-0.54 1.15,-1.15 1.69,-1.69 0.46,-0.54 1.23,-1.3 1.61,-1.92l2.99 -3.91c10.52,-15.2 15.66,-36.53 8.67,-54.8 -3.22,-8.36 -8.29,-15.42 -14.05,-20.8 -2.53,-2.38 -4.61,-4.22 -7.52,-6.29 -13.2,-9.29 -29.32,-14.35 -47.89,-15.42 -17.65,-0.92 -35.46,2.53 -47.28,11.67 -3.38,2.61 -6.37,4.76 -9.21,8.21l-1.69 1.92c-4.3,4.83 -8.9,12.89 -11.59,19.88 -2.45,6.37 -5.83,15.66 -2.61,22.72 0.69,1.61 2.3,3.84 3.38,5.14 0.31,0.38 0.54,0.61 0.77,1 0.61,0.92 0.38,1.46 0,2.61 -4.61,13.2 -23.79,28.32 -10.74,36.46 2.45,1.54 7.06,3.22 10.28,3.76l0.38 0.07z"/>
   <path class="fil0" d="M160.09 167.46c-3.45,0.23 -7.9,0.08 -11.51,0 -1.77,0 -3.15,-0.46 -4.37,-1.3 -7.98,-5.76 -4.76,-15.42 3.15,-16.58 1.69,-0.23 3.45,-0.31 3.15,-2.38 -0.15,-1.3 -4.53,-7.45 1.92,-12.36 6.37,-4.91 10.59,2.3 12.97,0.08 0.69,-0.69 1.15,-2.84 1.61,-3.91 3.45,-7.06 11.05,-6.29 14.35,-1.61 0.92,1.3 1.15,2.3 1.69,3.99 0.61,1.77 2.15,2.3 3.45,0.92 1.61,-1.69 3.38,-3.99 7.21,-4.14 3.76,-0.15 6.29,1.92 7.52,3.99 1.99,3.3 0.61,8.21 4.22,6.68 2.15,-0.92 4.68,-3.22 9.06,-1.3 2.23,1 4.45,3.38 4.99,6.29 0.92,4.76 -2.53,6.83 -2.53,8.83 0.08,2.99 4.3,0.92 7.67,3.91 5.07,4.3 3.68,12.36 -2.38,14.43 -2.53,0.84 -2.15,0.08 -4.22,-0.46 -1.69,-0.46 -3.53,-0.31 -5.37,-0.31 -3.84,0 -7.67,-0.08 -11.51,-0.15 -6.91,-0.08 -15.04,-0.46 -19.03,3.84 -0.54,0.54 -0.77,1.15 -1.77,1.23 -1.61,0.15 -6.91,0 -8.21,-0.31 -6.45,-1.77 -7.75,-9.98 -2.07,-13.74 2.45,-1.69 6.75,-1.15 10.13,-1.15l17.27 0c3.76,0 3.68,4.45 6.29,5.14 1.69,0.46 3.3,-0.46 3.84,-1.61 1.38,-2.84 -2.15,-6.52 -3.3,-7.29 0.23,-1 1.23,-2.07 1.84,-3.3 2.92,-6.6 -2.76,-8.44 -5.07,-5.68 -0.69,0.92 -1.54,5.91 -3.76,6.14 -7.21,0.61 -22.56,-1.3 -28.63,1.08 -3.3,1.3 -6.06,4.07 -7.45,7.37 -0.46,1.08 -0.77,3.07 -1.15,3.76l0.01 -0.09zm1.15 -40.37c-3.45,-0.31 -4.76,-0.92 -8.36,0.23 -4.45,1.38 -7.9,4.68 -9.59,8.98 -1.23,3.15 -0.84,4.45 -0.84,7.83 -3.68,1.08 -7.14,4.68 -8.44,8.44 -1.69,4.76 -0.77,9.67 1.3,13.58 5.6,10.36 15.66,7.67 25.48,7.98 1.23,3.38 3.38,5.68 5.76,7.29 3.3,2.23 6.37,2.3 10.9,2.23 -0.23,2.99 -0.61,4.3 0.23,7.29 1.54,5.68 6.6,10.05 12.59,10.74 3.07,0.38 3.84,-0.08 6.29,1.61 1.38,0.92 2.61,2.38 3.15,4.61 0.61,2.61 1.23,11.82 2.23,13.2 1.3,1.77 3.99,1.84 5.37,0.08 1.15,-1.54 0.31,-4.45 0.08,-6.45 -0.61,-4.61 -0.77,-9.13 -2.99,-12.59 -5.14,-8.14 -12.59,-6.14 -15.81,-7.6 -5.45,-2.45 -7.06,-10.36 -0.77,-14.58 2.61,-1.77 10.74,-1.23 14.43,-1.23 2.92,0 13.28,-0.38 15.04,0.61 1.54,0.84 2.23,3.53 0.69,5.22 -1.38,1.54 -4.14,1.15 -6.6,1.15 -2.61,0 -5.3,0 -7.9,0 -2.69,0 -4.99,-0.38 -5.91,1.77 -1,2.3 0.46,4.45 2.53,4.76 2.07,0.23 5.53,0 7.75,0 5.07,0 10.05,0.77 13.66,-2.07 3.3,-2.53 4.61,-5.45 3.53,-11.13 5.22,-1.46 9.21,-7.52 9.44,-13.35 0.15,-3.45 -0.92,-6.52 -2.45,-8.83 -1.3,-1.99 -3.84,-4.53 -6.22,-5.14 0.54,-3.3 0.92,-5.22 -0.08,-8.52 -1.46,-4.68 -4.68,-8.06 -9.29,-9.75 -3.3,-1.23 -5.07,-0.92 -8.52,-0.54 -0.46,-1.61 -2.45,-4.07 -3.3,-4.83 -3.07,-2.92 -7.21,-4.53 -11.74,-4.14 -3.45,0.31 -4.3,1.3 -6.14,1.84 -0.69,-1.61 -3.38,-3.61 -5.3,-4.61 -2.3,-1.23 -5.14,-1.84 -8.14,-1.54 -6.14,0.54 -8.6,3.38 -11.89,7.75l-0.16 -0.32z"/>
   <path class="fil0" d="M161.78 151.73c4.99,0.61 8.75,0.61 13.05,-2.84 1.38,-1.08 1.77,-1.77 2.76,-2.76 3.76,1.54 8.06,2.15 12.2,0.46 6.37,-2.61 3.61,-7.29 0.54,-7.29 -1.69,0 -6.52,3.91 -10.98,0.15 -0.92,-0.77 -2.92,-3.53 -4.68,-1.92 -0.84,0.77 -0.84,2.61 -2.53,4.76 -1.84,2.53 -6.22,4.22 -10.36,2.23 -1.3,-0.61 -3.61,-2.76 -4.99,-1.15 -0.69,0.84 -0.54,4.53 -1.15,6.14 -0.84,2.3 -2.23,2.69 -2.99,4.14 -1.15,1.99 -0.08,4.14 1.61,4.76 3.53,1.23 6.75,-4.14 7.67,-6.75l-0.16 0.08z"/>
   <path class="fil0" d="M540.84 183.42c0,6.29 -1,11.82 -2.92,16.65 -1.92,4.83 -4.76,8.9 -8.6,12.2 -3.76,3.3 -8.29,5.83 -13.74,7.6 -5.45,1.77 -11.82,2.61 -19.26,2.61l-9.36 0 0 35.53c0,0.61 -0.15,1.08 -0.54,1.54 -0.38,0.46 -1,0.84 -1.84,1.15 -0.84,0.31 -1.99,0.54 -3.45,0.69 -1.38,0.15 -3.3,0.23 -5.45,0.23 -2.15,0 -3.99,-0.08 -5.45,-0.23 -1.46,-0.15 -2.61,-0.38 -3.45,-0.69 -0.84,-0.31 -1.46,-0.69 -1.77,-1.15 -0.38,-0.46 -0.54,-1 -0.54,-1.54l0 -100.31c0,-2.69 0.69,-4.76 2.15,-6.06 1.38,-1.38 3.3,-1.99 5.53,-1.99l26.33 0c2.69,0 5.14,0.08 7.6,0.31 2.38,0.23 5.22,0.61 8.6,1.3 3.3,0.69 6.68,1.92 10.13,3.68 3.38,1.77 6.37,4.07 8.75,6.75 2.38,2.76 4.3,5.91 5.53,9.59 1.23,3.68 1.92,7.75 1.92,12.28l-0.15 -0.16zm1826.12 35.31l0 39.22c0,0.54 -0.15,1.08 -0.54,1.54 -0.38,0.46 -1,0.84 -1.84,1.15 -0.84,0.23 -1.99,0.54 -3.53,0.69 -1.46,0.15 -3.3,0.23 -5.45,0.23 -2.23,0 -4.07,-0.08 -5.53,-0.23 -1.38,-0.15 -2.61,-0.38 -3.45,-0.69 -0.92,-0.31 -1.54,-0.69 -1.84,-1.15 -0.38,-0.46 -0.54,-1 -0.54,-1.54l0 -39.22 -30.55 -60.78c-1.08,-2.15 -1.77,-3.76 -2.15,-4.99 -0.31,-1.15 -0.15,-2.07 0.54,-2.69 0.61,-0.61 1.92,-1 3.68,-1.15 1.77,-0.15 4.22,-0.23 7.37,-0.23 2.61,0 4.76,0.08 6.29,0.15 1.61,0.15 2.84,0.31 3.76,0.61 0.92,0.31 1.61,0.77 1.99,1.23 0.38,0.54 0.84,1.15 1.23,1.99l12.51 27.4c1.23,2.69 2.38,5.45 3.61,8.36 1.23,2.92 2.38,5.98 3.61,9.21l0.15 0c1.08,-3.15 2.23,-6.14 3.38,-9.06 1.15,-2.92 2.3,-5.68 3.38,-8.36l12.28 -27.24c0.31,-0.92 0.61,-1.69 1.08,-2.23 0.38,-0.54 1.08,-1 1.92,-1.38 0.84,-0.31 1.99,-0.54 3.53,-0.69 1.46,-0.15 3.45,-0.15 5.91,-0.15 3.3,0 5.83,0.08 7.6,0.23 1.84,0.15 3.07,0.54 3.68,1.15 0.69,0.61 0.84,1.54 0.46,2.76 -0.31,1.23 -1,2.84 -2.07,4.91l-30.54 60.78 0.07 0.15zm-58.33 39.45c0,0.61 -0.15,1.15 -0.38,1.61 -0.23,0.46 -0.77,0.77 -1.61,1.08 -0.92,0.23 -2.15,0.46 -3.76,0.61 -1.69,0.15 -3.91,0.15 -6.83,0.15 -2.38,0 -4.3,-0.08 -5.76,-0.15 -1.46,-0.15 -2.61,-0.31 -3.38,-0.61 -0.84,-0.31 -1.38,-0.69 -1.77,-1.23 -0.31,-0.54 -0.61,-1.08 -0.84,-1.77l-10.05 -24.94c-1.23,-2.84 -2.38,-5.37 -3.53,-7.52 -1.15,-2.23 -2.45,-4.07 -3.84,-5.53 -1.38,-1.46 -3.07,-2.53 -4.91,-3.3 -1.84,-0.77 -3.99,-1.15 -6.37,-1.15l-7.06 0 0 42.59c0,0.54 -0.15,1.08 -0.54,1.54 -0.38,0.46 -1,0.84 -1.84,1.15 -0.84,0.23 -1.99,0.54 -3.45,0.69 -1.38,0.15 -3.3,0.23 -5.45,0.23 -2.15,0 -3.99,-0.08 -5.45,-0.23 -1.46,-0.15 -2.61,-0.38 -3.45,-0.69 -0.84,-0.31 -1.46,-0.69 -1.77,-1.15 -0.38,-0.46 -0.54,-1 -0.54,-1.54l0 -101.31c0,-2.53 0.61,-4.37 1.92,-5.45 1.3,-1.15 2.92,-1.69 4.76,-1.69l28.86 0c2.92,0 5.37,0.08 7.21,0.15 1.92,0.15 3.61,0.23 5.14,0.38 4.45,0.61 8.52,1.77 12.13,3.3 3.61,1.54 6.68,3.53 9.13,6.06 2.53,2.53 4.45,5.45 5.76,8.83 1.3,3.38 1.99,7.29 1.99,11.74 0,3.68 -0.46,7.14 -1.38,10.21 -1,3.07 -2.38,5.83 -4.22,8.21 -1.84,2.38 -4.07,4.53 -6.83,6.29 -2.69,1.77 -5.76,3.22 -9.21,4.3 1.69,0.77 3.22,1.77 4.68,2.92 1.46,1.15 2.84,2.53 4.14,4.22 1.3,1.61 2.53,3.53 3.68,5.6 1.15,2.07 2.23,4.45 3.38,7.14l9.44 22.03c0.84,2.15 1.46,3.76 1.69,4.76 0.31,1 0.46,1.77 0.46,2.38l-0.15 0.08zm-29.32 -75.75c0,-3.68 -0.84,-6.83 -2.53,-9.29 -1.69,-2.53 -4.45,-4.3 -8.21,-5.37 -1.15,-0.31 -2.45,-0.54 -3.91,-0.69 -1.46,-0.15 -3.53,-0.23 -6.06,-0.23l-10.21 0 0 31.62 11.59 0c3.22,0 6.06,-0.38 8.44,-1.15 2.45,-0.77 4.45,-1.84 6.06,-3.3 1.61,-1.38 2.84,-3.07 3.61,-5.07 0.77,-1.92 1.23,-4.14 1.23,-6.52l-0 0zm-69.07 70.22c0.69,2.07 1.15,3.68 1.3,4.91 0.15,1.23 -0.08,2.15 -0.69,2.76 -0.61,0.61 -1.77,1 -3.38,1.15 -1.61,0.15 -3.84,0.23 -6.6,0.23 -2.92,0 -5.22,0 -6.83,-0.15 -1.61,-0.08 -2.92,-0.23 -3.76,-0.54 -0.84,-0.23 -1.46,-0.61 -1.77,-1.08 -0.38,-0.46 -0.61,-1.08 -0.84,-1.77l-7.29 -22.41 -42.06 0 -7.06 21.8c-0.23,0.84 -0.54,1.54 -0.92,1.99 -0.38,0.54 -1,1 -1.77,1.3 -0.84,0.31 -1.99,0.54 -3.53,0.61 -1.54,0.15 -3.53,0.15 -5.98,0.15 -2.69,0 -4.68,-0.08 -6.22,-0.23 -1.54,-0.15 -2.53,-0.61 -3.07,-1.23 -0.61,-0.69 -0.77,-1.61 -0.61,-2.84 0.15,-1.23 0.61,-2.76 1.3,-4.83l34.38 -99c0.31,-1 0.77,-1.77 1.23,-2.38 0.46,-0.61 1.15,-1.08 2.15,-1.38 1,-0.31 2.38,-0.54 4.22,-0.61 1.77,-0.08 4.14,-0.15 7.06,-0.15 3.38,0 6.06,0 8.06,0.15 1.99,0.08 3.61,0.31 4.68,0.61 1.15,0.31 1.92,0.77 2.38,1.38 0.46,0.61 0.92,1.54 1.23,2.61l34.46 98.93 -0.07 0zm-51.19 -81.89l-0.08 0 -15.5 47.43 31.31 0 -15.66 -47.43 -0.08 0zm-64.55 87.26c0,0.54 -0.15,1.08 -0.46,1.54 -0.31,0.46 -0.92,0.84 -1.77,1.15 -0.84,0.23 -1.92,0.54 -3.3,0.69 -1.38,0.15 -3.15,0.23 -5.3,0.23 -2.07,0 -3.84,-0.08 -5.22,-0.23 -1.38,-0.15 -2.45,-0.38 -3.3,-0.69 -0.77,-0.31 -1.38,-0.69 -1.69,-1.15 -0.38,-0.46 -0.54,-1 -0.54,-1.54l0 -90.79 -0.15 0 -32.24 90.71c-0.23,0.77 -0.61,1.38 -1.15,1.84 -0.54,0.54 -1.23,0.84 -2.15,1.15 -0.84,0.23 -1.99,0.46 -3.38,0.54 -1.38,0.08 -3.07,0.15 -4.99,0.15 -1.99,0 -3.61,-0.08 -4.99,-0.23 -1.38,-0.15 -2.53,-0.38 -3.38,-0.69 -0.84,-0.31 -1.61,-0.69 -2.15,-1.15 -0.54,-0.46 -0.84,-1 -1,-1.61l-31.08 -90.71 -0.15 0 0 90.79c0,0.54 -0.15,1.08 -0.46,1.54 -0.31,0.46 -0.92,0.84 -1.77,1.15 -0.84,0.23 -1.99,0.54 -3.38,0.69 -1.38,0.15 -3.07,0.23 -5.22,0.23 -2.07,0 -3.84,-0.08 -5.22,-0.23 -1.38,-0.15 -2.53,-0.38 -3.3,-0.69 -0.84,-0.31 -1.38,-0.69 -1.77,-1.15 -0.31,-0.46 -0.46,-1 -0.46,-1.54l0 -99.39c0,-2.92 0.77,-5.14 2.3,-6.75 1.54,-1.54 3.61,-2.3 6.22,-2.3l14.81 0c2.69,0 4.91,0.23 6.83,0.61 1.92,0.46 3.53,1.15 4.91,2.15 1.38,1 2.53,2.3 3.45,3.99 0.92,1.61 1.77,3.68 2.38,6.06l24.02 66.46 0.38 0 24.87 -66.31c0.77,-2.38 1.54,-4.45 2.45,-6.14 0.92,-1.61 1.92,-2.99 3.15,-4.07 1.15,-1 2.61,-1.77 4.14,-2.23 1.61,-0.46 3.53,-0.61 5.6,-0.61l15.27 0c1.54,0 2.92,0.23 3.99,0.61 1.15,0.38 2.07,1 2.76,1.77 0.77,0.77 1.23,1.69 1.61,2.84 0.38,1.15 0.54,2.38 0.54,3.84l0 99.39 0.23 0.08zm-154.26 0c0,0.54 -0.15,1.08 -0.46,1.54 -0.31,0.46 -0.92,0.84 -1.77,1.15 -0.84,0.23 -1.92,0.54 -3.3,0.69 -1.38,0.15 -3.15,0.23 -5.3,0.23 -2.07,0 -3.84,-0.08 -5.22,-0.23 -1.38,-0.15 -2.45,-0.38 -3.3,-0.69 -0.77,-0.31 -1.38,-0.69 -1.69,-1.15 -0.38,-0.46 -0.54,-1 -0.54,-1.54l0 -90.79 -0.15 0 -32.24 90.71c-0.23,0.77 -0.61,1.38 -1.15,1.84 -0.54,0.54 -1.23,0.84 -2.15,1.15 -0.84,0.23 -1.99,0.46 -3.38,0.54 -1.38,0.08 -3.07,0.15 -4.99,0.15 -1.99,0 -3.61,-0.08 -4.99,-0.23 -1.38,-0.15 -2.53,-0.38 -3.38,-0.69 -0.84,-0.31 -1.61,-0.69 -2.15,-1.15 -0.54,-0.46 -0.84,-1 -1,-1.61l-31.08 -90.71 -0.15 0 0 90.79c0,0.54 -0.15,1.08 -0.46,1.54 -0.31,0.46 -0.92,0.84 -1.77,1.15 -0.84,0.23 -1.99,0.54 -3.38,0.69 -1.38,0.15 -3.07,0.23 -5.22,0.23 -2.07,0 -3.84,-0.08 -5.22,-0.23 -1.38,-0.15 -2.53,-0.38 -3.3,-0.69 -0.84,-0.31 -1.38,-0.69 -1.77,-1.15 -0.31,-0.46 -0.46,-1 -0.46,-1.54l0 -99.39c0,-2.92 0.77,-5.14 2.3,-6.75 1.54,-1.54 3.61,-2.3 6.22,-2.3l14.81 0c2.69,0 4.91,0.23 6.83,0.61 1.92,0.46 3.53,1.15 4.91,2.15 1.38,1 2.53,2.3 3.45,3.99 0.92,1.61 1.77,3.68 2.38,6.06l24.02 66.46 0.38 0 24.87 -66.31c0.77,-2.38 1.54,-4.45 2.45,-6.14 0.92,-1.61 1.92,-2.99 3.15,-4.07 1.15,-1 2.61,-1.77 4.14,-2.23 1.61,-0.46 3.53,-0.61 5.6,-0.61l15.27 0c1.54,0 2.92,0.23 3.99,0.61 1.15,0.38 2.07,1 2.76,1.77 0.77,0.77 1.23,1.69 1.61,2.84 0.38,1.15 0.54,2.38 0.54,3.84l0 99.39 0.23 0.08zm-154.26 -38.45c0,6.83 -1,12.97 -2.99,18.34 -1.99,5.45 -4.91,9.98 -8.83,13.74 -3.91,3.76 -8.75,6.6 -14.51,8.52 -5.76,1.99 -12.36,2.92 -19.8,2.92 -6.99,0 -13.28,-0.84 -18.88,-2.61 -5.6,-1.77 -10.28,-4.37 -14.12,-7.98 -3.84,-3.53 -6.83,-7.98 -8.83,-13.35 -1.99,-5.3 -3.07,-11.51 -3.07,-18.65l0 -67.84c0,-0.54 0.15,-1.08 0.54,-1.54 0.31,-0.46 0.92,-0.84 1.84,-1.15 0.84,-0.31 2.07,-0.54 3.53,-0.69 1.38,-0.15 3.3,-0.23 5.53,-0.23 2.15,0 3.99,0.08 5.37,0.23 1.46,0.15 2.61,0.38 3.45,0.69 0.84,0.31 1.46,0.69 1.84,1.15 0.38,0.46 0.54,1 0.54,1.54l0 65.92c0,4.45 0.54,8.29 1.61,11.51 1.08,3.22 2.61,5.91 4.68,8.06 1.99,2.15 4.45,3.76 7.29,4.76 2.84,1.08 6.06,1.61 9.52,1.61 3.53,0 6.75,-0.54 9.59,-1.61 2.84,-1.08 5.22,-2.69 7.21,-4.76 1.92,-2.15 3.45,-4.68 4.53,-7.75 1.08,-3.07 1.61,-6.6 1.61,-10.52l0 -67.15c0,-0.54 0.15,-1.08 0.54,-1.54 0.31,-0.46 0.92,-0.84 1.77,-1.15 0.84,-0.31 1.99,-0.54 3.53,-0.69 1.46,-0.15 3.3,-0.23 5.45,-0.23 2.15,0 3.99,0.08 5.37,0.23 1.38,0.15 2.53,0.38 3.38,0.69 0.84,0.31 1.46,0.69 1.77,1.15 0.38,0.46 0.54,1 0.54,1.54l0 66.92 0 -0.07zm-108.14 8.06c0,5.91 -1.08,10.98 -3.3,15.42 -2.23,4.37 -5.14,8.06 -8.9,11.05 -3.76,2.92 -8.14,5.14 -13.12,6.68 -4.99,1.54 -10.36,2.23 -16.04,2.23 -3.84,0 -7.45,-0.31 -10.74,-1 -3.3,-0.61 -6.22,-1.38 -8.75,-2.3 -2.53,-0.84 -4.68,-1.84 -6.37,-2.84 -1.69,-1 -2.92,-1.92 -3.68,-2.61 -0.77,-0.77 -1.23,-1.84 -1.61,-3.3 -0.31,-1.38 -0.46,-3.38 -0.46,-6.06 0,-1.77 0.08,-3.3 0.15,-4.45 0.15,-1.23 0.31,-2.15 0.54,-2.92 0.23,-0.77 0.61,-1.23 1,-1.61 0.46,-0.31 0.92,-0.46 1.54,-0.46 0.77,0 1.92,0.46 3.38,1.46 1.46,0.92 3.38,1.99 5.68,3.15 2.3,1.15 5.07,2.23 8.29,3.15 3.15,1 6.91,1.46 11.13,1.46 2.76,0 5.22,-0.31 7.45,-1 2.23,-0.69 4.07,-1.61 5.6,-2.76 1.54,-1.23 2.69,-2.69 3.53,-4.45 0.77,-1.77 1.23,-3.76 1.23,-5.91 0,-2.53 -0.69,-4.68 -2.07,-6.52 -1.38,-1.84 -3.15,-3.38 -5.45,-4.83 -2.23,-1.38 -4.76,-2.76 -7.6,-3.99 -2.76,-1.23 -5.68,-2.53 -8.67,-3.91 -2.99,-1.38 -5.91,-2.92 -8.67,-4.68 -2.84,-1.77 -5.37,-3.84 -7.6,-6.29 -2.23,-2.45 -4.07,-5.3 -5.45,-8.67 -1.38,-3.3 -2.07,-7.29 -2.07,-11.97 0,-5.3 1,-10.05 2.99,-14.12 1.99,-4.07 4.68,-7.37 7.98,-10.05 3.38,-2.69 7.29,-4.68 11.89,-5.98 4.53,-1.3 9.44,-1.99 14.51,-1.99 2.61,0 5.3,0.23 7.9,0.61 2.69,0.38 5.14,0.92 7.45,1.61 2.3,0.69 4.3,1.46 6.14,2.3 1.77,0.84 2.92,1.61 3.53,2.15 0.54,0.54 0.92,1.08 1.15,1.46 0.23,0.38 0.38,0.92 0.54,1.61 0.15,0.61 0.23,1.46 0.31,2.53 0.08,1 0.08,2.23 0.08,3.76 0,1.61 0,3.07 -0.15,4.22 -0.08,1.15 -0.23,2.07 -0.46,2.84 -0.23,0.77 -0.54,1.3 -0.84,1.61 -0.38,0.38 -0.84,0.54 -1.54,0.54 -0.61,0 -1.61,-0.38 -2.99,-1.23 -1.38,-0.77 -3.07,-1.69 -5.07,-2.61 -1.99,-0.92 -4.37,-1.77 -6.99,-2.53 -2.69,-0.77 -5.53,-1.15 -8.67,-1.15 -2.45,0 -4.61,0.31 -6.45,0.92 -1.84,0.61 -3.38,1.46 -4.61,2.53 -1.23,1.08 -2.15,2.3 -2.76,3.84 -0.61,1.54 -0.92,3.07 -0.92,4.76 0,2.45 0.69,4.61 1.99,6.45 1.38,1.84 3.15,3.45 5.45,4.83 2.23,1.38 4.83,2.69 7.75,3.91 2.84,1.23 5.76,2.53 8.83,3.91 2.99,1.38 5.91,2.92 8.83,4.68 2.92,1.77 5.45,3.84 7.67,6.29 2.23,2.45 4.07,5.3 5.45,8.6 1.38,3.3 2.07,7.21 2.07,11.67l-0.01 0.01zm-119.42 24.02c0,1.69 -0.08,3.15 -0.23,4.37 -0.15,1.15 -0.38,2.15 -0.61,2.92 -0.31,0.77 -0.61,1.38 -1.08,1.69 -0.46,0.38 -0.92,0.54 -1.54,0.54l-51.11 0c-1.92,0 -3.45,-0.54 -4.76,-1.69 -1.3,-1.15 -1.92,-2.92 -1.92,-5.45l0 -101.31c0,-0.54 0.15,-1.08 0.54,-1.54 0.38,-0.46 1,-0.84 1.84,-1.15 0.84,-0.31 1.99,-0.54 3.53,-0.69 1.46,-0.15 3.3,-0.23 5.45,-0.23 2.23,0 4.07,0.08 5.53,0.23 1.38,0.15 2.61,0.38 3.45,0.69 0.84,0.31 1.46,0.69 1.84,1.15 0.38,0.46 0.54,1 0.54,1.54l0 89.72 35 0c0.54,0 1.08,0.15 1.54,0.46 0.46,0.31 0.77,0.84 1.08,1.54 0.31,0.69 0.54,1.61 0.61,2.84 0.15,1.15 0.23,2.61 0.23,4.37l0.08 0zm-76.9 1c0.69,2.07 1.15,3.68 1.3,4.91 0.15,1.23 -0.08,2.15 -0.69,2.76 -0.61,0.61 -1.77,1 -3.38,1.15 -1.61,0.15 -3.84,0.23 -6.6,0.23 -2.92,0 -5.22,0 -6.83,-0.15 -1.61,-0.08 -2.92,-0.23 -3.76,-0.54 -0.84,-0.23 -1.46,-0.61 -1.77,-1.08 -0.38,-0.46 -0.61,-1.08 -0.84,-1.77l-7.29 -22.41 -42.06 0 -7.06 21.8c-0.23,0.84 -0.54,1.54 -0.92,1.99 -0.38,0.54 -1,1 -1.77,1.3 -0.84,0.31 -1.99,0.54 -3.53,0.61 -1.54,0.15 -3.53,0.15 -5.98,0.15 -2.69,0 -4.68,-0.08 -6.22,-0.23 -1.54,-0.15 -2.53,-0.61 -3.07,-1.23 -0.61,-0.69 -0.77,-1.61 -0.61,-2.84 0.15,-1.23 0.61,-2.76 1.3,-4.83l34.38 -99c0.31,-1 0.77,-1.77 1.23,-2.38 0.46,-0.61 1.15,-1.08 2.15,-1.38 1,-0.31 2.38,-0.54 4.22,-0.61 1.77,-0.08 4.14,-0.15 7.06,-0.15 3.38,0 6.06,0 8.06,0.15 1.99,0.08 3.61,0.31 4.68,0.61 1.15,0.31 1.92,0.77 2.38,1.38 0.46,0.61 0.92,1.54 1.23,2.61l34.46 98.93 -0.07 0zm-51.19 -81.89l-0.08 0 -15.5 47.43 31.31 0 -15.66 -47.43 -0.08 0zm-64.47 82.42c0,1.3 -0.23,2.53 -0.69,3.53 -0.46,1 -1.08,1.92 -1.92,2.61 -0.77,0.69 -1.69,1.15 -2.76,1.54 -1.08,0.31 -2.15,0.46 -3.22,0.46l-9.67 0c-1.99,0 -3.76,-0.23 -5.22,-0.61 -1.46,-0.38 -2.76,-1.15 -3.99,-2.23 -1.3,-1.08 -2.45,-2.53 -3.61,-4.3 -1.15,-1.77 -2.45,-4.14 -3.91,-7.06l-27.7 -52.19c-1.61,-3.15 -3.22,-6.45 -4.91,-10.05 -1.69,-3.61 -3.15,-7.06 -4.45,-10.44l-0.15 0c0.23,4.14 0.38,8.29 0.54,12.36 0.15,4.07 0.15,8.36 0.15,12.74l0 58.4c0,0.54 -0.15,1.08 -0.46,1.54 -0.31,0.46 -0.92,0.84 -1.61,1.15 -0.77,0.31 -1.84,0.54 -3.15,0.77 -1.3,0.15 -2.99,0.23 -5.07,0.23 -1.99,0 -3.68,-0.08 -5.07,-0.23 -1.3,-0.15 -2.38,-0.38 -3.07,-0.77 -0.77,-0.31 -1.3,-0.69 -1.54,-1.15 -0.31,-0.46 -0.46,-1 -0.46,-1.54l0 -100.23c0,-2.69 0.77,-4.76 2.38,-6.06 1.54,-1.38 3.53,-1.99 5.83,-1.99l12.13 0c2.15,0 3.99,0.15 5.53,0.54 1.54,0.38 2.84,1 3.99,1.84 1.15,0.84 2.3,2.07 3.3,3.61 1,1.54 2.07,3.38 3.15,5.68l21.64 40.83c1.23,2.45 2.53,4.91 3.76,7.29 1.23,2.38 2.45,4.76 3.53,7.14 1.15,2.38 2.23,4.76 3.38,7.06 1.15,2.3 2.15,4.61 3.22,6.91l0.08 0c-0.15,-4.07 -0.31,-8.21 -0.38,-12.59 -0.08,-4.37 -0.15,-8.6 -0.15,-12.51l0 -52.34c0,-0.54 0.15,-1.08 0.54,-1.54 0.31,-0.46 0.92,-0.84 1.69,-1.23 0.84,-0.38 1.92,-0.61 3.22,-0.77 1.3,-0.15 2.99,-0.23 5.07,-0.23 1.99,0 3.61,0.08 4.91,0.23 1.3,0.15 2.3,0.38 3.07,0.77 0.69,0.38 1.23,0.77 1.54,1.23 0.31,0.46 0.46,1 0.46,1.54l0 100.23 0.08 -0.16zm-111.05 -49.12c0,9.21 -1.15,17.5 -3.45,24.79 -2.3,7.29 -5.68,13.51 -10.28,18.57 -4.53,5.07 -10.13,8.98 -16.81,11.67 -6.68,2.69 -14.43,3.99 -23.25,3.99 -8.67,0 -16.27,-1.15 -22.72,-3.38 -6.45,-2.3 -11.82,-5.68 -16.19,-10.36 -4.3,-4.68 -7.52,-10.59 -9.67,-17.73 -2.15,-7.21 -3.22,-15.66 -3.22,-25.48 0,-8.98 1.15,-17.11 3.45,-24.33 2.3,-7.21 5.68,-13.35 10.28,-18.42 4.53,-5.07 10.13,-8.98 16.81,-11.59 6.68,-2.69 14.51,-4.07 23.33,-4.07 8.44,0 15.89,1.15 22.33,3.38 6.45,2.23 11.82,5.68 16.19,10.36 4.37,4.68 7.6,10.52 9.82,17.58 2.23,7.14 3.3,15.5 3.3,25.1l0.08 -0.08zm-23.79 1.15c0,-5.83 -0.46,-11.2 -1.38,-15.96 -0.92,-4.76 -2.45,-8.9 -4.68,-12.36 -2.23,-3.38 -5.14,-6.06 -8.83,-7.9 -3.68,-1.84 -8.29,-2.76 -13.74,-2.76 -5.53,0 -10.21,1.08 -13.89,3.15 -3.76,2.07 -6.75,4.91 -9.06,8.44 -2.3,3.53 -3.91,7.6 -4.83,12.28 -0.92,4.68 -1.38,9.67 -1.38,14.89 0,6.06 0.46,11.59 1.38,16.42 0.92,4.83 2.45,8.98 4.68,12.51 2.15,3.45 5.07,6.06 8.75,7.9 3.68,1.77 8.29,2.69 13.89,2.69 5.53,0 10.21,-1 13.89,-3.15 3.76,-2.07 6.75,-4.91 9.06,-8.44 2.3,-3.53 3.91,-7.67 4.83,-12.43 0.92,-4.76 1.38,-9.82 1.38,-15.12l-0.08 -0.15zm-100.69 52.8c0,0.54 -0.15,1.08 -0.54,1.54 -0.38,0.46 -1,0.84 -1.84,1.15 -0.84,0.23 -1.99,0.54 -3.45,0.69 -1.46,0.15 -3.3,0.23 -5.53,0.23 -2.15,0 -3.99,-0.08 -5.45,-0.23 -1.46,-0.15 -2.69,-0.38 -3.53,-0.69 -0.84,-0.31 -1.46,-0.69 -1.84,-1.15 -0.38,-0.46 -0.54,-1 -0.54,-1.54l0 -105.37c0,-0.54 0.15,-1.08 0.54,-1.54 0.38,-0.46 1,-0.84 1.92,-1.15 0.84,-0.31 1.99,-0.54 3.45,-0.69 1.46,-0.15 3.3,-0.23 5.45,-0.23 2.23,0 4.07,0.08 5.53,0.23 1.38,0.15 2.61,0.38 3.45,0.69 0.84,0.31 1.46,0.69 1.84,1.15 0.38,0.46 0.54,1 0.54,1.54l0 105.37zm-39.99 -30.39c0,5.91 -1.08,10.98 -3.3,15.42 -2.23,4.37 -5.14,8.06 -8.9,11.05 -3.76,2.92 -8.14,5.14 -13.12,6.68 -4.99,1.54 -10.36,2.23 -16.04,2.23 -3.84,0 -7.45,-0.31 -10.74,-1 -3.3,-0.61 -6.22,-1.38 -8.75,-2.3 -2.53,-0.84 -4.68,-1.84 -6.37,-2.84 -1.69,-1 -2.92,-1.92 -3.68,-2.61 -0.77,-0.77 -1.23,-1.84 -1.61,-3.3 -0.31,-1.38 -0.46,-3.38 -0.46,-6.06 0,-1.77 0.08,-3.3 0.15,-4.45 0.15,-1.23 0.31,-2.15 0.54,-2.92 0.23,-0.77 0.61,-1.23 1,-1.61 0.46,-0.31 0.92,-0.46 1.54,-0.46 0.77,0 1.92,0.46 3.38,1.46 1.46,0.92 3.38,1.99 5.68,3.15 2.3,1.15 5.07,2.23 8.29,3.15 3.15,1 6.91,1.46 11.13,1.46 2.76,0 5.22,-0.31 7.45,-1 2.23,-0.69 4.07,-1.61 5.6,-2.76 1.54,-1.23 2.69,-2.69 3.53,-4.45 0.77,-1.77 1.23,-3.76 1.23,-5.91 0,-2.53 -0.69,-4.68 -2.07,-6.52 -1.38,-1.84 -3.15,-3.38 -5.45,-4.83 -2.23,-1.38 -4.76,-2.76 -7.6,-3.99 -2.76,-1.23 -5.68,-2.53 -8.67,-3.91 -2.99,-1.38 -5.91,-2.92 -8.67,-4.68 -2.84,-1.77 -5.37,-3.84 -7.6,-6.29 -2.23,-2.45 -4.07,-5.3 -5.45,-8.67 -1.38,-3.3 -2.07,-7.29 -2.07,-11.97 0,-5.3 1,-10.05 2.99,-14.12 1.99,-4.07 4.68,-7.37 7.98,-10.05 3.38,-2.69 7.29,-4.68 11.89,-5.98 4.53,-1.3 9.44,-1.99 14.51,-1.99 2.61,0 5.3,0.23 7.9,0.61 2.69,0.38 5.14,0.92 7.45,1.61 2.3,0.69 4.3,1.46 6.14,2.3 1.77,0.84 2.92,1.61 3.53,2.15 0.54,0.54 0.92,1.08 1.15,1.46 0.23,0.38 0.38,0.92 0.54,1.61 0.15,0.61 0.23,1.46 0.31,2.53 0.08,1 0.08,2.23 0.08,3.76 0,1.61 0,3.07 -0.15,4.22 -0.08,1.15 -0.23,2.07 -0.46,2.84 -0.23,0.77 -0.54,1.3 -0.84,1.61 -0.38,0.38 -0.84,0.54 -1.54,0.54 -0.61,0 -1.61,-0.38 -2.99,-1.23 -1.38,-0.77 -3.07,-1.69 -5.07,-2.61 -1.99,-0.92 -4.37,-1.77 -6.99,-2.53 -2.69,-0.77 -5.53,-1.15 -8.67,-1.15 -2.45,0 -4.61,0.31 -6.45,0.92 -1.84,0.61 -3.38,1.46 -4.61,2.53 -1.23,1.08 -2.15,2.3 -2.76,3.84 -0.61,1.54 -0.92,3.07 -0.92,4.76 0,2.45 0.69,4.61 1.99,6.45 1.38,1.84 3.15,3.45 5.45,4.83 2.23,1.38 4.83,2.69 7.75,3.91 2.84,1.23 5.76,2.53 8.83,3.91 2.99,1.38 5.91,2.92 8.83,4.68 2.92,1.77 5.45,3.84 7.67,6.29 2.23,2.45 4.07,5.3 5.45,8.6 1.38,3.3 2.07,7.21 2.07,11.67l-0.01 0.01zm-83.42 0c0,5.91 -1.08,10.98 -3.3,15.42 -2.23,4.37 -5.14,8.06 -8.9,11.05 -3.76,2.92 -8.14,5.14 -13.12,6.68 -4.99,1.54 -10.36,2.23 -16.04,2.23 -3.84,0 -7.45,-0.31 -10.74,-1 -3.3,-0.61 -6.22,-1.38 -8.75,-2.3 -2.53,-0.84 -4.68,-1.84 -6.37,-2.84 -1.69,-1 -2.92,-1.92 -3.68,-2.61 -0.77,-0.77 -1.23,-1.84 -1.61,-3.3 -0.31,-1.38 -0.46,-3.38 -0.46,-6.06 0,-1.77 0.08,-3.3 0.15,-4.45 0.15,-1.23 0.31,-2.15 0.54,-2.92 0.23,-0.77 0.61,-1.23 1,-1.61 0.46,-0.31 0.92,-0.46 1.54,-0.46 0.77,0 1.92,0.46 3.38,1.46 1.46,0.92 3.38,1.99 5.68,3.15 2.3,1.15 5.07,2.23 8.29,3.15 3.15,1 6.91,1.46 11.13,1.46 2.76,0 5.22,-0.31 7.45,-1 2.23,-0.69 4.07,-1.61 5.6,-2.76 1.54,-1.23 2.69,-2.69 3.53,-4.45 0.77,-1.77 1.23,-3.76 1.23,-5.91 0,-2.53 -0.69,-4.68 -2.07,-6.52 -1.38,-1.84 -3.15,-3.38 -5.45,-4.83 -2.23,-1.38 -4.76,-2.76 -7.6,-3.99 -2.76,-1.23 -5.68,-2.53 -8.67,-3.91 -2.99,-1.38 -5.91,-2.92 -8.67,-4.68 -2.84,-1.77 -5.37,-3.84 -7.6,-6.29 -2.23,-2.45 -4.07,-5.3 -5.45,-8.67 -1.38,-3.3 -2.07,-7.29 -2.07,-11.97 0,-5.3 1,-10.05 2.99,-14.12 1.99,-4.07 4.68,-7.37 7.98,-10.05 3.38,-2.69 7.29,-4.68 11.89,-5.98 4.53,-1.3 9.44,-1.99 14.51,-1.99 2.61,0 5.3,0.23 7.9,0.61 2.69,0.38 5.14,0.92 7.45,1.61 2.3,0.69 4.3,1.46 6.14,2.3 1.77,0.84 2.92,1.61 3.53,2.15 0.54,0.54 0.92,1.08 1.15,1.46 0.23,0.38 0.38,0.92 0.54,1.61 0.15,0.61 0.23,1.46 0.31,2.53 0.08,1 0.08,2.23 0.08,3.76 0,1.61 0,3.07 -0.15,4.22 -0.08,1.15 -0.23,2.07 -0.46,2.84 -0.23,0.77 -0.54,1.3 -0.84,1.61 -0.38,0.38 -0.84,0.54 -1.54,0.54 -0.61,0 -1.61,-0.38 -2.99,-1.23 -1.38,-0.77 -3.07,-1.69 -5.07,-2.61 -1.99,-0.92 -4.37,-1.77 -6.99,-2.53 -2.69,-0.77 -5.53,-1.15 -8.67,-1.15 -2.45,0 -4.61,0.31 -6.45,0.92 -1.84,0.61 -3.38,1.46 -4.61,2.53 -1.23,1.08 -2.15,2.3 -2.76,3.84 -0.61,1.54 -0.92,3.07 -0.92,4.76 0,2.45 0.69,4.61 1.99,6.45 1.38,1.84 3.15,3.45 5.45,4.83 2.23,1.38 4.83,2.69 7.75,3.91 2.84,1.23 5.76,2.53 8.83,3.91 2.99,1.38 5.91,2.92 8.83,4.68 2.92,1.77 5.45,3.84 7.67,6.29 2.23,2.45 4.07,5.3 5.45,8.6 1.38,3.3 2.07,7.21 2.07,11.67l-0.01 0.01zm-84.58 24.56c0,1.69 -0.08,3.07 -0.23,4.22 -0.15,1.15 -0.38,1.99 -0.61,2.69 -0.31,0.69 -0.61,1.23 -1.08,1.54 -0.38,0.31 -0.92,0.46 -1.38,0.46l-55.95 0c-1.92,0 -3.45,-0.54 -4.76,-1.69 -1.3,-1.15 -1.92,-2.92 -1.92,-5.45l0 -97.24c0,-2.53 0.61,-4.37 1.92,-5.45 1.3,-1.15 2.92,-1.69 4.76,-1.69l55.72 0c0.54,0 1,0.15 1.38,0.46 0.38,0.31 0.77,0.77 1,1.54 0.23,0.77 0.54,1.61 0.61,2.76 0.15,1.15 0.23,2.53 0.23,4.3 0,1.61 -0.08,2.99 -0.23,4.14 -0.15,1.15 -0.38,1.99 -0.61,2.69 -0.31,0.69 -0.61,1.23 -1,1.54 -0.38,0.31 -0.84,0.46 -1.38,0.46l-39.83 0 0 27.17 33.54 0c0.54,0 1,0.15 1.38,0.46 0.46,0.31 0.77,0.77 1.08,1.46 0.31,0.61 0.54,1.54 0.61,2.69 0.15,1.15 0.23,2.45 0.23,4.07 0,1.69 -0.08,3.07 -0.23,4.14 -0.15,1.08 -0.38,1.99 -0.61,2.61 -0.31,0.69 -0.61,1.15 -1.08,1.38 -0.38,0.31 -0.84,0.46 -1.38,0.46l-33.54 0 0 31.39 40.06 0c0.54,0 1,0.15 1.38,0.46 0.46,0.31 0.77,0.84 1.08,1.54 0.31,0.69 0.54,1.61 0.61,2.69 0.15,1.15 0.23,2.53 0.23,4.22l0 0.01zm-84.34 -93.33c0,1.77 -0.08,3.15 -0.23,4.37 -0.15,1.15 -0.38,2.15 -0.69,2.84 -0.31,0.69 -0.69,1.23 -1.08,1.54 -0.38,0.38 -0.84,0.54 -1.38,0.54l-36.53 0 0 30.01 34.31 0c0.54,0 1,0.15 1.38,0.46 0.38,0.23 0.77,0.77 1.08,1.46 0.31,0.69 0.54,1.61 0.69,2.76 0.15,1.15 0.23,2.61 0.23,4.3 0,1.69 -0.08,3.15 -0.23,4.3 -0.15,1.15 -0.38,2.07 -0.69,2.84 -0.31,0.77 -0.69,1.23 -1.08,1.61 -0.38,0.31 -0.84,0.46 -1.38,0.46l-34.31 0 0 41.6c0,0.61 -0.15,1.15 -0.54,1.61 -0.31,0.46 -0.92,0.84 -1.84,1.15 -0.84,0.31 -2.07,0.54 -3.45,0.77 -1.46,0.15 -3.3,0.23 -5.53,0.23 -2.15,0 -3.99,-0.08 -5.45,-0.23 -1.46,-0.15 -2.69,-0.38 -3.53,-0.77 -0.84,-0.31 -1.46,-0.69 -1.84,-1.15 -0.38,-0.46 -0.54,-1 -0.54,-1.61l0 -101.15c0,-2.53 0.61,-4.37 1.92,-5.45 1.3,-1.15 2.92,-1.69 4.76,-1.69l52.57 0c0.54,0 1,0.15 1.38,0.46 0.38,0.31 0.77,0.84 1.08,1.54 0.31,0.69 0.54,1.69 0.69,2.92 0.15,1.23 0.23,2.69 0.23,4.37l-0 -0.07zm-81.81 45.21c0,9.21 -1.15,17.5 -3.45,24.79 -2.3,7.29 -5.68,13.51 -10.28,18.57 -4.53,5.07 -10.13,8.98 -16.81,11.67 -6.68,2.69 -14.43,3.99 -23.25,3.99 -8.67,0 -16.27,-1.15 -22.72,-3.38 -6.45,-2.3 -11.82,-5.68 -16.19,-10.36 -4.3,-4.68 -7.52,-10.59 -9.67,-17.73 -2.15,-7.21 -3.22,-15.66 -3.22,-25.48 0,-8.98 1.15,-17.11 3.45,-24.33 2.3,-7.21 5.68,-13.35 10.28,-18.42 4.53,-5.07 10.13,-8.98 16.81,-11.59 6.68,-2.69 14.51,-4.07 23.33,-4.07 8.44,0 15.89,1.15 22.33,3.38 6.45,2.23 11.82,5.68 16.19,10.36 4.37,4.68 7.6,10.52 9.82,17.58 2.23,7.14 3.3,15.5 3.3,25.1l0.08 -0.08zm-23.79 1.15c0,-5.83 -0.46,-11.2 -1.38,-15.96 -0.92,-4.76 -2.45,-8.9 -4.68,-12.36 -2.23,-3.38 -5.14,-6.06 -8.83,-7.9 -3.68,-1.84 -8.29,-2.76 -13.74,-2.76 -5.53,0 -10.21,1.08 -13.89,3.15 -3.76,2.07 -6.75,4.91 -9.06,8.44 -2.3,3.53 -3.91,7.6 -4.83,12.28 -0.92,4.68 -1.38,9.67 -1.38,14.89 0,6.06 0.46,11.59 1.38,16.42 0.92,4.83 2.45,8.98 4.68,12.51 2.15,3.45 5.07,6.06 8.75,7.9 3.68,1.77 8.29,2.69 13.89,2.69 5.53,0 10.21,-1 13.89,-3.15 3.76,-2.07 6.75,-4.91 9.06,-8.44 2.3,-3.53 3.91,-7.67 4.83,-12.43 0.92,-4.76 1.38,-9.82 1.38,-15.12l-0.08 -0.15zm-91.25 53.03c0,0.61 -0.15,1.15 -0.38,1.61 -0.23,0.46 -0.77,0.77 -1.61,1.08 -0.92,0.23 -2.15,0.46 -3.76,0.61 -1.69,0.15 -3.91,0.15 -6.83,0.15 -2.38,0 -4.3,-0.08 -5.76,-0.15 -1.46,-0.15 -2.61,-0.31 -3.38,-0.61 -0.84,-0.31 -1.38,-0.69 -1.77,-1.23 -0.31,-0.54 -0.61,-1.08 -0.84,-1.77l-10.05 -24.94c-1.23,-2.84 -2.38,-5.37 -3.53,-7.52 -1.15,-2.23 -2.45,-4.07 -3.84,-5.53 -1.38,-1.46 -3.07,-2.53 -4.91,-3.3 -1.84,-0.77 -3.99,-1.15 -6.37,-1.15l-7.06 0 0 42.59c0,0.54 -0.15,1.08 -0.54,1.54 -0.38,0.46 -1,0.84 -1.84,1.15 -0.84,0.23 -1.99,0.54 -3.45,0.69 -1.38,0.15 -3.3,0.23 -5.45,0.23 -2.15,0 -3.99,-0.08 -5.45,-0.23 -1.46,-0.15 -2.61,-0.38 -3.45,-0.69 -0.84,-0.31 -1.46,-0.69 -1.77,-1.15 -0.38,-0.46 -0.54,-1 -0.54,-1.54l0 -101.31c0,-2.53 0.61,-4.37 1.92,-5.45 1.3,-1.15 2.92,-1.69 4.76,-1.69l28.86 0c2.92,0 5.37,0.08 7.21,0.15 1.92,0.15 3.61,0.23 5.14,0.38 4.45,0.61 8.52,1.77 12.13,3.3 3.61,1.54 6.68,3.53 9.13,6.06 2.53,2.53 4.45,5.45 5.76,8.83 1.3,3.38 1.99,7.29 1.99,11.74 0,3.68 -0.46,7.14 -1.38,10.21 -1,3.07 -2.38,5.83 -4.22,8.21 -1.84,2.38 -4.07,4.53 -6.83,6.29 -2.69,1.77 -5.76,3.22 -9.21,4.3 1.69,0.77 3.22,1.77 4.68,2.92 1.46,1.15 2.84,2.53 4.14,4.22 1.3,1.61 2.53,3.53 3.68,5.6 1.15,2.07 2.23,4.45 3.38,7.14l9.44 22.03c0.84,2.15 1.46,3.76 1.69,4.76 0.31,1 0.46,1.77 0.46,2.38l-0.15 0.08zm-29.32 -75.75c0,-3.68 -0.84,-6.83 -2.53,-9.29 -1.69,-2.53 -4.45,-4.3 -8.21,-5.37 -1.15,-0.31 -2.45,-0.54 -3.91,-0.69 -1.46,-0.15 -3.53,-0.23 -6.06,-0.23l-10.21 0 0 31.62 11.59 0c3.22,0 6.06,-0.38 8.44,-1.15 2.45,-0.77 4.45,-1.84 6.06,-3.3 1.61,-1.38 2.84,-3.07 3.61,-5.07 0.77,-1.92 1.23,-4.14 1.23,-6.52l-0 0zm-94.63 2.61c0,-3.91 -0.69,-7.14 -2.07,-9.67 -1.38,-2.53 -3.07,-4.37 -5.14,-5.6 -1.99,-1.23 -4.14,-1.99 -6.37,-2.3 -2.23,-0.31 -4.53,-0.46 -6.91,-0.46l-9.75 0 0 37.91 10.21 0c3.68,0 6.68,-0.54 9.13,-1.46 2.45,-1 4.45,-2.38 6.06,-4.14 1.54,-1.77 2.76,-3.84 3.53,-6.29 0.77,-2.45 1.23,-5.14 1.23,-7.98l0.08 0z"/>
   <g>
    <path class="fil0" d="M221.49 213.36l-3.76 -3.61 24.33 -24.64 0.23 3.15 0 2.3 0 1.54 -20.88 21.26 0.08 0zm-4.68 -12.13l-75.14 0 0 7.29 70.15 0c-0.23,2.53 -1.92,5.14 -2.99,7.75 -2.61,6.29 -2.23,7.21 -5.83,7.21l-61.4 0 0.23 7.37 81.43 0 0.38 -7.29 -11.97 -0.08c18.57,-9.75 8.21,-0.54 26.55,-19.11 0.54,-0.54 1,-1.08 1.54,-1.54 1.54,-1.38 0.84,-0.84 2.61,-1.77l0 53.95c-0.15,6.75 -2.53,9.52 -9.44,9.52l-100.46 0c-6.91,0 -9.52,-2.61 -9.52,-9.52l0 -137.3c0,-6.99 2.61,-9.52 9.52,-9.52l65.16 0c-0.08,7.75 0,15.5 0,23.25 0,16.27 -0.54,25.1 20.72,25.02 7.06,0 17.65,-0.84 24.25,0.54l-0.31 20.49c-2.53,1.08 -9.82,9.13 -12.28,11.67 -2.76,2.76 -10.13,11.13 -13.2,12.05l-0 0.01zm20.49 -52.34c-5.14,0.54 -11.44,0.23 -16.65,0.23 -5.53,0 -11.59,1 -14.12,-2.76 -3.07,-4.45 -1.54,-23.71 -1.69,-31.47 2.92,1.69 28.47,30.01 32.46,34zm-121.8 -36.38l0 147.51c1.46,2.45 2.61,5.6 4.37,7.37 1.92,1.92 4.83,2.84 7.37,4.37l110.67 0c2.84,-1.77 9.9,-3.91 11.36,-11.97 1.3,-7.21 -0.77,-64.16 0.46,-67.08l26.09 -26.02c-1.15,-2.53 -1.3,-1.77 -2.92,-3.91 -4.3,1.84 -17.04,16.96 -23.33,22.1l-0.08 -6.68c2.84,-5.76 16.04,-14.43 18.65,-20.11l-3.91 -2.99c-4.14,3.38 -11.2,11.67 -14.73,14.05l-0.15 -16.27c-2.15,-1.84 -3.91,-4.61 -5.83,-6.91 -5.68,-6.75 -37.61,-40.52 -40.83,-45.28l-75.44 0c-2.45,1.46 -5.6,2.61 -7.37,4.37 -1.77,1.77 -2.92,4.91 -4.37,7.37l0 0.08z"/>
    <path class="fil0" d="M141.6 185.19l0.38 1 36.46 0 0.31 -3.3 0 -0.77 0 -2.76c-8.14,-1.46 -27.78,-0.46 -37.14,-0.46l0 6.22 -0 0.08z"/>
    <polygon class="fil0" points="141.6,163.93 178.82,163.93 178.82,160.63 178.82,159.86 178.82,156.64 179.97,156.64 140.06,156.64 141.6,156.64 "/>
    <path class="fil0" d="M276.67 150.65c2.38,-2.45 2.69,-3.15 6.14,-1.77 0.38,3.45 -0.54,3.99 -2.3,5.6l-3.84 -3.84 -0 0zm-7.83 0c1.08,2.3 9.36,10.52 11.59,11.59 3.15,-2.69 12.74,-10.67 5.83,-17.42 -6.91,-6.83 -14.81,2.61 -17.5,5.83l0.08 0z"/>
   </g>
  </g>
 </g>
</svg>
