<?xml version="1.0" encoding="UTF-8"?>
<!DOCTYPE svg PUBLIC "-//W3C//DTD SVG 1.1//EN" "http://www.w3.org/Graphics/SVG/1.1/DTD/svg11.dtd">
<!-- Creator: CorelDRAW 2021 (64-Bit) -->
<svg xmlns="http://www.w3.org/2000/svg" xml:space="preserve" width="5.76093in" height="0.462087in" version="1.1" style="shape-rendering:geometricPrecision; text-rendering:geometricPrecision; image-rendering:optimizeQuality; fill-rule:evenodd; clip-rule:evenodd"
viewBox="0 0 8724.09 699.76"
 xmlns:xlink="http://www.w3.org/1999/xlink"
 xmlns:xodm="http://www.corel.com/coreldraw/odm/2003">
 <defs>
  <style type="text/css">
   <![CDATA[
    .fil0 {fill:#373435}
   ]]>
  </style>
 </defs>
 <g id="Layer_x0020_1">
  <metadata id="CorelCorpID_0Corel-Layer"/>
  <g id="_1602266006096">
   <g id="_2180122370272">
    <path class="fil0" d="M349.88 0c193.31,0 349.88,156.57 349.88,349.88 8.49,148.68 171.35,218.48 250.82,221.7l7709.42 0c35.27,0 64.09,28.83 64.09,64.09l0 0c0,35.27 -28.83,64.09 -64.09,64.09l-8310.12 0c-193.31,0 -349.88,-156.57 -349.88,-349.88 0,-193.31 156.57,-349.88 349.88,-349.88zm0 128.18c122.48,0 221.7,99.21 221.7,221.7 0,122.48 -99.21,221.7 -221.7,221.7 -122.48,0 -221.7,-99.21 -221.7,-221.7 0,-122.48 99.21,-221.7 221.7,-221.7z"/>
    <path class="fil0" d="M221.25 414.86c-0.58,5.71 -1.46,14.63 -3.22,19.61 -1.17,3.51 -0.73,6.44 1.76,8.19 0.88,0.73 2.49,1.46 3.66,2.05 1.17,0.58 2.49,1.32 3.37,2.19 -9.95,12.59 -2.05,11.56 2.93,18.88 7.02,10.1 -3.51,35.85 28.39,35.12 10.24,-0.29 20.49,-0.73 30.59,-1.61 10.1,-0.73 31.9,-2.34 40.83,-6.73 2.05,-1.03 3.22,-1.61 4.98,-2.93 13.75,-9.66 20.63,-26.34 26.49,-45.51 1.32,-4.1 2.49,-8.05 3.66,-12.29 1.46,-4.98 0.29,-9.22 -4.83,-9.8 -5.71,-0.73 -6.44,3.37 -7.76,7.9 -5.27,18.14 -12.73,44.48 -28.53,51.51 -10.1,4.39 -44.19,6.15 -57.22,6.58 -11.56,0.44 -20.19,3.07 -21.22,-9.8 -0.44,-5.71 0,-8.49 -2.19,-13.75 -1.03,-2.49 -2.78,-5.56 -4.54,-7.61 -0.73,-0.88 -1.17,-1.32 -1.9,-2.19 0.73,-1.17 1.32,-1.61 2.34,-2.49 1.32,-1.17 1.76,-1.32 2.78,-2.19 3.22,-2.64 3.22,-8.49 -4.24,-12.14 -1.9,-0.88 -5.27,-2.34 -6.44,-3.66l2.64 -17.56c4.98,0 8.93,-2.49 7.61,-7.9 -1.32,-5.85 -7.46,-4.39 -11.27,-4.98 -6.58,-1.17 -20.49,-5.12 -24,-8.49 -3.51,-3.51 9.95,-21.8 12.59,-26.05l9.37 -15.22c18.29,-32.34 -3.95,-25.31 -3.95,-45.8 0,-13.46 10.83,-36.44 17.42,-47.56 4.1,-6.88 9.37,-13.02 13.9,-18.14 1.46,-1.61 2.49,-2.49 4.1,-3.8 43.76,-41.12 123.94,-32.49 168.87,-5.71 8.19,4.83 15.81,10.83 22.39,17.56 0.73,0.73 1.32,1.32 2.05,2.19 0.88,0.88 1.32,1.17 2.05,2.05l3.51 4.39c0.88,1.03 0.88,1.46 1.76,2.34 0.88,1.03 1.03,1.17 1.76,2.34 8.78,13.17 16.1,28.39 15.95,48.88 -0.29,24.58 -7.76,48.44 -21.95,66.58 -8.34,10.68 -18.14,19.61 -29.56,27.07 -13.17,8.49 -13.75,4.24 -13.17,19.17 0.88,22.1 6,48 13.61,67.46 1.03,2.64 3.8,9.37 5.12,10.83 2.93,3.22 9.07,1.17 10.39,-2.19 1.46,-3.37 -2.19,-9.22 -3.51,-12.29 -7.9,-19.9 -12.73,-45.8 -13.32,-67.9 2.64,-1.17 5.85,-3.37 8.19,-4.98l7.76 -5.41c5.85,-4.68 8.93,-6.88 14.2,-12.59 1.03,-1.03 2.19,-2.19 3.22,-3.22 0.88,-1.03 2.34,-2.49 3.07,-3.66l5.71 -7.46c20.05,-28.98 29.85,-69.65 16.53,-104.48 -6.15,-15.95 -15.81,-29.41 -26.78,-39.65 -4.83,-4.54 -8.78,-8.05 -14.34,-12 -25.17,-17.71 -55.9,-27.37 -91.31,-29.41 -33.66,-1.76 -67.6,4.83 -90.14,22.24 -6.44,4.98 -12.14,9.07 -17.56,15.66l-3.22 3.66c-8.19,9.22 -16.97,24.58 -22.1,37.9 -4.68,12.14 -11.12,29.85 -4.98,43.31 1.32,3.07 4.39,7.32 6.44,9.8 0.58,0.73 1.03,1.17 1.46,1.9 1.17,1.76 0.73,2.78 0,4.98 -8.78,25.17 -45.37,54 -20.49,69.51 4.68,2.93 13.46,6.15 19.61,7.17l0.72 0.14z"/>
    <path class="fil0" d="M305.25 319.3c-6.58,0.44 -15.07,0.15 -21.95,0 -3.37,0 -6,-0.88 -8.34,-2.49 -15.22,-10.98 -9.07,-29.41 6,-31.61 3.22,-0.44 6.58,-0.58 6,-4.54 -0.29,-2.49 -8.63,-14.2 3.66,-23.56 12.14,-9.37 20.19,4.39 24.73,0.15 1.32,-1.32 2.19,-5.41 3.07,-7.46 6.58,-13.46 21.07,-12 27.37,-3.07 1.76,2.49 2.19,4.39 3.22,7.61 1.17,3.37 4.1,4.39 6.58,1.76 3.07,-3.22 6.44,-7.61 13.75,-7.9 7.17,-0.29 12,3.66 14.34,7.61 3.8,6.29 1.17,15.66 8.05,12.73 4.1,-1.76 8.93,-6.15 17.27,-2.49 4.24,1.9 8.49,6.44 9.51,12 1.76,9.07 -4.83,13.02 -4.83,16.83 0.15,5.71 8.19,1.76 14.63,7.46 9.66,8.19 7.02,23.56 -4.54,27.51 -4.83,1.61 -4.1,0.15 -8.05,-0.88 -3.22,-0.88 -6.73,-0.58 -10.24,-0.58 -7.32,0 -14.63,-0.15 -21.95,-0.29 -13.17,-0.15 -28.68,-0.88 -36.29,7.32 -1.03,1.03 -1.46,2.19 -3.37,2.34 -3.07,0.29 -13.17,0 -15.66,-0.58 -12.29,-3.37 -14.78,-19.02 -3.95,-26.19 4.68,-3.22 12.88,-2.19 19.32,-2.19l32.92 0c7.17,0 7.02,8.49 12,9.8 3.22,0.88 6.29,-0.88 7.32,-3.07 2.64,-5.41 -4.1,-12.44 -6.29,-13.9 0.44,-1.9 2.34,-3.95 3.51,-6.29 5.56,-12.59 -5.27,-16.1 -9.66,-10.83 -1.32,1.76 -2.93,11.27 -7.17,11.71 -13.75,1.17 -43.02,-2.49 -54.58,2.05 -6.29,2.49 -11.56,7.76 -14.2,14.05 -0.88,2.05 -1.46,5.85 -2.19,7.17l0.02 -0.17zm2.19 -76.97c-6.58,-0.58 -9.07,-1.76 -15.95,0.44 -8.49,2.64 -15.07,8.93 -18.29,17.12 -2.34,6 -1.61,8.49 -1.61,14.93 -7.02,2.05 -13.61,8.93 -16.1,16.1 -3.22,9.07 -1.46,18.44 2.49,25.9 10.68,19.75 29.85,14.63 48.58,15.22 2.34,6.44 6.44,10.83 10.98,13.9 6.29,4.24 12.14,4.39 20.78,4.24 -0.44,5.71 -1.17,8.19 0.44,13.9 2.93,10.83 12.59,19.17 24,20.49 5.85,0.73 7.32,-0.15 12,3.07 2.64,1.76 4.98,4.54 6,8.78 1.17,4.98 2.34,22.54 4.24,25.17 2.49,3.37 7.61,3.51 10.24,0.15 2.19,-2.93 0.58,-8.49 0.15,-12.29 -1.17,-8.78 -1.46,-17.42 -5.71,-24 -9.8,-15.51 -24,-11.71 -30.14,-14.49 -10.39,-4.68 -13.46,-19.75 -1.46,-27.8 4.98,-3.37 20.49,-2.34 27.51,-2.34 5.56,0 25.31,-0.73 28.68,1.17 2.93,1.61 4.24,6.73 1.32,9.95 -2.64,2.93 -7.9,2.19 -12.59,2.19 -4.98,0 -10.1,0 -15.07,0 -5.12,0 -9.51,-0.73 -11.27,3.37 -1.9,4.39 0.88,8.49 4.83,9.07 3.95,0.44 10.53,0 14.78,0 9.66,0 19.17,1.46 26.05,-3.95 6.29,-4.83 8.78,-10.39 6.73,-21.22 9.95,-2.78 17.56,-14.34 18,-25.46 0.29,-6.58 -1.76,-12.44 -4.68,-16.83 -2.49,-3.8 -7.32,-8.63 -11.85,-9.8 1.03,-6.29 1.76,-9.95 -0.15,-16.24 -2.78,-8.93 -8.93,-15.36 -17.71,-18.58 -6.29,-2.34 -9.66,-1.76 -16.24,-1.03 -0.88,-3.07 -4.68,-7.76 -6.29,-9.22 -5.85,-5.56 -13.75,-8.63 -22.39,-7.9 -6.58,0.58 -8.19,2.49 -11.71,3.51 -1.32,-3.07 -6.44,-6.88 -10.1,-8.78 -4.39,-2.34 -9.8,-3.51 -15.51,-2.93 -11.71,1.03 -16.39,6.44 -22.68,14.78l-0.3 -0.6z"/>
    <path class="fil0" d="M308.47 289.3c9.51,1.17 16.68,1.17 24.88,-5.41 2.64,-2.05 3.37,-3.37 5.27,-5.27 7.17,2.93 15.36,4.1 23.27,0.88 12.14,-4.98 6.88,-13.9 1.03,-13.9 -3.22,0 -12.44,7.46 -20.93,0.29 -1.76,-1.46 -5.56,-6.73 -8.93,-3.66 -1.61,1.46 -1.61,4.98 -4.83,9.07 -3.51,4.83 -11.85,8.05 -19.75,4.24 -2.49,-1.17 -6.88,-5.27 -9.51,-2.19 -1.32,1.61 -1.03,8.63 -2.19,11.71 -1.61,4.39 -4.24,5.12 -5.71,7.9 -2.19,3.8 -0.15,7.9 3.07,9.07 6.73,2.34 12.88,-7.9 14.63,-12.88l-0.3 0.15z"/>
    <path class="fil0" d="M1031.21 349.73c0,12 -1.9,22.54 -5.56,31.75 -3.66,9.22 -9.07,16.97 -16.39,23.27 -7.17,6.29 -15.81,11.12 -26.19,14.49 -10.39,3.37 -22.54,4.98 -36.73,4.98l-17.85 0 0 67.75c0,1.17 -0.29,2.05 -1.03,2.93 -0.73,0.88 -1.9,1.61 -3.51,2.19 -1.61,0.58 -3.8,1.03 -6.58,1.32 -2.64,0.29 -6.29,0.44 -10.39,0.44 -4.1,0 -7.61,-0.15 -10.39,-0.44 -2.78,-0.29 -4.98,-0.73 -6.58,-1.32 -1.61,-0.58 -2.78,-1.32 -3.37,-2.19 -0.73,-0.88 -1.03,-1.9 -1.03,-2.93l0 -191.26c0,-5.12 1.32,-9.07 4.1,-11.56 2.64,-2.64 6.29,-3.8 10.53,-3.8l50.19 0c5.12,0 9.8,0.15 14.49,0.58 4.54,0.44 9.95,1.17 16.39,2.49 6.29,1.32 12.73,3.66 19.32,7.02 6.44,3.37 12.14,7.76 16.68,12.88 4.54,5.27 8.19,11.27 10.53,18.29 2.34,7.02 3.66,14.78 3.66,23.41l-0.29 -0.3zm3481.85 67.32l0 74.78c0,1.03 -0.29,2.05 -1.03,2.93 -0.73,0.88 -1.9,1.61 -3.51,2.19 -1.61,0.44 -3.8,1.03 -6.73,1.32 -2.78,0.29 -6.29,0.44 -10.39,0.44 -4.24,0 -7.76,-0.15 -10.53,-0.44 -2.64,-0.29 -4.98,-0.73 -6.58,-1.32 -1.76,-0.58 -2.93,-1.32 -3.51,-2.19 -0.73,-0.88 -1.03,-1.9 -1.03,-2.93l0 -74.78 -58.24 -115.9c-2.05,-4.1 -3.37,-7.17 -4.1,-9.51 -0.58,-2.19 -0.29,-3.95 1.03,-5.12 1.17,-1.17 3.66,-1.9 7.02,-2.19 3.37,-0.29 8.05,-0.44 14.05,-0.44 4.98,0 9.07,0.15 12,0.29 3.07,0.29 5.41,0.58 7.17,1.17 1.76,0.58 3.07,1.46 3.8,2.34 0.73,1.03 1.61,2.19 2.34,3.8l23.85 52.24c2.34,5.12 4.54,10.39 6.88,15.95 2.34,5.56 4.54,11.41 6.88,17.56l0.29 0c2.05,-6 4.24,-11.71 6.44,-17.27 2.19,-5.56 4.39,-10.83 6.44,-15.95l23.41 -51.95c0.58,-1.76 1.17,-3.22 2.05,-4.24 0.73,-1.03 2.05,-1.9 3.66,-2.64 1.61,-0.58 3.8,-1.03 6.73,-1.32 2.78,-0.29 6.58,-0.29 11.26,-0.29 6.29,0 11.12,0.15 14.49,0.44 3.51,0.29 5.85,1.03 7.02,2.19 1.32,1.17 1.61,2.93 0.88,5.27 -0.58,2.34 -1.9,5.41 -3.95,9.37l-58.24 115.9 0.14 0.29zm-111.22 75.22c0,1.17 -0.29,2.19 -0.73,3.07 -0.44,0.88 -1.46,1.46 -3.07,2.05 -1.76,0.44 -4.1,0.88 -7.17,1.17 -3.22,0.29 -7.46,0.29 -13.02,0.29 -4.54,0 -8.19,-0.15 -10.98,-0.29 -2.78,-0.29 -4.98,-0.58 -6.44,-1.17 -1.61,-0.58 -2.64,-1.32 -3.37,-2.34 -0.58,-1.03 -1.17,-2.05 -1.61,-3.37l-19.17 -47.56c-2.34,-5.41 -4.54,-10.24 -6.73,-14.34 -2.19,-4.24 -4.68,-7.76 -7.32,-10.53 -2.64,-2.78 -5.85,-4.83 -9.37,-6.29 -3.51,-1.46 -7.61,-2.19 -12.14,-2.19l-13.46 0 0 81.21c0,1.03 -0.29,2.05 -1.03,2.93 -0.73,0.88 -1.9,1.61 -3.51,2.19 -1.61,0.44 -3.8,1.03 -6.58,1.32 -2.64,0.29 -6.29,0.44 -10.39,0.44 -4.1,0 -7.61,-0.15 -10.39,-0.44 -2.78,-0.29 -4.98,-0.73 -6.58,-1.32 -1.61,-0.58 -2.78,-1.32 -3.37,-2.19 -0.73,-0.88 -1.03,-1.9 -1.03,-2.93l0 -193.16c0,-4.83 1.17,-8.34 3.66,-10.39 2.49,-2.19 5.56,-3.22 9.07,-3.22l55.02 0c5.56,0 10.24,0.15 13.75,0.29 3.66,0.29 6.88,0.44 9.8,0.73 8.49,1.17 16.24,3.37 23.12,6.29 6.88,2.93 12.73,6.73 17.42,11.56 4.83,4.83 8.49,10.39 10.98,16.83 2.49,6.44 3.8,13.9 3.8,22.39 0,7.02 -0.88,13.61 -2.64,19.46 -1.9,5.85 -4.54,11.12 -8.05,15.66 -3.51,4.54 -7.76,8.63 -13.02,12 -5.12,3.37 -10.98,6.15 -17.56,8.19 3.22,1.46 6.15,3.37 8.93,5.56 2.78,2.19 5.41,4.83 7.9,8.05 2.49,3.07 4.83,6.73 7.02,10.68 2.19,3.95 4.24,8.49 6.44,13.61l18 42c1.61,4.1 2.78,7.17 3.22,9.07 0.58,1.9 0.88,3.37 0.88,4.54l-0.29 0.14zm-55.9 -144.44c0,-7.02 -1.61,-13.02 -4.83,-17.71 -3.22,-4.83 -8.49,-8.19 -15.66,-10.24 -2.19,-0.58 -4.68,-1.03 -7.46,-1.32 -2.78,-0.29 -6.73,-0.44 -11.56,-0.44l-19.46 0 0 60.29 22.1 0c6.15,0 11.56,-0.73 16.1,-2.19 4.68,-1.46 8.49,-3.51 11.56,-6.29 3.07,-2.64 5.41,-5.85 6.88,-9.66 1.46,-3.66 2.34,-7.9 2.34,-12.44l-0.01 0zm-131.7 133.9c1.32,3.95 2.19,7.02 2.49,9.37 0.29,2.34 -0.15,4.1 -1.32,5.27 -1.17,1.17 -3.37,1.9 -6.44,2.19 -3.07,0.29 -7.32,0.44 -12.59,0.44 -5.56,0 -9.95,0 -13.02,-0.29 -3.07,-0.15 -5.56,-0.44 -7.17,-1.03 -1.61,-0.44 -2.78,-1.17 -3.37,-2.05 -0.73,-0.88 -1.17,-2.05 -1.61,-3.37l-13.9 -42.73 -80.19 0 -13.46 41.56c-0.44,1.61 -1.03,2.93 -1.76,3.8 -0.73,1.03 -1.9,1.9 -3.37,2.49 -1.61,0.58 -3.8,1.03 -6.73,1.17 -2.93,0.29 -6.73,0.29 -11.41,0.29 -5.12,0 -8.93,-0.15 -11.85,-0.44 -2.93,-0.29 -4.83,-1.17 -5.85,-2.34 -1.17,-1.32 -1.46,-3.07 -1.17,-5.41 0.29,-2.34 1.17,-5.27 2.49,-9.22l65.56 -188.77c0.58,-1.9 1.46,-3.37 2.34,-4.54 0.88,-1.17 2.19,-2.05 4.1,-2.64 1.9,-0.58 4.54,-1.03 8.05,-1.17 3.37,-0.15 7.9,-0.29 13.46,-0.29 6.44,0 11.56,0 15.36,0.29 3.8,0.15 6.88,0.58 8.93,1.17 2.19,0.58 3.66,1.46 4.54,2.64 0.88,1.17 1.76,2.93 2.34,4.98l65.7 188.63 -0.14 0zm-97.6 -156.13l-0.15 0 -29.56 90.43 59.7 0 -29.85 -90.43 -0.14 0zm-123.07 166.38c0,1.03 -0.29,2.05 -0.88,2.93 -0.58,0.88 -1.76,1.61 -3.37,2.19 -1.61,0.44 -3.66,1.03 -6.29,1.32 -2.64,0.29 -6,0.44 -10.1,0.44 -3.95,0 -7.32,-0.15 -9.95,-0.44 -2.64,-0.29 -4.68,-0.73 -6.29,-1.32 -1.46,-0.58 -2.64,-1.32 -3.22,-2.19 -0.73,-0.88 -1.03,-1.9 -1.03,-2.93l0 -173.11 -0.29 0 -61.46 172.96c-0.44,1.46 -1.17,2.64 -2.19,3.51 -1.03,1.03 -2.34,1.61 -4.1,2.19 -1.61,0.44 -3.8,0.88 -6.44,1.03 -2.64,0.15 -5.85,0.29 -9.51,0.29 -3.8,0 -6.88,-0.15 -9.51,-0.44 -2.64,-0.29 -4.83,-0.73 -6.44,-1.32 -1.61,-0.58 -3.07,-1.32 -4.1,-2.19 -1.03,-0.88 -1.61,-1.9 -1.9,-3.07l-59.26 -172.96 -0.29 0 0 173.11c0,1.03 -0.29,2.05 -0.88,2.93 -0.58,0.88 -1.76,1.61 -3.37,2.19 -1.61,0.44 -3.8,1.03 -6.44,1.32 -2.64,0.29 -5.85,0.44 -9.95,0.44 -3.95,0 -7.32,-0.15 -9.95,-0.44 -2.64,-0.29 -4.83,-0.73 -6.29,-1.32 -1.61,-0.58 -2.64,-1.32 -3.37,-2.19 -0.58,-0.88 -0.88,-1.9 -0.88,-2.93l0 -189.5c0,-5.56 1.46,-9.8 4.39,-12.88 2.93,-2.93 6.88,-4.39 11.85,-4.39l28.24 0c5.12,0 9.37,0.44 13.02,1.17 3.66,0.88 6.73,2.19 9.37,4.1 2.64,1.9 4.83,4.39 6.58,7.61 1.76,3.07 3.37,7.02 4.54,11.56l45.8 126.72 0.73 0 47.41 -126.43c1.46,-4.54 2.93,-8.49 4.68,-11.71 1.76,-3.07 3.66,-5.71 6,-7.76 2.19,-1.9 4.98,-3.37 7.9,-4.24 3.07,-0.88 6.73,-1.17 10.68,-1.17l29.12 0c2.93,0 5.56,0.44 7.61,1.17 2.19,0.73 3.95,1.9 5.27,3.37 1.46,1.46 2.34,3.22 3.07,5.41 0.73,2.19 1.03,4.54 1.03,7.32l0 189.5 0.45 0.16zm-294.13 0c0,1.03 -0.29,2.05 -0.88,2.93 -0.58,0.88 -1.76,1.61 -3.37,2.19 -1.61,0.44 -3.66,1.03 -6.29,1.32 -2.64,0.29 -6,0.44 -10.1,0.44 -3.95,0 -7.32,-0.15 -9.95,-0.44 -2.64,-0.29 -4.68,-0.73 -6.29,-1.32 -1.46,-0.58 -2.64,-1.32 -3.22,-2.19 -0.73,-0.88 -1.03,-1.9 -1.03,-2.93l0 -173.11 -0.29 0 -61.46 172.96c-0.44,1.46 -1.17,2.64 -2.19,3.51 -1.03,1.03 -2.34,1.61 -4.1,2.19 -1.61,0.44 -3.8,0.88 -6.44,1.03 -2.64,0.15 -5.85,0.29 -9.51,0.29 -3.8,0 -6.88,-0.15 -9.51,-0.44 -2.64,-0.29 -4.83,-0.73 -6.44,-1.32 -1.61,-0.58 -3.07,-1.32 -4.1,-2.19 -1.03,-0.88 -1.61,-1.9 -1.9,-3.07l-59.26 -172.96 -0.29 0 0 173.11c0,1.03 -0.29,2.05 -0.88,2.93 -0.58,0.88 -1.76,1.61 -3.37,2.19 -1.61,0.44 -3.8,1.03 -6.44,1.32 -2.64,0.29 -5.85,0.44 -9.95,0.44 -3.95,0 -7.32,-0.15 -9.95,-0.44 -2.64,-0.29 -4.83,-0.73 -6.29,-1.32 -1.61,-0.58 -2.64,-1.32 -3.37,-2.19 -0.58,-0.88 -0.88,-1.9 -0.88,-2.93l0 -189.5c0,-5.56 1.46,-9.8 4.39,-12.88 2.93,-2.93 6.88,-4.39 11.85,-4.39l28.24 0c5.12,0 9.37,0.44 13.02,1.17 3.66,0.88 6.73,2.19 9.37,4.1 2.64,1.9 4.83,4.39 6.58,7.61 1.76,3.07 3.37,7.02 4.54,11.56l45.8 126.72 0.73 0 47.41 -126.43c1.46,-4.54 2.93,-8.49 4.68,-11.71 1.76,-3.07 3.66,-5.71 6,-7.76 2.19,-1.9 4.98,-3.37 7.9,-4.24 3.07,-0.88 6.73,-1.17 10.68,-1.17l29.12 0c2.93,0 5.56,0.44 7.61,1.17 2.19,0.73 3.95,1.9 5.27,3.37 1.46,1.46 2.34,3.22 3.07,5.41 0.73,2.19 1.03,4.54 1.03,7.32l0 189.5 0.45 0.16zm-294.13 -73.31c0,13.02 -1.9,24.73 -5.71,34.97 -3.8,10.39 -9.37,19.02 -16.83,26.19 -7.46,7.17 -16.68,12.59 -27.66,16.24 -10.98,3.8 -23.56,5.56 -37.75,5.56 -13.32,0 -25.31,-1.61 -36,-4.98 -10.68,-3.37 -19.61,-8.34 -26.92,-15.22 -7.32,-6.73 -13.02,-15.22 -16.83,-25.46 -3.8,-10.1 -5.85,-21.95 -5.85,-35.56l0 -129.36c0,-1.03 0.29,-2.05 1.03,-2.93 0.58,-0.88 1.76,-1.61 3.51,-2.19 1.61,-0.58 3.95,-1.03 6.73,-1.32 2.64,-0.29 6.29,-0.44 10.53,-0.44 4.1,0 7.61,0.15 10.24,0.44 2.78,0.29 4.98,0.73 6.58,1.32 1.61,0.58 2.78,1.32 3.51,2.19 0.73,0.88 1.03,1.9 1.03,2.93l0 125.7c0,8.49 1.03,15.81 3.07,21.95 2.05,6.15 4.98,11.27 8.93,15.36 3.8,4.1 8.49,7.17 13.9,9.07 5.41,2.05 11.56,3.07 18.14,3.07 6.73,0 12.88,-1.03 18.29,-3.07 5.41,-2.05 9.95,-5.12 13.75,-9.07 3.66,-4.1 6.58,-8.93 8.63,-14.78 2.05,-5.85 3.07,-12.59 3.07,-20.05l0 -128.04c0,-1.03 0.29,-2.05 1.03,-2.93 0.58,-0.88 1.76,-1.61 3.37,-2.19 1.61,-0.58 3.8,-1.03 6.73,-1.32 2.78,-0.29 6.29,-0.44 10.39,-0.44 4.1,0 7.61,0.15 10.24,0.44 2.64,0.29 4.83,0.73 6.44,1.32 1.61,0.58 2.78,1.32 3.37,2.19 0.73,0.88 1.03,1.9 1.03,2.93l0 127.61 0.01 -0.14zm-206.18 15.36c0,11.27 -2.05,20.93 -6.29,29.41 -4.24,8.34 -9.8,15.36 -16.97,21.07 -7.17,5.56 -15.51,9.8 -25.02,12.73 -9.51,2.93 -19.75,4.24 -30.59,4.24 -7.32,0 -14.2,-0.58 -20.49,-1.9 -6.29,-1.17 -11.85,-2.64 -16.68,-4.39 -4.83,-1.61 -8.93,-3.51 -12.14,-5.41 -3.22,-1.9 -5.56,-3.66 -7.02,-4.98 -1.46,-1.46 -2.34,-3.51 -3.07,-6.29 -0.58,-2.64 -0.88,-6.44 -0.88,-11.56 0,-3.37 0.15,-6.29 0.29,-8.49 0.29,-2.34 0.58,-4.1 1.03,-5.56 0.44,-1.46 1.17,-2.34 1.9,-3.07 0.88,-0.58 1.76,-0.88 2.93,-0.88 1.46,0 3.66,0.88 6.44,2.78 2.78,1.76 6.44,3.8 10.83,6 4.39,2.19 9.66,4.24 15.81,6 6,1.9 13.17,2.78 21.22,2.78 5.27,0 9.95,-0.58 14.2,-1.9 4.24,-1.32 7.76,-3.07 10.68,-5.27 2.93,-2.34 5.12,-5.12 6.73,-8.49 1.46,-3.37 2.34,-7.17 2.34,-11.27 0,-4.83 -1.32,-8.93 -3.95,-12.44 -2.64,-3.51 -6,-6.44 -10.39,-9.22 -4.24,-2.64 -9.07,-5.27 -14.49,-7.61 -5.27,-2.34 -10.83,-4.83 -16.53,-7.46 -5.71,-2.64 -11.27,-5.56 -16.53,-8.93 -5.41,-3.37 -10.24,-7.32 -14.49,-12 -4.24,-4.68 -7.76,-10.1 -10.39,-16.53 -2.64,-6.29 -3.95,-13.9 -3.95,-22.83 0,-10.1 1.9,-19.17 5.71,-26.92 3.8,-7.76 8.93,-14.05 15.22,-19.17 6.44,-5.12 13.9,-8.93 22.68,-11.41 8.63,-2.49 18,-3.8 27.66,-3.8 4.98,0 10.1,0.44 15.07,1.17 5.12,0.73 9.8,1.76 14.2,3.07 4.39,1.32 8.19,2.78 11.71,4.39 3.37,1.61 5.56,3.07 6.73,4.1 1.03,1.03 1.76,2.05 2.19,2.78 0.44,0.73 0.73,1.76 1.03,3.07 0.29,1.17 0.44,2.78 0.58,4.83 0.15,1.9 0.15,4.24 0.15,7.17 0,3.07 0,5.85 -0.29,8.05 -0.15,2.19 -0.44,3.95 -0.88,5.41 -0.44,1.46 -1.03,2.49 -1.61,3.07 -0.73,0.73 -1.61,1.03 -2.93,1.03 -1.17,0 -3.07,-0.73 -5.71,-2.34 -2.64,-1.46 -5.85,-3.22 -9.66,-4.98 -3.8,-1.76 -8.34,-3.37 -13.32,-4.83 -5.12,-1.46 -10.53,-2.19 -16.53,-2.19 -4.68,0 -8.78,0.58 -12.29,1.76 -3.51,1.17 -6.44,2.78 -8.78,4.83 -2.34,2.05 -4.1,4.39 -5.27,7.32 -1.17,2.93 -1.76,5.85 -1.76,9.07 0,4.68 1.32,8.78 3.8,12.29 2.64,3.51 6,6.58 10.39,9.22 4.24,2.64 9.22,5.12 14.78,7.46 5.41,2.34 10.98,4.83 16.83,7.46 5.71,2.64 11.27,5.56 16.83,8.93 5.56,3.37 10.39,7.32 14.63,12 4.24,4.68 7.76,10.1 10.39,16.39 2.64,6.29 3.95,13.75 3.95,22.24l-0.02 0.01zm-227.7 45.8c0,3.22 -0.15,6 -0.44,8.34 -0.29,2.19 -0.73,4.1 -1.17,5.56 -0.58,1.46 -1.17,2.64 -2.05,3.22 -0.88,0.73 -1.76,1.03 -2.93,1.03l-97.46 0c-3.66,0 -6.58,-1.03 -9.07,-3.22 -2.49,-2.19 -3.66,-5.56 -3.66,-10.39l0 -193.16c0,-1.03 0.29,-2.05 1.03,-2.93 0.73,-0.88 1.9,-1.61 3.51,-2.19 1.61,-0.58 3.8,-1.03 6.73,-1.32 2.78,-0.29 6.29,-0.44 10.39,-0.44 4.24,0 7.76,0.15 10.53,0.44 2.64,0.29 4.98,0.73 6.58,1.32 1.61,0.58 2.78,1.32 3.51,2.19 0.73,0.88 1.03,1.9 1.03,2.93l0 171.06 66.73 0c1.03,0 2.05,0.29 2.93,0.88 0.88,0.58 1.46,1.61 2.05,2.93 0.58,1.32 1.03,3.07 1.17,5.41 0.29,2.19 0.44,4.98 0.44,8.34l0.15 0zm-146.62 1.9c1.32,3.95 2.19,7.02 2.49,9.37 0.29,2.34 -0.15,4.1 -1.32,5.27 -1.17,1.17 -3.37,1.9 -6.44,2.19 -3.07,0.29 -7.32,0.44 -12.59,0.44 -5.56,0 -9.95,0 -13.02,-0.29 -3.07,-0.15 -5.56,-0.44 -7.17,-1.03 -1.61,-0.44 -2.78,-1.17 -3.37,-2.05 -0.73,-0.88 -1.17,-2.05 -1.61,-3.37l-13.9 -42.73 -80.19 0 -13.46 41.56c-0.44,1.61 -1.03,2.93 -1.76,3.8 -0.73,1.03 -1.9,1.9 -3.37,2.49 -1.61,0.58 -3.8,1.03 -6.73,1.17 -2.93,0.29 -6.73,0.29 -11.41,0.29 -5.12,0 -8.93,-0.15 -11.85,-0.44 -2.93,-0.29 -4.83,-1.17 -5.85,-2.34 -1.17,-1.32 -1.46,-3.07 -1.17,-5.41 0.29,-2.34 1.17,-5.27 2.49,-9.22l65.56 -188.77c0.58,-1.9 1.46,-3.37 2.34,-4.54 0.88,-1.17 2.19,-2.05 4.1,-2.64 1.9,-0.58 4.54,-1.03 8.05,-1.17 3.37,-0.15 7.9,-0.29 13.46,-0.29 6.44,0 11.56,0 15.36,0.29 3.8,0.15 6.88,0.58 8.93,1.17 2.19,0.58 3.66,1.46 4.54,2.64 0.88,1.17 1.76,2.93 2.34,4.98l65.7 188.63 -0.14 0zm-97.6 -156.13l-0.15 0 -29.56 90.43 59.7 0 -29.85 -90.43 -0.14 0zm-122.92 157.16c0,2.49 -0.44,4.83 -1.32,6.73 -0.88,1.9 -2.05,3.66 -3.66,4.98 -1.46,1.32 -3.22,2.19 -5.27,2.93 -2.05,0.58 -4.1,0.88 -6.15,0.88l-18.44 0c-3.8,0 -7.17,-0.44 -9.95,-1.17 -2.78,-0.73 -5.27,-2.19 -7.61,-4.24 -2.49,-2.05 -4.68,-4.83 -6.88,-8.19 -2.19,-3.37 -4.68,-7.9 -7.46,-13.46l-52.82 -99.51c-3.07,-6 -6.15,-12.29 -9.37,-19.17 -3.22,-6.88 -6,-13.46 -8.49,-19.9l-0.29 0c0.44,7.9 0.73,15.81 1.03,23.56 0.29,7.76 0.29,15.95 0.29,24.29l0 111.36c0,1.03 -0.29,2.05 -0.88,2.93 -0.58,0.88 -1.76,1.61 -3.07,2.19 -1.46,0.58 -3.51,1.03 -6,1.46 -2.49,0.29 -5.71,0.44 -9.66,0.44 -3.8,0 -7.02,-0.15 -9.66,-0.44 -2.49,-0.29 -4.54,-0.73 -5.85,-1.46 -1.46,-0.58 -2.49,-1.32 -2.93,-2.19 -0.58,-0.88 -0.88,-1.9 -0.88,-2.93l0 -191.11c0,-5.12 1.46,-9.07 4.54,-11.56 2.93,-2.64 6.73,-3.8 11.12,-3.8l23.12 0c4.1,0 7.61,0.29 10.53,1.03 2.93,0.73 5.41,1.9 7.61,3.51 2.19,1.61 4.39,3.95 6.29,6.88 1.9,2.93 3.95,6.44 6,10.83l41.26 77.85c2.34,4.68 4.83,9.37 7.17,13.9 2.34,4.54 4.68,9.07 6.73,13.61 2.19,4.54 4.24,9.07 6.44,13.46 2.19,4.39 4.1,8.78 6.15,13.17l0.15 0c-0.29,-7.76 -0.58,-15.66 -0.73,-24 -0.15,-8.34 -0.29,-16.39 -0.29,-23.85l0 -99.8c0,-1.03 0.29,-2.05 1.03,-2.93 0.58,-0.88 1.76,-1.61 3.22,-2.34 1.61,-0.73 3.66,-1.17 6.15,-1.46 2.49,-0.29 5.71,-0.44 9.66,-0.44 3.8,0 6.88,0.15 9.37,0.44 2.49,0.29 4.39,0.73 5.85,1.46 1.32,0.73 2.34,1.46 2.93,2.34 0.58,0.88 0.88,1.9 0.88,2.93l0 191.11 0.16 -0.31zm-211.75 -93.65c0,17.56 -2.19,33.36 -6.58,47.27 -4.39,13.9 -10.83,25.76 -19.61,35.41 -8.63,9.66 -19.32,17.12 -32.05,22.24 -12.73,5.12 -27.51,7.61 -44.34,7.61 -16.53,0 -31.02,-2.19 -43.31,-6.44 -12.29,-4.39 -22.54,-10.83 -30.88,-19.75 -8.19,-8.93 -14.34,-20.19 -18.44,-33.8 -4.1,-13.75 -6.15,-29.85 -6.15,-48.58 0,-17.12 2.19,-32.63 6.58,-46.39 4.39,-13.75 10.83,-25.46 19.61,-35.12 8.63,-9.66 19.32,-17.12 32.05,-22.1 12.73,-5.12 27.66,-7.76 44.48,-7.76 16.1,0 30.29,2.19 42.58,6.44 12.29,4.24 22.54,10.83 30.88,19.75 8.34,8.93 14.49,20.05 18.73,33.51 4.24,13.61 6.29,29.56 6.29,47.85l0.16 -0.14zm-45.36 2.19c0,-11.12 -0.88,-21.36 -2.64,-30.44 -1.76,-9.07 -4.68,-16.97 -8.93,-23.56 -4.24,-6.44 -9.8,-11.56 -16.83,-15.07 -7.02,-3.51 -15.81,-5.27 -26.19,-5.27 -10.53,0 -19.46,2.05 -26.49,6 -7.17,3.95 -12.88,9.37 -17.27,16.1 -4.39,6.73 -7.46,14.49 -9.22,23.41 -1.76,8.93 -2.64,18.44 -2.64,28.39 0,11.56 0.88,22.1 2.64,31.31 1.76,9.22 4.68,17.12 8.93,23.85 4.1,6.58 9.66,11.56 16.68,15.07 7.02,3.37 15.81,5.12 26.49,5.12 10.53,0 19.46,-1.9 26.49,-6 7.17,-3.95 12.88,-9.37 17.27,-16.1 4.39,-6.73 7.46,-14.63 9.22,-23.71 1.76,-9.07 2.64,-18.73 2.64,-28.83l-0.15 -0.29zm-191.99 100.67c0,1.03 -0.29,2.05 -1.03,2.93 -0.73,0.88 -1.9,1.61 -3.51,2.19 -1.61,0.44 -3.8,1.03 -6.58,1.32 -2.78,0.29 -6.29,0.44 -10.53,0.44 -4.1,0 -7.61,-0.15 -10.39,-0.44 -2.78,-0.29 -5.12,-0.73 -6.73,-1.32 -1.61,-0.58 -2.78,-1.32 -3.51,-2.19 -0.73,-0.88 -1.03,-1.9 -1.03,-2.93l0 -200.91c0,-1.03 0.29,-2.05 1.03,-2.93 0.73,-0.88 1.9,-1.61 3.66,-2.19 1.61,-0.58 3.8,-1.03 6.58,-1.32 2.78,-0.29 6.29,-0.44 10.39,-0.44 4.24,0 7.76,0.15 10.53,0.44 2.64,0.29 4.98,0.73 6.58,1.32 1.61,0.58 2.78,1.32 3.51,2.19 0.73,0.88 1.03,1.9 1.03,2.93l0 200.91zm-76.24 -57.94c0,11.27 -2.05,20.93 -6.29,29.41 -4.24,8.34 -9.8,15.36 -16.97,21.07 -7.17,5.56 -15.51,9.8 -25.02,12.73 -9.51,2.93 -19.75,4.24 -30.59,4.24 -7.32,0 -14.2,-0.58 -20.49,-1.9 -6.29,-1.17 -11.85,-2.64 -16.68,-4.39 -4.83,-1.61 -8.93,-3.51 -12.14,-5.41 -3.22,-1.9 -5.56,-3.66 -7.02,-4.98 -1.46,-1.46 -2.34,-3.51 -3.07,-6.29 -0.58,-2.64 -0.88,-6.44 -0.88,-11.56 0,-3.37 0.15,-6.29 0.29,-8.49 0.29,-2.34 0.58,-4.1 1.03,-5.56 0.44,-1.46 1.17,-2.34 1.9,-3.07 0.88,-0.58 1.76,-0.88 2.93,-0.88 1.46,0 3.66,0.88 6.44,2.78 2.78,1.76 6.44,3.8 10.83,6 4.39,2.19 9.66,4.24 15.81,6 6,1.9 13.17,2.78 21.22,2.78 5.27,0 9.95,-0.58 14.2,-1.9 4.24,-1.32 7.76,-3.07 10.68,-5.27 2.93,-2.34 5.12,-5.12 6.73,-8.49 1.46,-3.37 2.34,-7.17 2.34,-11.27 0,-4.83 -1.32,-8.93 -3.95,-12.44 -2.64,-3.51 -6,-6.44 -10.39,-9.22 -4.24,-2.64 -9.07,-5.27 -14.49,-7.61 -5.27,-2.34 -10.83,-4.83 -16.53,-7.46 -5.71,-2.64 -11.27,-5.56 -16.53,-8.93 -5.41,-3.37 -10.24,-7.32 -14.49,-12 -4.24,-4.68 -7.76,-10.1 -10.39,-16.53 -2.64,-6.29 -3.95,-13.9 -3.95,-22.83 0,-10.1 1.9,-19.17 5.71,-26.92 3.8,-7.76 8.93,-14.05 15.22,-19.17 6.44,-5.12 13.9,-8.93 22.68,-11.41 8.63,-2.49 18,-3.8 27.66,-3.8 4.98,0 10.1,0.44 15.07,1.17 5.12,0.73 9.8,1.76 14.2,3.07 4.39,1.32 8.19,2.78 11.71,4.39 3.37,1.61 5.56,3.07 6.73,4.1 1.03,1.03 1.76,2.05 2.19,2.78 0.44,0.73 0.73,1.76 1.03,3.07 0.29,1.17 0.44,2.78 0.58,4.83 0.15,1.9 0.15,4.24 0.15,7.17 0,3.07 0,5.85 -0.29,8.05 -0.15,2.19 -0.44,3.95 -0.88,5.41 -0.44,1.46 -1.03,2.49 -1.61,3.07 -0.73,0.73 -1.61,1.03 -2.93,1.03 -1.17,0 -3.07,-0.73 -5.71,-2.34 -2.64,-1.46 -5.85,-3.22 -9.66,-4.98 -3.8,-1.76 -8.34,-3.37 -13.32,-4.83 -5.12,-1.46 -10.53,-2.19 -16.53,-2.19 -4.68,0 -8.78,0.58 -12.29,1.76 -3.51,1.17 -6.44,2.78 -8.78,4.83 -2.34,2.05 -4.1,4.39 -5.27,7.32 -1.17,2.93 -1.76,5.85 -1.76,9.07 0,4.68 1.32,8.78 3.8,12.29 2.64,3.51 6,6.58 10.39,9.22 4.24,2.64 9.22,5.12 14.78,7.46 5.41,2.34 10.98,4.83 16.83,7.46 5.71,2.64 11.27,5.56 16.83,8.93 5.56,3.37 10.39,7.32 14.63,12 4.24,4.68 7.76,10.1 10.39,16.39 2.64,6.29 3.95,13.75 3.95,22.24l-0.02 0.01zm-159.06 0c0,11.27 -2.05,20.93 -6.29,29.41 -4.24,8.34 -9.8,15.36 -16.97,21.07 -7.17,5.56 -15.51,9.8 -25.02,12.73 -9.51,2.93 -19.75,4.24 -30.59,4.24 -7.32,0 -14.2,-0.58 -20.49,-1.9 -6.29,-1.17 -11.85,-2.64 -16.68,-4.39 -4.83,-1.61 -8.93,-3.51 -12.14,-5.41 -3.22,-1.9 -5.56,-3.66 -7.02,-4.98 -1.46,-1.46 -2.34,-3.51 -3.07,-6.29 -0.58,-2.64 -0.88,-6.44 -0.88,-11.56 0,-3.37 0.15,-6.29 0.29,-8.49 0.29,-2.34 0.58,-4.1 1.03,-5.56 0.44,-1.46 1.17,-2.34 1.9,-3.07 0.88,-0.58 1.76,-0.88 2.93,-0.88 1.46,0 3.66,0.88 6.44,2.78 2.78,1.76 6.44,3.8 10.83,6 4.39,2.19 9.66,4.24 15.81,6 6,1.9 13.17,2.78 21.22,2.78 5.27,0 9.95,-0.58 14.2,-1.9 4.24,-1.32 7.76,-3.07 10.68,-5.27 2.93,-2.34 5.12,-5.12 6.73,-8.49 1.46,-3.37 2.34,-7.17 2.34,-11.27 0,-4.83 -1.32,-8.93 -3.95,-12.44 -2.64,-3.51 -6,-6.44 -10.39,-9.22 -4.24,-2.64 -9.07,-5.27 -14.49,-7.61 -5.27,-2.34 -10.83,-4.83 -16.53,-7.46 -5.71,-2.64 -11.27,-5.56 -16.53,-8.93 -5.41,-3.37 -10.24,-7.32 -14.49,-12 -4.24,-4.68 -7.76,-10.1 -10.39,-16.53 -2.64,-6.29 -3.95,-13.9 -3.95,-22.83 0,-10.1 1.9,-19.17 5.71,-26.92 3.8,-7.76 8.93,-14.05 15.22,-19.17 6.44,-5.12 13.9,-8.93 22.68,-11.41 8.63,-2.49 18,-3.8 27.66,-3.8 4.98,0 10.1,0.44 15.07,1.17 5.12,0.73 9.8,1.76 14.2,3.07 4.39,1.32 8.19,2.78 11.71,4.39 3.37,1.61 5.56,3.07 6.73,4.1 1.03,1.03 1.76,2.05 2.19,2.78 0.44,0.73 0.73,1.76 1.03,3.07 0.29,1.17 0.44,2.78 0.58,4.83 0.15,1.9 0.15,4.24 0.15,7.17 0,3.07 0,5.85 -0.29,8.05 -0.15,2.19 -0.44,3.95 -0.88,5.41 -0.44,1.46 -1.03,2.49 -1.61,3.07 -0.73,0.73 -1.61,1.03 -2.93,1.03 -1.17,0 -3.07,-0.73 -5.71,-2.34 -2.64,-1.46 -5.85,-3.22 -9.66,-4.98 -3.8,-1.76 -8.34,-3.37 -13.32,-4.83 -5.12,-1.46 -10.53,-2.19 -16.53,-2.19 -4.68,0 -8.78,0.58 -12.29,1.76 -3.51,1.17 -6.44,2.78 -8.78,4.83 -2.34,2.05 -4.1,4.39 -5.27,7.32 -1.17,2.93 -1.76,5.85 -1.76,9.07 0,4.68 1.32,8.78 3.8,12.29 2.64,3.51 6,6.58 10.39,9.22 4.24,2.64 9.22,5.12 14.78,7.46 5.41,2.34 10.98,4.83 16.83,7.46 5.71,2.64 11.27,5.56 16.83,8.93 5.56,3.37 10.39,7.32 14.63,12 4.24,4.68 7.76,10.1 10.39,16.39 2.64,6.29 3.95,13.75 3.95,22.24l-0.02 0.01zm-161.26 46.83c0,3.22 -0.15,5.85 -0.44,8.05 -0.29,2.19 -0.73,3.8 -1.17,5.12 -0.58,1.32 -1.17,2.34 -2.05,2.93 -0.73,0.58 -1.76,0.88 -2.64,0.88l-106.68 0c-3.66,0 -6.58,-1.03 -9.07,-3.22 -2.49,-2.19 -3.66,-5.56 -3.66,-10.39l0 -185.41c0,-4.83 1.17,-8.34 3.66,-10.39 2.49,-2.19 5.56,-3.22 9.07,-3.22l106.24 0c1.03,0 1.9,0.29 2.64,0.88 0.73,0.58 1.46,1.46 1.9,2.93 0.44,1.46 1.03,3.07 1.17,5.27 0.29,2.19 0.44,4.83 0.44,8.19 0,3.07 -0.15,5.71 -0.44,7.9 -0.29,2.19 -0.73,3.8 -1.17,5.12 -0.58,1.32 -1.17,2.34 -1.9,2.93 -0.73,0.58 -1.61,0.88 -2.64,0.88l-75.94 0 0 51.8 63.95 0c1.03,0 1.9,0.29 2.64,0.88 0.88,0.58 1.46,1.46 2.05,2.78 0.58,1.17 1.03,2.93 1.17,5.12 0.29,2.19 0.44,4.68 0.44,7.76 0,3.22 -0.15,5.85 -0.44,7.9 -0.29,2.05 -0.73,3.8 -1.17,4.98 -0.58,1.32 -1.17,2.19 -2.05,2.64 -0.73,0.58 -1.61,0.88 -2.64,0.88l-63.95 0 0 59.85 76.39 0c1.03,0 1.9,0.29 2.64,0.88 0.88,0.58 1.46,1.61 2.05,2.93 0.58,1.32 1.03,3.07 1.17,5.12 0.29,2.19 0.44,4.83 0.44,8.05l0 0.01zm-160.82 -177.94c0,3.37 -0.15,6 -0.44,8.34 -0.29,2.19 -0.73,4.1 -1.32,5.41 -0.58,1.32 -1.32,2.34 -2.05,2.93 -0.73,0.73 -1.61,1.03 -2.64,1.03l-69.65 0 0 57.22 65.41 0c1.03,0 1.9,0.29 2.64,0.88 0.73,0.44 1.46,1.46 2.05,2.78 0.58,1.32 1.03,3.07 1.32,5.27 0.29,2.19 0.44,4.98 0.44,8.19 0,3.22 -0.15,6 -0.44,8.19 -0.29,2.19 -0.73,3.95 -1.32,5.41 -0.58,1.46 -1.32,2.34 -2.05,3.07 -0.73,0.58 -1.61,0.88 -2.64,0.88l-65.41 0 0 79.31c0,1.17 -0.29,2.19 -1.03,3.07 -0.58,0.88 -1.76,1.61 -3.51,2.19 -1.61,0.58 -3.95,1.03 -6.58,1.46 -2.78,0.29 -6.29,0.44 -10.53,0.44 -4.1,0 -7.61,-0.15 -10.39,-0.44 -2.78,-0.29 -5.12,-0.73 -6.73,-1.46 -1.61,-0.58 -2.78,-1.32 -3.51,-2.19 -0.73,-0.88 -1.03,-1.9 -1.03,-3.07l0 -192.87c0,-4.83 1.17,-8.34 3.66,-10.39 2.49,-2.19 5.56,-3.22 9.07,-3.22l100.24 0c1.03,0 1.9,0.29 2.64,0.88 0.73,0.58 1.46,1.61 2.05,2.93 0.58,1.32 1.03,3.22 1.32,5.56 0.29,2.34 0.44,5.12 0.44,8.34l-0.01 -0.14zm-155.99 86.19c0,17.56 -2.19,33.36 -6.58,47.27 -4.39,13.9 -10.83,25.76 -19.61,35.41 -8.63,9.66 -19.32,17.12 -32.05,22.24 -12.73,5.12 -27.51,7.61 -44.34,7.61 -16.53,0 -31.02,-2.19 -43.31,-6.44 -12.29,-4.39 -22.54,-10.83 -30.88,-19.75 -8.19,-8.93 -14.34,-20.19 -18.44,-33.8 -4.1,-13.75 -6.15,-29.85 -6.15,-48.58 0,-17.12 2.19,-32.63 6.58,-46.39 4.39,-13.75 10.83,-25.46 19.61,-35.12 8.63,-9.66 19.32,-17.12 32.05,-22.1 12.73,-5.12 27.66,-7.76 44.48,-7.76 16.1,0 30.29,2.19 42.58,6.44 12.29,4.24 22.54,10.83 30.88,19.75 8.34,8.93 14.49,20.05 18.73,33.51 4.24,13.61 6.29,29.56 6.29,47.85l0.16 -0.14zm-45.37 2.19c0,-11.12 -0.88,-21.36 -2.64,-30.44 -1.76,-9.07 -4.68,-16.97 -8.93,-23.56 -4.24,-6.44 -9.8,-11.56 -16.83,-15.07 -7.02,-3.51 -15.81,-5.27 -26.19,-5.27 -10.53,0 -19.46,2.05 -26.49,6 -7.17,3.95 -12.88,9.37 -17.27,16.1 -4.39,6.73 -7.46,14.49 -9.22,23.41 -1.76,8.93 -2.64,18.44 -2.64,28.39 0,11.56 0.88,22.1 2.64,31.31 1.76,9.22 4.68,17.12 8.93,23.85 4.1,6.58 9.66,11.56 16.68,15.07 7.02,3.37 15.81,5.12 26.49,5.12 10.53,0 19.46,-1.9 26.49,-6 7.17,-3.95 12.88,-9.37 17.27,-16.1 4.39,-6.73 7.46,-14.63 9.22,-23.71 1.76,-9.07 2.64,-18.73 2.64,-28.83l-0.15 -0.29zm-173.99 101.12c0,1.17 -0.29,2.19 -0.73,3.07 -0.44,0.88 -1.46,1.46 -3.07,2.05 -1.76,0.44 -4.1,0.88 -7.17,1.17 -3.22,0.29 -7.46,0.29 -13.02,0.29 -4.54,0 -8.19,-0.15 -10.98,-0.29 -2.78,-0.29 -4.98,-0.58 -6.44,-1.17 -1.61,-0.58 -2.64,-1.32 -3.37,-2.34 -0.58,-1.03 -1.17,-2.05 -1.61,-3.37l-19.17 -47.56c-2.34,-5.41 -4.54,-10.24 -6.73,-14.34 -2.19,-4.24 -4.68,-7.76 -7.32,-10.53 -2.64,-2.78 -5.85,-4.83 -9.37,-6.29 -3.51,-1.46 -7.61,-2.19 -12.14,-2.19l-13.46 0 0 81.21c0,1.03 -0.29,2.05 -1.03,2.93 -0.73,0.88 -1.9,1.61 -3.51,2.19 -1.61,0.44 -3.8,1.03 -6.58,1.32 -2.64,0.29 -6.29,0.44 -10.39,0.44 -4.1,0 -7.61,-0.15 -10.39,-0.44 -2.78,-0.29 -4.98,-0.73 -6.58,-1.32 -1.61,-0.58 -2.78,-1.32 -3.37,-2.19 -0.73,-0.88 -1.03,-1.9 -1.03,-2.93l0 -193.16c0,-4.83 1.17,-8.34 3.66,-10.39 2.49,-2.19 5.56,-3.22 9.07,-3.22l55.02 0c5.56,0 10.24,0.15 13.75,0.29 3.66,0.29 6.88,0.44 9.8,0.73 8.49,1.17 16.24,3.37 23.12,6.29 6.88,2.93 12.73,6.73 17.42,11.56 4.83,4.83 8.49,10.39 10.98,16.83 2.49,6.44 3.8,13.9 3.8,22.39 0,7.02 -0.88,13.61 -2.64,19.46 -1.9,5.85 -4.54,11.12 -8.05,15.66 -3.51,4.54 -7.76,8.63 -13.02,12 -5.12,3.37 -10.98,6.15 -17.56,8.19 3.22,1.46 6.15,3.37 8.93,5.56 2.78,2.19 5.41,4.83 7.9,8.05 2.49,3.07 4.83,6.73 7.02,10.68 2.19,3.95 4.24,8.49 6.44,13.61l18 42c1.61,4.1 2.78,7.17 3.22,9.07 0.58,1.9 0.88,3.37 0.88,4.54l-0.29 0.14zm-55.9 -144.43c0,-7.02 -1.61,-13.02 -4.83,-17.71 -3.22,-4.83 -8.49,-8.19 -15.66,-10.24 -2.19,-0.58 -4.68,-1.03 -7.46,-1.32 -2.78,-0.29 -6.73,-0.44 -11.56,-0.44l-19.46 0 0 60.29 22.1 0c6.15,0 11.56,-0.73 16.1,-2.19 4.68,-1.46 8.49,-3.51 11.56,-6.29 3.07,-2.64 5.41,-5.85 6.88,-9.66 1.46,-3.66 2.34,-7.9 2.34,-12.44l-0.01 0zm-180.43 4.97c0,-7.46 -1.32,-13.61 -3.95,-18.44 -2.64,-4.83 -5.85,-8.34 -9.8,-10.68 -3.8,-2.34 -7.9,-3.8 -12.14,-4.39 -4.24,-0.58 -8.63,-0.88 -13.17,-0.88l-18.58 0 0 72.29 19.46 0c7.02,0 12.73,-1.03 17.42,-2.78 4.68,-1.9 8.49,-4.54 11.56,-7.9 2.93,-3.37 5.27,-7.32 6.73,-12 1.46,-4.68 2.34,-9.8 2.34,-15.22l0.14 0z"/>
    <g>
     <path class="fil0" d="M422.31 406.81l-7.17 -6.88 46.39 -46.97 0.44 6 0 4.39 0 2.93 -39.8 40.54 0.14 0.01zm-8.93 -23.12l-143.26 0 0 13.9 133.75 0c-0.44,4.83 -3.66,9.8 -5.71,14.78 -4.98,12 -4.24,13.75 -11.12,13.75l-117.06 0 0.44 14.05 155.26 0 0.73 -13.9 -22.83 -0.15c35.41,-18.58 15.66,-1.03 50.63,-36.44 1.03,-1.03 1.9,-2.05 2.93,-2.93 2.93,-2.64 1.61,-1.61 4.98,-3.37l0 102.87c-0.29,12.88 -4.83,18.14 -18,18.14l-191.55 0c-13.17,0 -18.14,-4.98 -18.14,-18.14l0 -261.79c0,-13.32 4.98,-18.14 18.14,-18.14l124.24 0c-0.15,14.78 0,29.56 0,44.34 0,31.02 -1.03,47.85 39.51,47.7 13.46,0 33.66,-1.61 46.24,1.03l-0.58 39.07c-4.83,2.05 -18.73,17.42 -23.41,22.24 -5.27,5.27 -19.32,21.22 -25.17,22.97l-0.01 0.01zm39.07 -99.8c-9.8,1.03 -21.8,0.44 -31.75,0.44 -10.53,0 -22.1,1.9 -26.92,-5.27 -5.85,-8.49 -2.93,-45.22 -3.22,-60 5.56,3.22 54.29,57.22 61.9,64.83zm-232.23 -69.36l0 281.25c2.78,4.68 4.98,10.68 8.34,14.05 3.66,3.66 9.22,5.41 14.05,8.34l211.01 0c5.41,-3.37 18.88,-7.46 21.66,-22.83 2.49,-13.75 -1.46,-122.33 0.88,-127.9l49.75 -49.6c-2.19,-4.83 -2.49,-3.37 -5.56,-7.46 -8.19,3.51 -32.49,32.34 -44.48,42.15l-0.15 -12.73c5.41,-10.98 30.59,-27.51 35.56,-38.34l-7.46 -5.71c-7.9,6.44 -21.36,22.24 -28.09,26.78l-0.29 -31.02c-4.1,-3.51 -7.46,-8.78 -11.12,-13.17 -10.83,-12.88 -71.71,-77.26 -77.85,-86.34l-143.85 0c-4.68,2.78 -10.68,4.98 -14.05,8.34 -3.37,3.37 -5.56,9.37 -8.34,14.05l0 0.14z"/>
     <path class="fil0" d="M269.98 353.1l0.73 1.9 69.51 0 0.58 -6.29 0 -1.46 0 -5.27c-15.51,-2.78 -52.97,-0.88 -70.82,-0.88l0 11.85 -0.01 0.14z"/>
     <polygon class="fil0" points="269.98,312.57 340.95,312.57 340.95,306.28 340.95,304.81 340.95,298.67 343.15,298.67 267.06,298.67 269.98,298.67 "/>
     <path class="fil0" d="M527.53 287.25c4.54,-4.68 5.12,-6 11.71,-3.37 0.73,6.58 -1.03,7.61 -4.39,10.68l-7.32 -7.32 -0.01 0zm-14.92 0c2.05,4.39 17.85,20.05 22.1,22.1 6,-5.12 24.29,-20.34 11.12,-33.22 -13.17,-13.02 -28.24,4.98 -33.36,11.12l0.15 0.01z"/>
    </g>
   </g>
  </g>
 </g>
</svg>
