<?xml version="1.0" encoding="UTF-8"?>
<!DOCTYPE svg PUBLIC "-//W3C//DTD SVG 1.1//EN" "http://www.w3.org/Graphics/SVG/1.1/DTD/svg11.dtd">
<!-- Creator: CorelDRAW 2021 (64-Bit) -->
<svg xmlns="http://www.w3.org/2000/svg" xml:space="preserve" width="5.76093in" height="0.462087in" version="1.1" style="shape-rendering:geometricPrecision; text-rendering:geometricPrecision; image-rendering:optimizeQuality; fill-rule:evenodd; clip-rule:evenodd"
viewBox="0 0 7479.62 599.94"
 xmlns:xlink="http://www.w3.org/1999/xlink"
 xmlns:xodm="http://www.corel.com/coreldraw/odm/2003">
 <defs>
  <style type="text/css">
   <![CDATA[
    .fil0 {fill:#373435}
   ]]>
  </style>
 </defs>
 <g id="Layer_x0020_1">
  <metadata id="CorelCorpID_0Corel-Layer"/>
  <g id="_1602263072368">
   <g id="_2180502224080">
    <path class="fil0" d="M299.97 0c165.73,0 299.97,134.24 299.97,299.97 7.28,127.47 146.91,187.31 215.04,190.07l6609.69 0c30.23,0 54.95,24.71 54.95,54.95l0 0c0,30.23 -24.71,54.95 -54.95,54.95l-7124.7 0c-165.73,0 -299.97,-134.24 -299.97,-299.97 0,-165.73 134.24,-299.97 299.97,-299.97zm0 109.9c105.01,0 190.07,85.06 190.07,190.07 0,105.01 -85.06,190.07 -190.07,190.07 -105.01,0 -190.07,-85.06 -190.07,-190.07 0,-105.01 85.06,-190.07 190.07,-190.07z"/>
    <path class="fil0" d="M950.98 417.4c-0.63,2.26 -1.38,4.14 -2.38,5.39 -1,1.38 -2.51,2.38 -4.39,3.14 -2.01,0.75 -4.52,1.25 -7.65,1.38 -3.14,0.25 -7.02,0.38 -11.79,0.38 -5.39,0 -9.66,-0.13 -12.92,-0.38 -3.26,-0.25 -5.77,-0.75 -7.65,-1.38 -1.88,-0.63 -3.26,-1.76 -4.14,-3.14 -0.88,-1.38 -1.51,-3.14 -2.01,-5.39l-29.23 -115.55 -0.25 0 -27.6 115.55c-0.5,2.13 -1.13,3.89 -2.01,5.27 -0.88,1.38 -2.13,2.38 -4.01,3.14 -1.88,0.75 -4.39,1.25 -7.4,1.51 -3.14,0.25 -7.28,0.38 -12.42,0.38 -5.52,0 -9.78,-0.13 -13.05,-0.38 -3.26,-0.25 -5.77,-0.75 -7.65,-1.38 -1.88,-0.63 -3.26,-1.76 -4.14,-3.14 -0.88,-1.38 -1.51,-3.14 -2.13,-5.39l-41.4 -159.08c-0.88,-3.39 -1.25,-6.02 -1.38,-8.03 -0.13,-1.88 0.38,-3.39 1.63,-4.39 1.25,-1 3.14,-1.63 5.77,-1.88 2.63,-0.25 6.4,-0.38 11.16,-0.38 4.39,0 7.9,0 10.54,0.25 2.63,0.13 4.52,0.5 5.77,1 1.25,0.5 2.26,1.25 2.63,2.26 0.38,1 0.88,2.38 1.13,4.14l31.99 139.64 0.13 0 33.25 -138.63c0.38,-1.76 0.88,-3.26 1.51,-4.39 0.63,-1.13 1.63,-2.01 3.14,-2.63 1.38,-0.63 3.51,-1 6.02,-1.25 2.51,-0.25 5.9,-0.38 10.16,-0.38 4.52,0 8.03,0.13 10.79,0.25 2.63,0.25 4.77,0.63 6.15,1.25 1.51,0.63 2.51,1.51 3.14,2.63 0.63,1.13 1.13,2.63 1.51,4.52l34.38 138.63 0.25 0 31.74 -139.26c0.25,-1.51 0.63,-2.76 1.13,-3.89 0.5,-1 1.38,-1.88 2.63,-2.51 1.38,-0.63 3.26,-1 5.64,-1.25 2.51,-0.25 5.9,-0.38 10.29,-0.38 4.14,0 7.4,0.13 9.66,0.38 2.26,0.25 3.89,0.88 5.02,1.88 1,1 1.51,2.51 1.38,4.52 -0.13,2.01 -0.63,4.77 -1.51,8.28l-41.78 158.7 0.37 -0.01zm2071.45 -5.14c0,2.76 -0.13,5.02 -0.38,6.9 -0.25,1.88 -0.63,3.26 -1,4.39 -0.5,1.13 -1,2.01 -1.76,2.51 -0.63,0.5 -1.51,0.75 -2.26,0.75l-91.46 0c-3.14,0 -5.64,-0.88 -7.78,-2.76 -2.13,-1.88 -3.14,-4.77 -3.14,-8.91l0 -158.96c0,-4.14 1,-7.15 3.14,-8.91 2.13,-1.88 4.77,-2.76 7.78,-2.76l91.08 0c0.88,0 1.63,0.25 2.26,0.75 0.63,0.5 1.25,1.25 1.63,2.51 0.38,1.25 0.88,2.63 1,4.52 0.25,1.88 0.38,4.14 0.38,7.02 0,2.63 -0.13,4.89 -0.38,6.77 -0.25,1.88 -0.63,3.26 -1,4.39 -0.5,1.13 -1,2.01 -1.63,2.51 -0.63,0.5 -1.38,0.75 -2.26,0.75l-65.11 0 0 44.41 54.83 0c0.88,0 1.63,0.25 2.26,0.75 0.75,0.5 1.25,1.25 1.76,2.38 0.5,1 0.88,2.51 1,4.39 0.25,1.88 0.38,4.01 0.38,6.65 0,2.76 -0.13,5.02 -0.38,6.77 -0.25,1.76 -0.63,3.26 -1,4.27 -0.5,1.13 -1,1.88 -1.76,2.26 -0.63,0.5 -1.38,0.75 -2.26,0.75l-54.83 0 0 51.31 65.49 0c0.88,0 1.63,0.25 2.26,0.75 0.75,0.5 1.25,1.38 1.76,2.51 0.5,1.13 0.88,2.63 1,4.39 0.25,1.88 0.38,4.14 0.38,6.9l0 0.01zm-134.49 -12.92c0,2.38 0,4.39 -0.25,6.02 -0.13,1.63 -0.38,3.14 -0.63,4.27 -0.25,1.25 -0.63,2.26 -1.13,3.14 -0.5,0.88 -1.25,1.76 -2.26,2.89 -1,1 -3.01,2.51 -6.02,4.14 -3.01,1.63 -6.52,3.26 -10.91,4.77 -4.27,1.51 -9.16,2.76 -14.68,3.76 -5.52,1 -11.42,1.51 -17.81,1.51 -12.42,0 -23.71,-1.88 -33.75,-5.77 -10.04,-3.89 -18.57,-9.66 -25.59,-17.31 -7.02,-7.65 -12.42,-17.19 -16.18,-28.6 -3.76,-11.42 -5.64,-24.71 -5.64,-40.02 0,-15.43 2.13,-29.23 6.15,-41.28 4.14,-12.04 9.91,-22.08 17.31,-30.23 7.4,-8.15 16.31,-14.3 26.72,-18.57 10.29,-4.27 21.83,-6.4 34.25,-6.4 5.02,0 9.91,0.38 14.68,1.25 4.77,0.88 9.03,1.88 13.05,3.26 4.01,1.38 7.53,2.89 10.79,4.77 3.14,1.88 5.39,3.39 6.65,4.64 1.25,1.25 2.13,2.38 2.63,3.14 0.5,0.88 0.88,1.88 1.13,3.26 0.25,1.38 0.5,2.89 0.63,4.64 0.13,1.76 0.25,3.89 0.25,6.65 0,2.76 -0.13,5.14 -0.25,7.15 -0.25,2.01 -0.5,3.51 -1,4.77 -0.5,1.25 -1,2.13 -1.63,2.63 -0.63,0.63 -1.38,0.88 -2.26,0.88 -1.38,0 -3.14,-0.88 -5.39,-2.51 -2.13,-1.63 -4.89,-3.51 -8.4,-5.52 -3.39,-2.01 -7.53,-3.89 -12.29,-5.52 -4.77,-1.63 -10.29,-2.51 -16.93,-2.51 -7.15,0 -13.67,1.51 -19.32,4.39 -5.64,3.01 -10.54,7.15 -14.43,12.67 -4.01,5.52 -7.02,12.17 -9.03,19.95 -2.01,7.78 -3.14,16.56 -3.14,26.34 0,10.66 1.13,19.95 3.26,27.85 2.26,7.78 5.39,14.3 9.41,19.32 4.01,5.02 9.03,8.78 14.8,11.29 5.77,2.51 12.29,3.76 19.44,3.76 6.52,0 12.17,-0.75 17.06,-2.26 4.77,-1.51 8.91,-3.26 12.29,-5.14 3.51,-1.88 6.27,-3.51 8.4,-5.02 2.26,-1.51 3.89,-2.26 5.14,-2.26 0.88,0 1.63,0.25 2.26,0.63 0.63,0.38 1,1.13 1.38,2.26 0.38,1.13 0.63,2.63 0.88,4.77 0.25,2.13 0.25,4.77 0.25,8.15l0.11 -0.01zm-165.86 14.55c0,2.13 -0.38,4.14 -1.13,5.77 -0.75,1.63 -1.76,3.14 -3.14,4.27 -1.25,1.13 -2.76,1.88 -4.52,2.51 -1.76,0.5 -3.51,0.75 -5.27,0.75l-15.81 0c-3.26,0 -6.15,-0.38 -8.53,-1 -2.38,-0.63 -4.52,-1.88 -6.52,-3.64 -2.13,-1.76 -4.01,-4.14 -5.9,-7.02 -1.88,-2.89 -4.01,-6.77 -6.4,-11.54l-45.29 -85.31c-2.63,-5.14 -5.27,-10.54 -8.03,-16.43 -2.76,-5.9 -5.14,-11.54 -7.28,-17.06l-0.25 0c0.38,6.77 0.63,13.55 0.88,20.2 0.25,6.65 0.25,13.67 0.25,20.82l0 95.47c0,0.88 -0.25,1.76 -0.75,2.51 -0.5,0.75 -1.51,1.38 -2.63,1.88 -1.25,0.5 -3.01,0.88 -5.14,1.25 -2.13,0.25 -4.89,0.38 -8.28,0.38 -3.26,0 -6.02,-0.13 -8.28,-0.38 -2.13,-0.25 -3.89,-0.63 -5.02,-1.25 -1.25,-0.5 -2.13,-1.13 -2.51,-1.88 -0.5,-0.75 -0.75,-1.63 -0.75,-2.51l0 -163.85c0,-4.39 1.25,-7.78 3.89,-9.91 2.51,-2.26 5.77,-3.26 9.53,-3.26l19.82 0c3.51,0 6.52,0.25 9.03,0.88 2.51,0.63 4.64,1.63 6.52,3.01 1.88,1.38 3.76,3.39 5.39,5.9 1.63,2.51 3.39,5.52 5.14,9.28l35.38 66.75c2.01,4.01 4.14,8.03 6.15,11.92 2.01,3.89 4.01,7.78 5.77,11.67 1.88,3.89 3.64,7.78 5.52,11.54 1.88,3.76 3.51,7.53 5.27,11.29l0.13 0c-0.25,-6.65 -0.5,-13.42 -0.63,-20.57 -0.13,-7.15 -0.25,-14.05 -0.25,-20.45l0 -85.56c0,-0.88 0.25,-1.76 0.88,-2.51 0.5,-0.75 1.51,-1.38 2.76,-2.01 1.38,-0.63 3.14,-1 5.27,-1.25 2.13,-0.25 4.89,-0.38 8.28,-0.38 3.26,0 5.9,0.13 8.03,0.38 2.13,0.25 3.76,0.63 5.02,1.25 1.13,0.63 2.01,1.25 2.51,2.01 0.5,0.75 0.75,1.63 0.75,2.51l0 163.85 0.13 -0.27zm-183.17 -1.63c0,2.76 -0.13,5.02 -0.38,6.9 -0.25,1.88 -0.63,3.26 -1,4.39 -0.5,1.13 -1,2.01 -1.76,2.51 -0.63,0.5 -1.51,0.75 -2.26,0.75l-91.46 0c-3.14,0 -5.64,-0.88 -7.78,-2.76 -2.13,-1.88 -3.14,-4.77 -3.14,-8.91l0 -158.96c0,-4.14 1,-7.15 3.14,-8.91 2.13,-1.88 4.77,-2.76 7.78,-2.76l91.08 0c0.88,0 1.63,0.25 2.26,0.75 0.63,0.5 1.25,1.25 1.63,2.51 0.38,1.25 0.88,2.63 1,4.52 0.25,1.88 0.38,4.14 0.38,7.02 0,2.63 -0.13,4.89 -0.38,6.77 -0.25,1.88 -0.63,3.26 -1,4.39 -0.5,1.13 -1,2.01 -1.63,2.51 -0.63,0.5 -1.38,0.75 -2.26,0.75l-65.11 0 0 44.41 54.83 0c0.88,0 1.63,0.25 2.26,0.75 0.75,0.5 1.25,1.25 1.76,2.38 0.5,1 0.88,2.51 1,4.39 0.25,1.88 0.38,4.01 0.38,6.65 0,2.76 -0.13,5.02 -0.38,6.77 -0.25,1.76 -0.63,3.26 -1,4.27 -0.5,1.13 -1,1.88 -1.76,2.26 -0.63,0.5 -1.38,0.75 -2.26,0.75l-54.83 0 0 51.31 65.49 0c0.88,0 1.63,0.25 2.26,0.75 0.75,0.5 1.25,1.38 1.76,2.51 0.5,1.13 0.88,2.63 1,4.39 0.25,1.88 0.38,4.14 0.38,6.9l0 0.01zm-147.67 9.53c0,0.88 -0.25,1.76 -0.88,2.51 -0.63,0.75 -1.63,1.38 -3.01,1.88 -1.38,0.38 -3.26,0.88 -5.64,1.13 -2.38,0.25 -5.39,0.38 -9.03,0.38 -3.51,0 -6.52,-0.13 -8.91,-0.38 -2.38,-0.25 -4.39,-0.63 -5.77,-1.13 -1.38,-0.5 -2.38,-1.13 -3.01,-1.88 -0.63,-0.75 -0.88,-1.63 -0.88,-2.51l0 -172.25c0,-0.88 0.25,-1.76 0.88,-2.51 0.63,-0.75 1.63,-1.38 3.14,-1.88 1.38,-0.5 3.26,-0.88 5.64,-1.13 2.38,-0.25 5.39,-0.38 8.91,-0.38 3.64,0 6.65,0.13 9.03,0.38 2.26,0.25 4.27,0.63 5.64,1.13 1.38,0.5 2.38,1.13 3.01,1.88 0.63,0.75 0.88,1.63 0.88,2.51l0 172.25zm-64.36 0.26c0,1 -0.25,1.88 -0.63,2.63 -0.38,0.75 -1.25,1.25 -2.63,1.76 -1.51,0.38 -3.51,0.75 -6.15,1 -2.76,0.25 -6.4,0.25 -11.16,0.25 -3.89,0 -7.02,-0.13 -9.41,-0.25 -2.38,-0.25 -4.27,-0.5 -5.52,-1 -1.38,-0.5 -2.26,-1.13 -2.89,-2.01 -0.5,-0.88 -1,-1.76 -1.38,-2.89l-16.43 -40.77c-2.01,-4.64 -3.89,-8.78 -5.77,-12.29 -1.88,-3.64 -4.01,-6.65 -6.27,-9.03 -2.26,-2.38 -5.02,-4.14 -8.03,-5.39 -3.01,-1.25 -6.52,-1.88 -10.41,-1.88l-11.54 0 0 69.63c0,0.88 -0.25,1.76 -0.88,2.51 -0.63,0.75 -1.63,1.38 -3.01,1.88 -1.38,0.38 -3.26,0.88 -5.64,1.13 -2.26,0.25 -5.39,0.38 -8.91,0.38 -3.51,0 -6.52,-0.13 -8.91,-0.38 -2.38,-0.25 -4.27,-0.63 -5.64,-1.13 -1.38,-0.5 -2.38,-1.13 -2.89,-1.88 -0.63,-0.75 -0.88,-1.63 -0.88,-2.51l0 -165.6c0,-4.14 1,-7.15 3.14,-8.91 2.13,-1.88 4.77,-2.76 7.78,-2.76l47.17 0c4.77,0 8.78,0.13 11.79,0.25 3.14,0.25 5.9,0.38 8.4,0.63 7.28,1 13.92,2.89 19.82,5.39 5.9,2.51 10.91,5.77 14.93,9.91 4.14,4.14 7.28,8.91 9.41,14.43 2.13,5.52 3.26,11.92 3.26,19.19 0,6.02 -0.75,11.67 -2.26,16.68 -1.63,5.02 -3.89,9.53 -6.9,13.42 -3.01,3.89 -6.65,7.4 -11.16,10.29 -4.39,2.89 -9.41,5.27 -15.05,7.02 2.76,1.25 5.27,2.89 7.65,4.77 2.38,1.88 4.64,4.14 6.77,6.9 2.13,2.63 4.14,5.77 6.02,9.16 1.88,3.39 3.64,7.28 5.52,11.67l15.43 36.01c1.38,3.51 2.38,6.15 2.76,7.78 0.5,1.63 0.75,2.89 0.75,3.89l-0.25 0.12zm-47.93 -123.83c0,-6.02 -1.38,-11.16 -4.14,-15.18 -2.76,-4.14 -7.28,-7.02 -13.42,-8.78 -1.88,-0.5 -4.01,-0.88 -6.4,-1.13 -2.38,-0.25 -5.77,-0.38 -9.91,-0.38l-16.68 0 0 51.69 18.94 0c5.27,0 9.91,-0.63 13.8,-1.88 4.01,-1.25 7.28,-3.01 9.91,-5.39 2.63,-2.26 4.64,-5.02 5.9,-8.28 1.25,-3.14 2.01,-6.77 2.01,-10.66l-0.01 0zm-120.32 114.04c0,2.76 -0.13,5.02 -0.38,6.9 -0.25,1.88 -0.63,3.26 -1,4.39 -0.5,1.13 -1,2.01 -1.76,2.51 -0.63,0.5 -1.51,0.75 -2.26,0.75l-91.46 0c-3.14,0 -5.64,-0.88 -7.78,-2.76 -2.13,-1.88 -3.14,-4.77 -3.14,-8.91l0 -158.96c0,-4.14 1,-7.15 3.14,-8.91 2.13,-1.88 4.77,-2.76 7.78,-2.76l91.08 0c0.88,0 1.63,0.25 2.26,0.75 0.63,0.5 1.25,1.25 1.63,2.51 0.38,1.25 0.88,2.63 1,4.52 0.25,1.88 0.38,4.14 0.38,7.02 0,2.63 -0.13,4.89 -0.38,6.77 -0.25,1.88 -0.63,3.26 -1,4.39 -0.5,1.13 -1,2.01 -1.63,2.51 -0.63,0.5 -1.38,0.75 -2.26,0.75l-65.11 0 0 44.41 54.83 0c0.88,0 1.63,0.25 2.26,0.75 0.75,0.5 1.25,1.25 1.76,2.38 0.5,1 0.88,2.51 1,4.39 0.25,1.88 0.38,4.01 0.38,6.65 0,2.76 -0.13,5.02 -0.38,6.77 -0.25,1.76 -0.63,3.26 -1,4.27 -0.5,1.13 -1,1.88 -1.76,2.26 -0.63,0.5 -1.38,0.75 -2.26,0.75l-54.83 0 0 51.31 65.49 0c0.88,0 1.63,0.25 2.26,0.75 0.75,0.5 1.25,1.38 1.76,2.51 0.5,1.13 0.88,2.63 1,4.39 0.25,1.88 0.38,4.14 0.38,6.9l0 0.01zm-136.5 -112.41c0,10.29 -1.63,19.32 -4.77,27.22 -3.14,7.9 -7.78,14.55 -14.05,19.95 -6.15,5.39 -13.55,9.53 -22.46,12.42 -8.91,2.89 -19.32,4.27 -31.49,4.27l-15.3 0 0 58.09c0,1 -0.25,1.76 -0.88,2.51 -0.63,0.75 -1.63,1.38 -3.01,1.88 -1.38,0.5 -3.26,0.88 -5.64,1.13 -2.26,0.25 -5.39,0.38 -8.91,0.38 -3.51,0 -6.52,-0.13 -8.91,-0.38 -2.38,-0.25 -4.27,-0.63 -5.64,-1.13 -1.38,-0.5 -2.38,-1.13 -2.89,-1.88 -0.63,-0.75 -0.88,-1.63 -0.88,-2.51l0 -163.97c0,-4.39 1.13,-7.78 3.51,-9.91 2.26,-2.26 5.39,-3.26 9.03,-3.26l43.03 0c4.39,0 8.4,0.13 12.42,0.5 3.89,0.38 8.53,1 14.05,2.13 5.39,1.13 10.91,3.14 16.56,6.02 5.52,2.89 10.41,6.65 14.3,11.04 3.89,4.52 7.02,9.66 9.03,15.68 2.01,6.02 3.14,12.67 3.14,20.07l-0.25 -0.26zm-38.64 2.64c0,-6.4 -1.13,-11.67 -3.39,-15.81 -2.26,-4.14 -5.02,-7.15 -8.4,-9.16 -3.26,-2.01 -6.77,-3.26 -10.41,-3.76 -3.64,-0.5 -7.4,-0.75 -11.29,-0.75l-15.93 0 0 61.98 16.68 0c6.02,0 10.91,-0.88 14.93,-2.38 4.01,-1.63 7.28,-3.89 9.91,-6.77 2.51,-2.89 4.52,-6.27 5.77,-10.29 1.25,-4.01 2.01,-8.4 2.01,-13.05l0.12 0zm-115.17 110.28c1.63,3.26 2.76,5.9 3.26,7.9 0.5,2.01 0.25,3.51 -0.88,4.52 -1.13,1 -3.14,1.63 -6.15,2.01 -3.01,0.25 -7.02,0.38 -12.29,0.38 -4.39,0 -7.9,-0.13 -10.41,-0.25 -2.51,-0.25 -4.52,-0.5 -6.02,-0.88 -1.51,-0.38 -2.51,-1 -3.14,-1.76 -0.63,-0.75 -1.25,-1.63 -1.63,-2.76l-34.38 -65.87 -34 65.87c-0.63,1.13 -1.13,2.13 -1.88,2.76 -0.63,0.75 -1.76,1.38 -3.14,1.76 -1.51,0.38 -3.51,0.75 -6.15,0.88 -2.63,0.25 -6.02,0.25 -10.29,0.25 -4.89,0 -8.66,-0.13 -11.42,-0.38 -2.63,-0.25 -4.52,-0.88 -5.39,-2.01 -0.88,-1 -1.13,-2.51 -0.5,-4.52 0.5,-2.01 1.76,-4.52 3.51,-7.9l43.66 -79.67 -40.52 -74.77c-1.63,-3.39 -2.89,-6.15 -3.51,-8.15 -0.63,-2.01 -0.38,-3.51 0.75,-4.52 1,-1 3.14,-1.63 6.02,-1.88 2.89,-0.25 7.02,-0.38 12.42,-0.38 4.39,0 7.9,0.13 10.54,0.25 2.63,0.25 4.64,0.5 6.15,0.88 1.51,0.38 2.63,1 3.14,1.76 0.63,0.75 1.25,1.63 1.76,2.76l32.12 60.35 30.99 -60.35c0.63,-1.13 1.13,-2.13 1.76,-2.76 0.63,-0.75 1.63,-1.38 2.89,-1.76 1.38,-0.38 3.26,-0.75 5.64,-0.88 2.38,-0.25 5.77,-0.25 9.91,-0.25 4.64,0 8.4,0.13 11.16,0.38 2.63,0.25 4.52,0.88 5.64,1.88 1,1 1.25,2.51 0.75,4.52 -0.5,2.01 -1.63,4.64 -3.14,8.03l-40.52 74.4 43.28 80.04 0.01 0.12zm-162.84 -0.62c0,2.76 -0.13,5.02 -0.38,6.9 -0.25,1.88 -0.63,3.26 -1,4.39 -0.5,1.13 -1,2.01 -1.76,2.51 -0.63,0.5 -1.51,0.75 -2.26,0.75l-91.46 0c-3.14,0 -5.64,-0.88 -7.78,-2.76 -2.13,-1.88 -3.14,-4.77 -3.14,-8.91l0 -158.96c0,-4.14 1,-7.15 3.14,-8.91 2.13,-1.88 4.77,-2.76 7.78,-2.76l91.08 0c0.88,0 1.63,0.25 2.26,0.75 0.63,0.5 1.25,1.25 1.63,2.51 0.38,1.25 0.88,2.63 1,4.52 0.25,1.88 0.38,4.14 0.38,7.02 0,2.63 -0.13,4.89 -0.38,6.77 -0.25,1.88 -0.63,3.26 -1,4.39 -0.5,1.13 -1,2.01 -1.63,2.51 -0.63,0.5 -1.38,0.75 -2.26,0.75l-65.11 0 0 44.41 54.83 0c0.88,0 1.63,0.25 2.26,0.75 0.75,0.5 1.25,1.25 1.76,2.38 0.5,1 0.88,2.51 1,4.39 0.25,1.88 0.38,4.01 0.38,6.65 0,2.76 -0.13,5.02 -0.38,6.77 -0.25,1.76 -0.63,3.26 -1,4.27 -0.5,1.13 -1,1.88 -1.76,2.26 -0.63,0.5 -1.38,0.75 -2.26,0.75l-54.83 0 0 51.31 65.49 0c0.88,0 1.63,0.25 2.26,0.75 0.75,0.5 1.25,1.38 1.76,2.51 0.5,1.13 0.88,2.63 1,4.39 0.25,1.88 0.38,4.14 0.38,6.9l0 0.01zm-197.85 9.03c0,1 -0.25,2.01 -0.75,2.76 -0.5,0.88 -1.51,1.38 -3.01,2.01 -1.51,0.5 -3.39,0.88 -6.02,1.25 -2.51,0.25 -5.77,0.38 -9.53,0.38 -6.15,0 -10.54,-0.25 -13.17,-0.75 -2.63,-0.38 -4.64,-1.13 -5.77,-2.13 -1.13,-0.88 -2.01,-2.01 -2.76,-3.39l-55.08 -86.57 0 86.57c0,1 -0.25,1.88 -0.88,2.63 -0.5,0.75 -1.51,1.38 -2.89,1.88 -1.38,0.5 -3.26,0.88 -5.64,1.25 -2.26,0.25 -5.39,0.38 -8.91,0.38 -3.51,0 -6.52,-0.13 -8.91,-0.38 -2.38,-0.25 -4.27,-0.63 -5.64,-1.25 -1.38,-0.5 -2.38,-1.13 -3.01,-1.88 -0.63,-0.75 -0.88,-1.63 -0.88,-2.63l0 -171.75c0,-1 0.25,-1.88 0.88,-2.63 0.63,-0.75 1.63,-1.38 3.01,-1.88 1.38,-0.5 3.26,-0.88 5.64,-1.13 2.38,-0.25 5.39,-0.38 8.91,-0.38 3.64,0 6.65,0.13 8.91,0.38 2.38,0.25 4.27,0.63 5.64,1.13 1.38,0.5 2.38,1.13 2.89,1.88 0.63,0.75 0.88,1.63 0.88,2.63l0 77.66 53.32 -77.53c0.63,-1.25 1.38,-2.26 2.38,-3.01 0.88,-0.88 2.13,-1.38 3.64,-1.88 1.51,-0.38 3.39,-0.75 5.77,-1 2.38,-0.25 5.39,-0.25 9.03,-0.25 3.76,0 6.77,0.13 9.28,0.38 2.51,0.25 4.39,0.63 5.9,1.25 1.51,0.5 2.51,1.13 3.01,1.88 0.63,0.75 0.88,1.63 0.88,2.51 0,1.63 -0.38,3.26 -1.25,4.89 -0.88,1.63 -2.51,4.39 -4.77,8.03l-49.93 65.49 54.45 82.43c2.13,3.89 3.26,6.4 3.76,7.65 0.38,1.25 0.63,2.26 0.63,3.01l0 0.12zm-160.08 0.75c0,1 -0.25,1.88 -0.63,2.63 -0.38,0.75 -1.25,1.25 -2.63,1.76 -1.51,0.38 -3.51,0.75 -6.15,1 -2.76,0.25 -6.4,0.25 -11.16,0.25 -3.89,0 -7.02,-0.13 -9.41,-0.25 -2.38,-0.25 -4.27,-0.5 -5.52,-1 -1.38,-0.5 -2.26,-1.13 -2.89,-2.01 -0.5,-0.88 -1,-1.76 -1.38,-2.89l-16.43 -40.77c-2.01,-4.64 -3.89,-8.78 -5.77,-12.29 -1.88,-3.64 -4.01,-6.65 -6.27,-9.03 -2.26,-2.38 -5.02,-4.14 -8.03,-5.39 -3.01,-1.25 -6.52,-1.88 -10.41,-1.88l-11.54 0 0 69.63c0,0.88 -0.25,1.76 -0.88,2.51 -0.63,0.75 -1.63,1.38 -3.01,1.88 -1.38,0.38 -3.26,0.88 -5.64,1.13 -2.26,0.25 -5.39,0.38 -8.91,0.38 -3.51,0 -6.52,-0.13 -8.91,-0.38 -2.38,-0.25 -4.27,-0.63 -5.64,-1.13 -1.38,-0.5 -2.38,-1.13 -2.89,-1.88 -0.63,-0.75 -0.88,-1.63 -0.88,-2.51l0 -165.6c0,-4.14 1,-7.15 3.14,-8.91 2.13,-1.88 4.77,-2.76 7.78,-2.76l47.17 0c4.77,0 8.78,0.13 11.79,0.25 3.14,0.25 5.9,0.38 8.4,0.63 7.28,1 13.92,2.89 19.82,5.39 5.9,2.51 10.91,5.77 14.93,9.91 4.14,4.14 7.28,8.91 9.41,14.43 2.13,5.52 3.26,11.92 3.26,19.19 0,6.02 -0.75,11.67 -2.26,16.68 -1.63,5.02 -3.89,9.53 -6.9,13.42 -3.01,3.89 -6.65,7.4 -11.16,10.29 -4.39,2.89 -9.41,5.27 -15.05,7.02 2.76,1.25 5.27,2.89 7.65,4.77 2.38,1.88 4.64,4.14 6.77,6.9 2.13,2.63 4.14,5.77 6.02,9.16 1.88,3.39 3.64,7.28 5.52,11.67l15.43 36.01c1.38,3.51 2.38,6.15 2.76,7.78 0.5,1.63 0.75,2.89 0.75,3.89l-0.25 0.12zm-47.93 -123.83c0,-6.02 -1.38,-11.16 -4.14,-15.18 -2.76,-4.14 -7.28,-7.02 -13.42,-8.78 -1.88,-0.5 -4.01,-0.88 -6.4,-1.13 -2.38,-0.25 -5.77,-0.38 -9.91,-0.38l-16.68 0 0 51.69 18.94 0c5.27,0 9.91,-0.63 13.8,-1.88 4.01,-1.25 7.28,-3.01 9.91,-5.39 2.63,-2.26 4.64,-5.02 5.9,-8.28 1.25,-3.14 2.01,-6.77 2.01,-10.66l-0.01 0zm-118.69 35.25c0,15.05 -1.88,28.6 -5.64,40.52 -3.76,11.92 -9.28,22.08 -16.81,30.36 -7.4,8.28 -16.56,14.68 -27.47,19.07 -10.91,4.39 -23.58,6.52 -38.01,6.52 -14.17,0 -26.6,-1.88 -37.14,-5.52 -10.54,-3.76 -19.32,-9.28 -26.47,-16.93 -7.02,-7.65 -12.29,-17.31 -15.81,-28.98 -3.51,-11.79 -5.27,-25.59 -5.27,-41.65 0,-14.68 1.88,-27.98 5.64,-39.77 3.76,-11.79 9.28,-21.83 16.81,-30.11 7.4,-8.28 16.56,-14.68 27.47,-18.94 10.91,-4.39 23.71,-6.65 38.14,-6.65 13.8,0 25.97,1.88 36.51,5.52 10.54,3.64 19.32,9.28 26.47,16.93 7.15,7.65 12.42,17.19 16.06,28.73 3.64,11.67 5.39,25.34 5.39,41.03l0.13 -0.12zm-38.89 1.88c0,-9.53 -0.75,-18.31 -2.26,-26.09 -1.51,-7.78 -4.01,-14.55 -7.65,-20.2 -3.64,-5.52 -8.4,-9.91 -14.43,-12.92 -6.02,-3.01 -13.55,-4.52 -22.46,-4.52 -9.03,0 -16.68,1.76 -22.71,5.14 -6.15,3.39 -11.04,8.03 -14.8,13.8 -3.76,5.77 -6.4,12.42 -7.9,20.07 -1.51,7.65 -2.26,15.81 -2.26,24.34 0,9.91 0.75,18.94 2.26,26.85 1.51,7.9 4.01,14.68 7.65,20.45 3.51,5.64 8.28,9.91 14.3,12.92 6.02,2.89 13.55,4.39 22.71,4.39 9.03,0 16.68,-1.63 22.71,-5.14 6.15,-3.39 11.04,-8.03 14.8,-13.8 3.76,-5.77 6.4,-12.54 7.9,-20.32 1.51,-7.78 2.26,-16.06 2.26,-24.71l-0.13 -0.25z"/>
    <path class="fil0" d="M190.7 263.09l225.58 -0.38 -0.13 16.06 -32.12 0c0,44.92 4.27,48.05 -15.43,48.05 -20.82,0 -16.81,0.25 -16.81,-48.05l-96.35 0c0,7.53 1,36.13 -0.25,41.28 -2.51,10.16 -24.46,7.78 -30.99,4.01 -2.13,-10.04 -1,-33.25 -1,-45.29l-32.37 0 -0.13 -15.68 -0.01 0zm64.48 -63.86l6.02 -0.38 85.19 0 5.52 0 0 16.18 -1.63 0 -95.1 -0.75 0 -15.05zm-15.43 16.18c-10.29,-1.13 -39.14,-1.38 -49.31,-0.38 -16.81,1.76 -15.68,15.18 -15.68,32.24l0.13 144.15c1.88,16.81 17.19,14.8 33.87,14.8l192.58 0c17.31,0 30.23,1.25 30.86,-17.44 1.25,-41.4 0,-101.37 0,-144.15 0,-17.69 1.38,-29.23 -17.69,-29.73 -12.04,-0.38 -36.38,1.51 -46.67,-0.63 0,-38.01 -4.77,-31.24 -64.74,-31.24 -50.81,0 -67.5,-8.53 -63.36,32.37l0 0.01z"/>
   </g>
  </g>
 </g>
</svg>
