<?xml version="1.0" encoding="UTF-8"?>
<!DOCTYPE svg PUBLIC "-//W3C//DTD SVG 1.1//EN" "http://www.w3.org/Graphics/SVG/1.1/DTD/svg11.dtd">
<!-- Creator: CorelDRAW 2021 (64-Bit) -->
<svg xmlns="http://www.w3.org/2000/svg" xml:space="preserve" width="2.32793in" height="0.462087in" version="1.1" style="shape-rendering:geometricPrecision; text-rendering:geometricPrecision; image-rendering:optimizeQuality; fill-rule:evenodd; clip-rule:evenodd"
viewBox="0 0 1221.33 242.43"
 xmlns:xlink="http://www.w3.org/1999/xlink"
 xmlns:xodm="http://www.corel.com/coreldraw/odm/2003">
 <defs>
  <style type="text/css">
   <![CDATA[
    .fil0 {fill:#373435}
   ]]>
  </style>
 </defs>
 <g id="Layer_x0020_1">
  <metadata id="CorelCorpID_0Corel-Layer"/>
  <g id="_2180502224080">
   <path class="fil0" d="M121.22 0c66.97,0 121.22,54.24 121.22,121.22 -4.83,65.53 -39.2,105.93 -103.12,121.22l-18.09 0c-66.97,0 -121.22,-54.24 -121.22,-121.22 0,-66.97 54.24,-121.22 121.22,-121.22zm0 44.41c42.43,0 76.81,34.37 76.81,76.81 0,42.43 -34.37,76.81 -76.81,76.81 -42.43,0 -76.81,-34.37 -76.81,-76.81 0,-42.43 34.37,-76.81 76.81,-76.81z"/>
   <path class="fil0" d="M384.28 168.67c-0.25,0.91 -0.56,1.67 -0.96,2.18 -0.4,0.56 -1.01,0.96 -1.77,1.27 -0.81,0.3 -1.83,0.51 -3.09,0.56 -1.27,0.1 -2.84,0.15 -4.77,0.15 -2.18,0 -3.9,-0.05 -5.22,-0.15 -1.32,-0.1 -2.33,-0.3 -3.09,-0.56 -0.76,-0.25 -1.32,-0.71 -1.67,-1.27 -0.36,-0.56 -0.61,-1.27 -0.81,-2.18l-11.81 -46.69 -0.1 0 -11.15 46.69c-0.2,0.86 -0.46,1.57 -0.81,2.13 -0.36,0.56 -0.86,0.96 -1.62,1.27 -0.76,0.3 -1.77,0.51 -2.99,0.61 -1.27,0.1 -2.94,0.15 -5.02,0.15 -2.23,0 -3.95,-0.05 -5.27,-0.15 -1.32,-0.1 -2.33,-0.3 -3.09,-0.56 -0.76,-0.25 -1.32,-0.71 -1.67,-1.27 -0.36,-0.56 -0.61,-1.27 -0.86,-2.18l-16.73 -64.28c-0.36,-1.37 -0.51,-2.43 -0.56,-3.24 -0.05,-0.76 0.15,-1.37 0.66,-1.77 0.51,-0.4 1.27,-0.66 2.33,-0.76 1.06,-0.1 2.59,-0.15 4.51,-0.15 1.77,0 3.19,0 4.26,0.1 1.06,0.05 1.83,0.2 2.33,0.4 0.51,0.2 0.91,0.51 1.06,0.91 0.15,0.4 0.36,0.96 0.46,1.67l12.93 56.43 0.05 0 13.43 -56.02c0.15,-0.71 0.36,-1.32 0.61,-1.77 0.25,-0.46 0.66,-0.81 1.27,-1.06 0.56,-0.25 1.42,-0.4 2.43,-0.51 1.01,-0.1 2.38,-0.15 4.11,-0.15 1.83,0 3.24,0.05 4.36,0.1 1.06,0.1 1.93,0.25 2.48,0.51 0.61,0.25 1.01,0.61 1.27,1.06 0.25,0.46 0.46,1.06 0.61,1.83l13.89 56.02 0.1 0 12.83 -56.27c0.1,-0.61 0.25,-1.12 0.46,-1.57 0.2,-0.4 0.56,-0.76 1.06,-1.01 0.56,-0.25 1.32,-0.4 2.28,-0.51 1.01,-0.1 2.38,-0.15 4.16,-0.15 1.67,0 2.99,0.05 3.9,0.15 0.91,0.1 1.57,0.36 2.03,0.76 0.4,0.4 0.61,1.01 0.56,1.83 -0.05,0.81 -0.25,1.93 -0.61,3.35l-16.88 64.13 0.15 -0zm837.05 -2.08c0,1.12 -0.05,2.03 -0.15,2.79 -0.1,0.76 -0.25,1.32 -0.4,1.77 -0.2,0.46 -0.4,0.81 -0.71,1.01 -0.25,0.2 -0.61,0.3 -0.91,0.3l-36.96 0c-1.27,0 -2.28,-0.36 -3.14,-1.12 -0.86,-0.76 -1.27,-1.93 -1.27,-3.6l0 -64.23c0,-1.67 0.4,-2.89 1.27,-3.6 0.86,-0.76 1.93,-1.12 3.14,-1.12l36.81 0c0.36,0 0.66,0.1 0.91,0.3 0.25,0.2 0.51,0.51 0.66,1.01 0.15,0.51 0.36,1.06 0.4,1.83 0.1,0.76 0.15,1.67 0.15,2.84 0,1.06 -0.05,1.98 -0.15,2.74 -0.1,0.76 -0.25,1.32 -0.4,1.77 -0.2,0.46 -0.4,0.81 -0.66,1.01 -0.25,0.2 -0.56,0.3 -0.91,0.3l-26.31 0 0 17.95 22.15 0c0.36,0 0.66,0.1 0.91,0.3 0.3,0.2 0.51,0.51 0.71,0.96 0.2,0.4 0.36,1.01 0.4,1.77 0.1,0.76 0.15,1.62 0.15,2.69 0,1.12 -0.05,2.03 -0.15,2.74 -0.1,0.71 -0.25,1.32 -0.4,1.72 -0.2,0.46 -0.4,0.76 -0.71,0.91 -0.25,0.2 -0.56,0.3 -0.91,0.3l-22.15 0 0 20.74 26.46 0c0.36,0 0.66,0.1 0.91,0.3 0.3,0.2 0.51,0.56 0.71,1.01 0.2,0.46 0.36,1.06 0.4,1.77 0.1,0.76 0.15,1.67 0.15,2.79l0 0zm-54.35 -5.22c0,0.96 0,1.77 -0.1,2.43 -0.05,0.66 -0.15,1.27 -0.25,1.72 -0.1,0.51 -0.25,0.91 -0.46,1.27 -0.2,0.36 -0.51,0.71 -0.91,1.17 -0.4,0.4 -1.22,1.01 -2.43,1.67 -1.22,0.66 -2.64,1.32 -4.41,1.93 -1.72,0.61 -3.7,1.12 -5.93,1.52 -2.23,0.4 -4.61,0.61 -7.2,0.61 -5.02,0 -9.58,-0.76 -13.64,-2.33 -4.06,-1.57 -7.5,-3.9 -10.34,-7 -2.84,-3.09 -5.02,-6.95 -6.54,-11.56 -1.52,-4.61 -2.28,-9.99 -2.28,-16.17 0,-6.24 0.86,-11.81 2.48,-16.68 1.67,-4.87 4.01,-8.92 7,-12.22 2.99,-3.29 6.59,-5.78 10.8,-7.5 4.16,-1.72 8.82,-2.59 13.84,-2.59 2.03,0 4.01,0.15 5.93,0.51 1.93,0.36 3.65,0.76 5.27,1.32 1.62,0.56 3.04,1.17 4.36,1.93 1.27,0.76 2.18,1.37 2.69,1.88 0.51,0.51 0.86,0.96 1.06,1.27 0.2,0.36 0.36,0.76 0.46,1.32 0.1,0.56 0.2,1.17 0.25,1.88 0.05,0.71 0.1,1.57 0.1,2.69 0,1.12 -0.05,2.08 -0.1,2.89 -0.1,0.81 -0.2,1.42 -0.4,1.93 -0.2,0.51 -0.4,0.86 -0.66,1.06 -0.25,0.25 -0.56,0.36 -0.91,0.36 -0.56,0 -1.27,-0.36 -2.18,-1.01 -0.86,-0.66 -1.98,-1.42 -3.4,-2.23 -1.37,-0.81 -3.04,-1.57 -4.97,-2.23 -1.93,-0.66 -4.16,-1.01 -6.84,-1.01 -2.89,0 -5.53,0.61 -7.81,1.77 -2.28,1.22 -4.26,2.89 -5.83,5.12 -1.62,2.23 -2.84,4.92 -3.65,8.06 -0.81,3.14 -1.27,6.69 -1.27,10.65 0,4.31 0.46,8.06 1.32,11.26 0.91,3.14 2.18,5.78 3.8,7.81 1.62,2.03 3.65,3.55 5.98,4.56 2.33,1.01 4.97,1.52 7.86,1.52 2.64,0 4.92,-0.3 6.89,-0.91 1.93,-0.61 3.6,-1.32 4.97,-2.08 1.42,-0.76 2.53,-1.42 3.4,-2.03 0.91,-0.61 1.57,-0.91 2.08,-0.91 0.36,0 0.66,0.1 0.91,0.25 0.25,0.15 0.4,0.46 0.56,0.91 0.15,0.46 0.25,1.06 0.36,1.93 0.1,0.86 0.1,1.93 0.1,3.29l0.05 -0zm-67.02 5.88c0,0.86 -0.15,1.67 -0.46,2.33 -0.3,0.66 -0.71,1.27 -1.27,1.72 -0.51,0.46 -1.12,0.76 -1.83,1.01 -0.71,0.2 -1.42,0.3 -2.13,0.3l-6.39 0c-1.32,0 -2.48,-0.15 -3.45,-0.4 -0.96,-0.25 -1.83,-0.76 -2.64,-1.47 -0.86,-0.71 -1.62,-1.67 -2.38,-2.84 -0.76,-1.17 -1.62,-2.74 -2.59,-4.66l-18.3 -34.47c-1.06,-2.08 -2.13,-4.26 -3.24,-6.64 -1.12,-2.38 -2.08,-4.66 -2.94,-6.89l-0.1 0c0.15,2.74 0.25,5.48 0.36,8.16 0.1,2.69 0.1,5.53 0.1,8.41l0 38.58c0,0.36 -0.1,0.71 -0.3,1.01 -0.2,0.3 -0.61,0.56 -1.06,0.76 -0.51,0.2 -1.22,0.36 -2.08,0.51 -0.86,0.1 -1.98,0.15 -3.35,0.15 -1.32,0 -2.43,-0.05 -3.35,-0.15 -0.86,-0.1 -1.57,-0.25 -2.03,-0.51 -0.51,-0.2 -0.86,-0.46 -1.01,-0.76 -0.2,-0.3 -0.3,-0.66 -0.3,-1.01l0 -66.21c0,-1.77 0.51,-3.14 1.57,-4.01 1.01,-0.91 2.33,-1.32 3.85,-1.32l8.01 0c1.42,0 2.64,0.1 3.65,0.36 1.01,0.25 1.88,0.66 2.64,1.22 0.76,0.56 1.52,1.37 2.18,2.38 0.66,1.01 1.37,2.23 2.08,3.75l14.3 26.97c0.81,1.62 1.67,3.24 2.48,4.82 0.81,1.57 1.62,3.14 2.33,4.72 0.76,1.57 1.47,3.14 2.23,4.66 0.76,1.52 1.42,3.04 2.13,4.56l0.05 0c-0.1,-2.69 -0.2,-5.42 -0.25,-8.31 -0.05,-2.89 -0.1,-5.68 -0.1,-8.26l0 -34.57c0,-0.36 0.1,-0.71 0.36,-1.01 0.2,-0.3 0.61,-0.56 1.12,-0.81 0.56,-0.25 1.27,-0.4 2.13,-0.51 0.86,-0.1 1.98,-0.15 3.35,-0.15 1.32,0 2.38,0.05 3.24,0.15 0.86,0.1 1.52,0.25 2.03,0.51 0.46,0.25 0.81,0.51 1.01,0.81 0.2,0.3 0.3,0.66 0.3,1.01l0 66.21 0.05 -0.11zm-74.02 -0.66c0,1.12 -0.05,2.03 -0.15,2.79 -0.1,0.76 -0.25,1.32 -0.4,1.77 -0.2,0.46 -0.4,0.81 -0.71,1.01 -0.25,0.2 -0.61,0.3 -0.91,0.3l-36.96 0c-1.27,0 -2.28,-0.36 -3.14,-1.12 -0.86,-0.76 -1.27,-1.93 -1.27,-3.6l0 -64.23c0,-1.67 0.4,-2.89 1.27,-3.6 0.86,-0.76 1.93,-1.12 3.14,-1.12l36.81 0c0.36,0 0.66,0.1 0.91,0.3 0.25,0.2 0.51,0.51 0.66,1.01 0.15,0.51 0.36,1.06 0.4,1.83 0.1,0.76 0.15,1.67 0.15,2.84 0,1.06 -0.05,1.98 -0.15,2.74 -0.1,0.76 -0.25,1.32 -0.4,1.77 -0.2,0.46 -0.4,0.81 -0.66,1.01 -0.25,0.2 -0.56,0.3 -0.91,0.3l-26.31 0 0 17.95 22.15 0c0.36,0 0.66,0.1 0.91,0.3 0.3,0.2 0.51,0.51 0.71,0.96 0.2,0.4 0.36,1.01 0.4,1.77 0.1,0.76 0.15,1.62 0.15,2.69 0,1.12 -0.05,2.03 -0.15,2.74 -0.1,0.71 -0.25,1.32 -0.4,1.72 -0.2,0.46 -0.4,0.76 -0.71,0.91 -0.25,0.2 -0.56,0.3 -0.91,0.3l-22.15 0 0 20.74 26.46 0c0.36,0 0.66,0.1 0.91,0.3 0.3,0.2 0.51,0.56 0.71,1.01 0.2,0.46 0.36,1.06 0.4,1.77 0.1,0.76 0.15,1.67 0.15,2.79l0 0zm-59.67 3.85c0,0.36 -0.1,0.71 -0.36,1.01 -0.25,0.3 -0.66,0.56 -1.22,0.76 -0.56,0.15 -1.32,0.36 -2.28,0.46 -0.96,0.1 -2.18,0.15 -3.65,0.15 -1.42,0 -2.64,-0.05 -3.6,-0.15 -0.96,-0.1 -1.77,-0.25 -2.33,-0.46 -0.56,-0.2 -0.96,-0.46 -1.22,-0.76 -0.25,-0.3 -0.36,-0.66 -0.36,-1.01l0 -69.61c0,-0.36 0.1,-0.71 0.36,-1.01 0.25,-0.3 0.66,-0.56 1.27,-0.76 0.56,-0.2 1.32,-0.36 2.28,-0.46 0.96,-0.1 2.18,-0.15 3.6,-0.15 1.47,0 2.69,0.05 3.65,0.15 0.91,0.1 1.72,0.25 2.28,0.46 0.56,0.2 0.96,0.46 1.22,0.76 0.25,0.3 0.36,0.66 0.36,1.01l0 69.61zm-26.01 0.1c0,0.4 -0.1,0.76 -0.25,1.06 -0.15,0.3 -0.51,0.51 -1.06,0.71 -0.61,0.15 -1.42,0.3 -2.48,0.4 -1.12,0.1 -2.59,0.1 -4.51,0.1 -1.57,0 -2.84,-0.05 -3.8,-0.1 -0.96,-0.1 -1.72,-0.2 -2.23,-0.4 -0.56,-0.2 -0.91,-0.46 -1.17,-0.81 -0.2,-0.36 -0.4,-0.71 -0.56,-1.17l-6.64 -16.48c-0.81,-1.88 -1.57,-3.55 -2.33,-4.97 -0.76,-1.47 -1.62,-2.69 -2.53,-3.65 -0.91,-0.96 -2.03,-1.67 -3.24,-2.18 -1.22,-0.51 -2.64,-0.76 -4.21,-0.76l-4.66 0 0 28.14c0,0.36 -0.1,0.71 -0.36,1.01 -0.25,0.3 -0.66,0.56 -1.22,0.76 -0.56,0.15 -1.32,0.36 -2.28,0.46 -0.91,0.1 -2.18,0.15 -3.6,0.15 -1.42,0 -2.64,-0.05 -3.6,-0.15 -0.96,-0.1 -1.72,-0.25 -2.28,-0.46 -0.56,-0.2 -0.96,-0.46 -1.17,-0.76 -0.25,-0.3 -0.36,-0.66 -0.36,-1.01l0 -66.92c0,-1.67 0.4,-2.89 1.27,-3.6 0.86,-0.76 1.93,-1.12 3.14,-1.12l19.06 0c1.93,0 3.55,0.05 4.77,0.1 1.27,0.1 2.38,0.15 3.4,0.25 2.94,0.4 5.63,1.17 8.01,2.18 2.38,1.01 4.41,2.33 6.03,4.01 1.67,1.67 2.94,3.6 3.8,5.83 0.86,2.23 1.32,4.82 1.32,7.76 0,2.43 -0.3,4.72 -0.91,6.74 -0.66,2.03 -1.57,3.85 -2.79,5.42 -1.22,1.57 -2.69,2.99 -4.51,4.16 -1.77,1.17 -3.8,2.13 -6.08,2.84 1.12,0.51 2.13,1.17 3.09,1.93 0.96,0.76 1.88,1.67 2.74,2.79 0.86,1.06 1.67,2.33 2.43,3.7 0.76,1.37 1.47,2.94 2.23,4.72l6.24 14.55c0.56,1.42 0.96,2.48 1.12,3.14 0.2,0.66 0.3,1.17 0.3,1.57l-0.1 0.05zm-19.37 -50.04c0,-2.43 -0.56,-4.51 -1.67,-6.13 -1.12,-1.67 -2.94,-2.84 -5.42,-3.55 -0.76,-0.2 -1.62,-0.36 -2.59,-0.46 -0.96,-0.1 -2.33,-0.15 -4.01,-0.15l-6.74 0 0 20.89 7.65 0c2.13,0 4.01,-0.25 5.58,-0.76 1.62,-0.51 2.94,-1.22 4.01,-2.18 1.06,-0.91 1.88,-2.03 2.38,-3.35 0.51,-1.27 0.81,-2.74 0.81,-4.31l-0 0zm-48.62 46.08c0,1.12 -0.05,2.03 -0.15,2.79 -0.1,0.76 -0.25,1.32 -0.4,1.77 -0.2,0.46 -0.4,0.81 -0.71,1.01 -0.25,0.2 -0.61,0.3 -0.91,0.3l-36.96 0c-1.27,0 -2.28,-0.36 -3.14,-1.12 -0.86,-0.76 -1.27,-1.93 -1.27,-3.6l0 -64.23c0,-1.67 0.4,-2.89 1.27,-3.6 0.86,-0.76 1.93,-1.12 3.14,-1.12l36.81 0c0.36,0 0.66,0.1 0.91,0.3 0.25,0.2 0.51,0.51 0.66,1.01 0.15,0.51 0.36,1.06 0.4,1.83 0.1,0.76 0.15,1.67 0.15,2.84 0,1.06 -0.05,1.98 -0.15,2.74 -0.1,0.76 -0.25,1.32 -0.4,1.77 -0.2,0.46 -0.4,0.81 -0.66,1.01 -0.25,0.2 -0.56,0.3 -0.91,0.3l-26.31 0 0 17.95 22.15 0c0.36,0 0.66,0.1 0.91,0.3 0.3,0.2 0.51,0.51 0.71,0.96 0.2,0.4 0.36,1.01 0.4,1.77 0.1,0.76 0.15,1.62 0.15,2.69 0,1.12 -0.05,2.03 -0.15,2.74 -0.1,0.71 -0.25,1.32 -0.4,1.72 -0.2,0.46 -0.4,0.76 -0.71,0.91 -0.25,0.2 -0.56,0.3 -0.91,0.3l-22.15 0 0 20.74 26.46 0c0.36,0 0.66,0.1 0.91,0.3 0.3,0.2 0.51,0.56 0.71,1.01 0.2,0.46 0.36,1.06 0.4,1.77 0.1,0.76 0.15,1.67 0.15,2.79l0 0zm-55.16 -45.43c0,4.16 -0.66,7.81 -1.93,11 -1.27,3.19 -3.14,5.88 -5.68,8.06 -2.48,2.18 -5.48,3.85 -9.07,5.02 -3.6,1.17 -7.81,1.72 -12.73,1.72l-6.18 0 0 23.47c0,0.4 -0.1,0.71 -0.36,1.01 -0.25,0.3 -0.66,0.56 -1.22,0.76 -0.56,0.2 -1.32,0.36 -2.28,0.46 -0.91,0.1 -2.18,0.15 -3.6,0.15 -1.42,0 -2.64,-0.05 -3.6,-0.15 -0.96,-0.1 -1.72,-0.25 -2.28,-0.46 -0.56,-0.2 -0.96,-0.46 -1.17,-0.76 -0.25,-0.3 -0.36,-0.66 -0.36,-1.01l0 -66.26c0,-1.77 0.46,-3.14 1.42,-4.01 0.91,-0.91 2.18,-1.32 3.65,-1.32l17.39 0c1.77,0 3.4,0.05 5.02,0.2 1.57,0.15 3.45,0.4 5.68,0.86 2.18,0.46 4.41,1.27 6.69,2.43 2.23,1.17 4.21,2.69 5.78,4.46 1.57,1.83 2.84,3.9 3.65,6.34 0.81,2.43 1.27,5.12 1.27,8.11l-0.1 -0.1zm-15.61 1.07c0,-2.59 -0.46,-4.72 -1.37,-6.39 -0.91,-1.67 -2.03,-2.89 -3.4,-3.7 -1.32,-0.81 -2.74,-1.32 -4.21,-1.52 -1.47,-0.2 -2.99,-0.3 -4.56,-0.3l-6.44 0 0 25.04 6.74 0c2.43,0 4.41,-0.36 6.03,-0.96 1.62,-0.66 2.94,-1.57 4.01,-2.74 1.01,-1.17 1.83,-2.53 2.33,-4.16 0.51,-1.62 0.81,-3.4 0.81,-5.27l0.05 0zm-46.54 44.56c0.66,1.32 1.12,2.38 1.32,3.19 0.2,0.81 0.1,1.42 -0.36,1.83 -0.46,0.4 -1.27,0.66 -2.48,0.81 -1.22,0.1 -2.84,0.15 -4.97,0.15 -1.77,0 -3.19,-0.05 -4.21,-0.1 -1.01,-0.1 -1.83,-0.2 -2.43,-0.36 -0.61,-0.15 -1.01,-0.4 -1.27,-0.71 -0.25,-0.3 -0.51,-0.66 -0.66,-1.12l-13.89 -26.62 -13.74 26.62c-0.25,0.46 -0.46,0.86 -0.76,1.12 -0.25,0.3 -0.71,0.56 -1.27,0.71 -0.61,0.15 -1.42,0.3 -2.48,0.36 -1.06,0.1 -2.43,0.1 -4.16,0.1 -1.98,0 -3.5,-0.05 -4.61,-0.15 -1.06,-0.1 -1.83,-0.36 -2.18,-0.81 -0.36,-0.4 -0.46,-1.01 -0.2,-1.83 0.2,-0.81 0.71,-1.83 1.42,-3.19l17.64 -32.19 -16.38 -30.21c-0.66,-1.37 -1.17,-2.48 -1.42,-3.29 -0.25,-0.81 -0.15,-1.42 0.3,-1.83 0.4,-0.4 1.27,-0.66 2.43,-0.76 1.17,-0.1 2.84,-0.15 5.02,-0.15 1.77,0 3.19,0.05 4.26,0.1 1.06,0.1 1.88,0.2 2.48,0.36 0.61,0.15 1.06,0.4 1.27,0.71 0.25,0.3 0.51,0.66 0.71,1.12l12.98 24.39 12.52 -24.39c0.25,-0.46 0.46,-0.86 0.71,-1.12 0.25,-0.3 0.66,-0.56 1.17,-0.71 0.56,-0.15 1.32,-0.3 2.28,-0.36 0.96,-0.1 2.33,-0.1 4.01,-0.1 1.88,0 3.4,0.05 4.51,0.15 1.06,0.1 1.83,0.36 2.28,0.76 0.4,0.4 0.51,1.01 0.3,1.83 -0.2,0.81 -0.66,1.88 -1.27,3.24l-16.38 30.06 17.49 32.34 0 0.05zm-65.8 -0.25c0,1.12 -0.05,2.03 -0.15,2.79 -0.1,0.76 -0.25,1.32 -0.4,1.77 -0.2,0.46 -0.4,0.81 -0.71,1.01 -0.25,0.2 -0.61,0.3 -0.91,0.3l-36.96 0c-1.27,0 -2.28,-0.36 -3.14,-1.12 -0.86,-0.76 -1.27,-1.93 -1.27,-3.6l0 -64.23c0,-1.67 0.4,-2.89 1.27,-3.6 0.86,-0.76 1.93,-1.12 3.14,-1.12l36.81 0c0.36,0 0.66,0.1 0.91,0.3 0.25,0.2 0.51,0.51 0.66,1.01 0.15,0.51 0.36,1.06 0.4,1.83 0.1,0.76 0.15,1.67 0.15,2.84 0,1.06 -0.05,1.98 -0.15,2.74 -0.1,0.76 -0.25,1.32 -0.4,1.77 -0.2,0.46 -0.4,0.81 -0.66,1.01 -0.25,0.2 -0.56,0.3 -0.91,0.3l-26.31 0 0 17.95 22.15 0c0.36,0 0.66,0.1 0.91,0.3 0.3,0.2 0.51,0.51 0.71,0.96 0.2,0.4 0.36,1.01 0.4,1.77 0.1,0.76 0.15,1.62 0.15,2.69 0,1.12 -0.05,2.03 -0.15,2.74 -0.1,0.71 -0.25,1.32 -0.4,1.72 -0.2,0.46 -0.4,0.76 -0.71,0.91 -0.25,0.2 -0.56,0.3 -0.91,0.3l-22.15 0 0 20.74 26.46 0c0.36,0 0.66,0.1 0.91,0.3 0.3,0.2 0.51,0.56 0.71,1.01 0.2,0.46 0.36,1.06 0.4,1.77 0.1,0.76 0.15,1.67 0.15,2.79l0 0zm-79.95 3.65c0,0.4 -0.1,0.81 -0.3,1.12 -0.2,0.36 -0.61,0.56 -1.22,0.81 -0.61,0.2 -1.37,0.36 -2.43,0.51 -1.01,0.1 -2.33,0.15 -3.85,0.15 -2.48,0 -4.26,-0.1 -5.32,-0.3 -1.06,-0.15 -1.88,-0.46 -2.33,-0.86 -0.46,-0.36 -0.81,-0.81 -1.12,-1.37l-22.26 -34.98 0 34.98c0,0.4 -0.1,0.76 -0.36,1.06 -0.2,0.3 -0.61,0.56 -1.17,0.76 -0.56,0.2 -1.32,0.36 -2.28,0.51 -0.91,0.1 -2.18,0.15 -3.6,0.15 -1.42,0 -2.64,-0.05 -3.6,-0.15 -0.96,-0.1 -1.72,-0.25 -2.28,-0.51 -0.56,-0.2 -0.96,-0.46 -1.22,-0.76 -0.25,-0.3 -0.36,-0.66 -0.36,-1.06l0 -69.4c0,-0.4 0.1,-0.76 0.36,-1.06 0.25,-0.3 0.66,-0.56 1.22,-0.76 0.56,-0.2 1.32,-0.36 2.28,-0.46 0.96,-0.1 2.18,-0.15 3.6,-0.15 1.47,0 2.69,0.05 3.6,0.15 0.96,0.1 1.72,0.25 2.28,0.46 0.56,0.2 0.96,0.46 1.17,0.76 0.25,0.3 0.36,0.66 0.36,1.06l0 31.38 21.55 -31.33c0.25,-0.51 0.56,-0.91 0.96,-1.22 0.36,-0.36 0.86,-0.56 1.47,-0.76 0.61,-0.15 1.37,-0.3 2.33,-0.4 0.96,-0.1 2.18,-0.1 3.65,-0.1 1.52,0 2.74,0.05 3.75,0.15 1.01,0.1 1.77,0.25 2.38,0.51 0.61,0.2 1.01,0.46 1.22,0.76 0.25,0.3 0.36,0.66 0.36,1.01 0,0.66 -0.15,1.32 -0.51,1.98 -0.36,0.66 -1.01,1.77 -1.93,3.24l-20.18 26.46 22 33.31c0.86,1.57 1.32,2.59 1.52,3.09 0.15,0.51 0.25,0.91 0.25,1.22l0 0.05zm-64.69 0.3c0,0.4 -0.1,0.76 -0.25,1.06 -0.15,0.3 -0.51,0.51 -1.06,0.71 -0.61,0.15 -1.42,0.3 -2.48,0.4 -1.12,0.1 -2.59,0.1 -4.51,0.1 -1.57,0 -2.84,-0.05 -3.8,-0.1 -0.96,-0.1 -1.72,-0.2 -2.23,-0.4 -0.56,-0.2 -0.91,-0.46 -1.17,-0.81 -0.2,-0.36 -0.4,-0.71 -0.56,-1.17l-6.64 -16.48c-0.81,-1.88 -1.57,-3.55 -2.33,-4.97 -0.76,-1.47 -1.62,-2.69 -2.53,-3.65 -0.91,-0.96 -2.03,-1.67 -3.24,-2.18 -1.22,-0.51 -2.64,-0.76 -4.21,-0.76l-4.66 0 0 28.14c0,0.36 -0.1,0.71 -0.36,1.01 -0.25,0.3 -0.66,0.56 -1.22,0.76 -0.56,0.15 -1.32,0.36 -2.28,0.46 -0.91,0.1 -2.18,0.15 -3.6,0.15 -1.42,0 -2.64,-0.05 -3.6,-0.15 -0.96,-0.1 -1.72,-0.25 -2.28,-0.46 -0.56,-0.2 -0.96,-0.46 -1.17,-0.76 -0.25,-0.3 -0.36,-0.66 -0.36,-1.01l0 -66.92c0,-1.67 0.4,-2.89 1.27,-3.6 0.86,-0.76 1.93,-1.12 3.14,-1.12l19.06 0c1.93,0 3.55,0.05 4.77,0.1 1.27,0.1 2.38,0.15 3.4,0.25 2.94,0.4 5.63,1.17 8.01,2.18 2.38,1.01 4.41,2.33 6.03,4.01 1.67,1.67 2.94,3.6 3.8,5.83 0.86,2.23 1.32,4.82 1.32,7.76 0,2.43 -0.3,4.72 -0.91,6.74 -0.66,2.03 -1.57,3.85 -2.79,5.42 -1.22,1.57 -2.69,2.99 -4.51,4.16 -1.77,1.17 -3.8,2.13 -6.08,2.84 1.12,0.51 2.13,1.17 3.09,1.93 0.96,0.76 1.88,1.67 2.74,2.79 0.86,1.06 1.67,2.33 2.43,3.7 0.76,1.37 1.47,2.94 2.23,4.72l6.24 14.55c0.56,1.42 0.96,2.48 1.12,3.14 0.2,0.66 0.3,1.17 0.3,1.57l-0.1 0.05zm-19.37 -50.04c0,-2.43 -0.56,-4.51 -1.67,-6.13 -1.12,-1.67 -2.94,-2.84 -5.42,-3.55 -0.76,-0.2 -1.62,-0.36 -2.59,-0.46 -0.96,-0.1 -2.33,-0.15 -4.01,-0.15l-6.74 0 0 20.89 7.65 0c2.13,0 4.01,-0.25 5.58,-0.76 1.62,-0.51 2.94,-1.22 4.01,-2.18 1.06,-0.91 1.88,-2.03 2.38,-3.35 0.51,-1.27 0.81,-2.74 0.81,-4.31l-0 0zm-47.96 14.25c0,6.08 -0.76,11.56 -2.28,16.38 -1.52,4.82 -3.75,8.92 -6.79,12.27 -2.99,3.35 -6.69,5.93 -11.1,7.71 -4.41,1.77 -9.53,2.64 -15.36,2.64 -5.73,0 -10.75,-0.76 -15.01,-2.23 -4.26,-1.52 -7.81,-3.75 -10.7,-6.84 -2.84,-3.09 -4.97,-7 -6.39,-11.71 -1.42,-4.77 -2.13,-10.34 -2.13,-16.83 0,-5.93 0.76,-11.3 2.28,-16.07 1.52,-4.77 3.75,-8.82 6.79,-12.17 2.99,-3.35 6.69,-5.93 11.1,-7.65 4.41,-1.77 9.58,-2.69 15.41,-2.69 5.58,0 10.49,0.76 14.75,2.23 4.26,1.47 7.81,3.75 10.7,6.84 2.89,3.09 5.02,6.95 6.49,11.61 1.47,4.72 2.18,10.24 2.18,16.58l0.05 -0.05zm-15.72 0.76c0,-3.85 -0.3,-7.4 -0.91,-10.54 -0.61,-3.14 -1.62,-5.88 -3.09,-8.16 -1.47,-2.23 -3.4,-4.01 -5.83,-5.22 -2.43,-1.22 -5.48,-1.83 -9.07,-1.83 -3.65,0 -6.74,0.71 -9.18,2.08 -2.48,1.37 -4.46,3.24 -5.98,5.58 -1.52,2.33 -2.59,5.02 -3.19,8.11 -0.61,3.09 -0.91,6.39 -0.91,9.84 0,4.01 0.3,7.65 0.91,10.85 0.61,3.19 1.62,5.93 3.09,8.26 1.42,2.28 3.35,4.01 5.78,5.22 2.43,1.17 5.48,1.77 9.18,1.77 3.65,0 6.74,-0.66 9.18,-2.08 2.48,-1.37 4.46,-3.24 5.98,-5.58 1.52,-2.33 2.59,-5.07 3.19,-8.21 0.61,-3.14 0.91,-6.49 0.91,-9.99l-0.05 -0.1z"/>
   <path class="fil0" d="M77.06 106.31l91.15 -0.15 -0.05 6.49 -12.98 0c0,18.15 1.72,19.42 -6.24,19.42 -8.41,0 -6.79,0.1 -6.79,-19.42l-38.94 0c0,3.04 0.4,14.6 -0.1,16.68 -1.01,4.11 -9.89,3.14 -12.52,1.62 -0.86,-4.06 -0.4,-13.43 -0.4,-18.3l-13.08 0 -0.05 -6.34 -0 0zm26.06 -25.8l2.43 -0.15 34.42 0 2.23 0 0 6.54 -0.66 0 -38.43 -0.3 0 -6.08zm-6.24 6.54c-4.16,-0.46 -15.82,-0.56 -19.92,-0.15 -6.79,0.71 -6.34,6.13 -6.34,13.03l0.05 58.25c0.76,6.79 6.95,5.98 13.69,5.98l77.82 0c7,0 12.22,0.51 12.47,-7.05 0.51,-16.73 0,-40.96 0,-58.25 0,-7.15 0.56,-11.81 -7.15,-12.02 -4.87,-0.15 -14.7,0.61 -18.86,-0.25 0,-15.36 -1.93,-12.62 -26.16,-12.62 -20.53,0 -27.28,-3.45 -25.6,13.08l0 0z"/>
  </g>
 </g>
</svg>
